<?xml version="1.0" encoding="UTF-8" standalone="no"?>
<!-- Generator: visioncortex VTracer 0.6.4 -->

<svg
   version="1.1"
   width="1024"
   height="1024"
   id="svg140"
   sodipodi:docname="logo.svg"
   inkscape:version="1.2.2 (b0a8486541, 2022-12-01)"
   xmlns:inkscape="http://www.inkscape.org/namespaces/inkscape"
   xmlns:sodipodi="http://sodipodi.sourceforge.net/DTD/sodipodi-0.dtd"
   xmlns="http://www.w3.org/2000/svg"
   xmlns:svg="http://www.w3.org/2000/svg">
  <defs
     id="defs144" />
  <sodipodi:namedview
     id="namedview142"
     pagecolor="#ffffff"
     bordercolor="#000000"
     borderopacity="0.25"
     inkscape:showpageshadow="2"
     inkscape:pageopacity="0.0"
     inkscape:pagecheckerboard="0"
     inkscape:deskcolor="#d1d1d1"
     showgrid="false"
     inkscape:zoom="2.2077956"
     inkscape:cx="440.25814"
     inkscape:cy="166.45563"
     inkscape:window-width="1920"
     inkscape:window-height="1131"
     inkscape:window-x="0"
     inkscape:window-y="0"
     inkscape:window-maximized="1"
     inkscape:current-layer="svg140" />
  <path
     d="M0 0 C337.92 0 675.84 0 1024 0 C1024 337.92 1024 675.84 1024 1024 C686.08 1024 348.16 1024 0 1024 C0 686.08 0 348.16 0 0 Z "
     fill="#FEFEF9"
     transform="translate(0,0)"
     id="path2" />
  <path
     d="m 0,0 c 5.6591919,4.6158772 8.444981,9.6904118 10.722656,16.523437 0.578309,8.385483 -0.9903356,14.954052 -6.4374998,21.5 -2.4586851,2.772209 -3.97637573,3.731446 -7.5625,4.5 l 0.734375,2.69043 c 0.8985594,3.301342 1.79258902,6.603842 2.6835938,9.907227 0.38621652,1.428223 0.77422105,2.855965 1.1640625,4.283203 0.5607263,2.054089 1.1149545,4.109839 1.6679688,6.166015 l 1.015625,3.745118 c 0.7343749,3.208007 0.7343749,3.208007 0.7343749,7.208007 l 1.7531739,-0.259521 c 2.685993,-0.395777 5.3726469,-0.786891 8.0593259,-1.177979 l 2.75586,-0.408203 c 31.585046,-4.575925 62.412261,-3.556092 89.111324,15.78711 14.16242,10.998476 25.75943,24.651706 29.57032,42.621096 0.82699,3.08878 1.19565,4.10683 3.97656,5.76562 1.76195,0.65489 3.54178,1.26355 5.33594,1.82422 5.56642,1.93576 8.49081,7.02842 11.4375,11.84766 1.23046,3.47265 1.23046,3.47265 2.1875,7.0625 l 0.98046,3.59765 c 2.88807,11.59293 3.88267,24.56677 -2.16796,35.33985 -1.01048,1.05172 -2.0525,2.07411 -3.125,3.0625 -3.97714,4.13621 -3.75104,9.4723 -4.19678,14.89306 -1.62589,19.31772 -9.93518,33.12068 -23.86182,46.07569 -6.55157,5.44932 -14.25514,9.13332 -21.8164,12.96875 16.9593,-3.26404 31.28141,-10.15355 44,-22 l 1.62695,-1.47071 c 14.66817,-13.34522 24.85229,-29.25727 32.37305,-47.52929 l 0.92968,-2.11914 c 3.71312,-8.15318 3.71312,-8.15318 3.0586,-16.72852 -1.72253,-2.64154 -1.72253,-2.64154 -3.80078,-5.18359 -8.53966,-11.58954 -14.02495,-29.72342 -12.1875,-43.96875 1.75631,-5.41778 5.51426,-8.755 10,-12 7.35082,-2.45028 13.9877,-0.78503 21,2 l 0.29687,-2.16797 c 3.48439,-23.21926 3.48439,-23.21926 11.70313,-29.832033 4.8711,-3.313539 9.0315,-4.759627 15,-4 8.37338,2.79113 13.08831,7.327072 17,15.000003 l 1.70312,-0.47656 c 5.8808,-1.34019 11.3926,-1.48967 16.67188,1.66406 4.34715,3.1026 7.64563,6.82251 9.625,11.8125 2.52383,21.91365 -2.77059,52.02002 -16,70 -2.49783,2.86131 -5.03922,5.6127 -8,8 h -2 l -0.26172,2.28125 c -4.29004,32.43114 -21.06756,62.56906 -43.73828,85.71875 -0.96675,1.01636 -1.93288,2.0333 -2.89844,3.05078 -6.82254,7.10169 -14.08074,13.24415 -22.10156,18.94922 l -1.76123,1.25732 c -7.15568,5.05621 -14.51457,9.60471 -22.23877,13.74268 l -2.10254,1.13305 c -4.22861,2.20466 -8.26953,3.70996 -12.89746,4.86695 l 0.42724,2.11694 c 4.01921,20.0417 6.72119,39.4679 7.57276,59.88306 l 3.33203,0.84765 c 9.20905,2.452 17.05773,5.18124 24.66797,11.15235 l 1.9414,1.51172 c 20.09281,17.84528 24.17805,54.71686 27.0586,79.48828 0.0307,1.99976 0.0394,4.00039 0,6 l 2.13671,0.30859 c 12.85348,3.10377 21.68619,13.30356 28.41797,23.98047 2.60708,4.89004 3.67073,8.41618 2.88282,13.89844 -0.092,3.97892 0.31617,5.48064 2.72265,8.72265 2.76834,2.89575 5.77956,5.50953 8.83985,8.08985 6.78899,5.77496 13.04295,11.97542 19.28906,18.32812 3.40537,3.44048 6.80676,6.81227 10.49219,9.95313 6.48471,5.573 12.3687,11.81479 18.37353,17.89404 1.62334,1.64163 3.24984,3.28009 4.87647,4.91846 l 1.45593,1.48108 c 2.70762,2.72648 5.49412,5.30475 8.40344,7.81579 4.13076,3.57895 7.9892,7.3781 11.82813,11.26563 l 2.1278,2.13928 c 2.96728,2.98344 5.9285,5.97287 8.89026,8.96179 2.17937,2.19758 4.36184,4.39206 6.54444,6.58643 l 1.9862,2.01135 c 3.14335,3.15971 6.32946,6.20626 9.7052,9.11755 4.26368,3.68071 8.22582,7.61635 12.1836,11.6211 l 2.26233,2.2738 c 3.15843,3.17461 6.31081,6.35521 9.46374,9.53528 2.31837,2.33657 4.63983,4.67005 6.96143,7.00342 l 2.11877,2.14392 c 5.42149,5.44805 11.07243,10.54073 17.03748,15.38733 2.04924,2.62559 2.40182,3.44175 2.625,6.625 -0.625,3.9375 -0.625,3.9375 -2.56983,6.18432 -4.31334,2.47516 -7.70089,2.0798 -12.56299,1.74146 l -2.79171,-0.14449 C 65.094267,677.68652 -50.022561,669.16449 -255.90711,651.28536 c -8.3864,-48.26226 -5.15985,-39.64253 -17.51061,-84.49096 -2.96809,-3.62467 -6.70101,-3.83239 -11.16822,-4.66552 -53.14555,-8.77915 -12.30408,-2.2591 -60.43237,-11.10059 -4.76183,-0.95998 -7.22447,-2.74453 -10.25903,-6.50488 -0.70383,-3.75375 -0.46964,-5.30801 1.67895,-8.47388 55.2777,-32.8909 114.28854,-64.25077 160.70899,-93.09399 9.18223,-5.48818 9.18223,-5.48818 15.11718,-4.24732 13.95652,4.76321 27.51331,11.72595 40.49488,15.81519 l -1.57642,-2.49097 c -1.92888,-3.05653 -3.83812,-6.12493 -5.7417,-9.19726 -0.82608,-1.32721 -1.65743,-2.65115 -2.49414,-3.97168 -1.20295,-1.90056 -2.38636,-3.81212 -3.56665,-5.72681 l -1.14247,-1.77776 c -1.66555,-2.74081 -2.50907,-4.40537 -2.27965,-7.64705 1.74031,-4.75467 5.26811,-6.04886 9.67603,-8.12597 6.55561,-3.16435 12.87676,-6.68692 19.1875,-10.3125 l 2.73974,-1.57398 c 1.68894,-0.97411 3.37291,-1.95691 5.05078,-2.94995 2.14698,-1.22607 2.14698,-1.22607 5.12744,-2.54639 3.23879,-2.69376 3.4991,-6.35147 4.26954,-10.30468 5.61095,-25.05244 16.200734,-60.98903 37.749996,-77.375 3.583849,-2.17852 7.24007,-4.14383 11,-6 l -3.078125,-1.03125 c -16.785794,-5.8226 -33.538588,-16.31853 -42.921871,-31.96875 l -1.1875,-3.375 c -1.52123,-2.81154 -1.52123,-2.81154 -4.08594,-3.22657 -1.91572,-0.27367 -3.83246,-0.54021 -5.75,-0.80078 -9.0349,-1.81409 -15.72208,-8.36101 -20.97656,-15.59765 -8.28002,-13.13159 -9.73809,-28.47571 -7.46094,-43.57422 1.98993,-8.71413 4.98537,-15.23866 12.46094,-20.42578 2.6914,-0.63282 2.6914,-0.63282 5,-1 l -0.0794,-1.7815 c -1.02447,-26.59722 8.38301,-45.49973 25.63403,-65.12475 20.496188,-21.651758 48.042898,-27.782495 76.195316,-34.031253 l 2.86499,-0.640869 2.681885,-0.573974 2.323242,-0.499756 c 2.815533,-0.411586 5.538489,-0.403529 8.3798832,-0.347901 -1.1180092,-4.52142 -2.2390882,-9.042064 -3.3630372,-13.562011 -0.382034,-1.538201 -0.763223,-3.076612 -1.143555,-4.615235 -0.54637,-2.209703 -1.095759,-4.418637 -1.645752,-6.627441 l -0.514633,-2.089813 c -0.902276,-3.645737 -0.902276,-3.645737 -2.333023,-7.1055 -1.856503,-0.755485 -3.736058,-1.45473 -5.625,-2.125 -6.955628,-2.828566 -11.123447,-6.3152 -14.460937,-13.074218 -2.662288,-6.997666 -3.068659,-13.572627 -0.226563,-20.550781 3.360263,-6.7439421 8.718063,-10.84134504 15.3125,-14.2500005 C -15.391428,-5.8798892 -6.8829774,-4.4627195 0,0 Z"
     fill="#01242c"
     transform="translate(481.27734,83.476562)"
     id="path4"
     sodipodi:nodetypes="cccccccccccccccccccccccccccccccccccccccccccccccccccccccccccccccccccccccscccccsccccccccccccccccccccccccscccccccccccccccccccccccccccccccc" />
  <path
     d="M0 0 C2.39836271 0.87911031 4.7968065 1.75799946 7.1953125 2.63671875 C9.84340572 3.64117512 12.48468748 4.6627888 15.125 5.6875 C15.8118689 5.95322815 16.49873779 6.2189563 17.2064209 6.49273682 C26.28127169 10.01467217 35.25697682 13.61331713 43.80078125 18.30859375 C46.95951005 20.07170947 46.95951005 20.07170947 50.35546875 21.22265625 C53.60527555 22.50363206 55.63947085 23.4153398 58 26 C58.84176374 30.18581968 58.87543711 34.08449122 58.85546875 38.3359375 C58.91858565 49.49593993 63.40090596 61.11473333 70 70 C70.53496094 70.72703125 71.06992187 71.4540625 71.62109375 72.203125 C75.70563616 77.29701161 80.1258298 80.24159688 86 83 C86.825 83.433125 87.65 83.86625 88.5 84.3125 C93.33447513 85.64198066 98.13074237 85.67252361 102.85546875 83.97265625 C106.43493883 82.86546612 109.14809632 82.96753798 112.875 83.1875 C120.57619967 83.3094831 124.46470642 81.41745046 129.875 76.1875 C131.02127253 73.95863675 131.24943442 72.38761833 131.625 69.9375 C132.078125 67.82421875 132.078125 67.82421875 133 66 C135.23404178 64.82580875 137.35407237 64.25515608 139.80078125 63.65234375 C142.66864859 62.80166196 144.16279543 61.31647533 146 59 C151.18914305 60.58920098 155.99836407 62.74233164 160.90625 65.02734375 C161.74917603 65.41692764 162.59210205 65.80651154 163.46057129 66.207901 C165.23628214 67.02928954 167.01129424 67.85219017 168.78564453 68.67651367 C171.48973739 69.93273238 174.19583048 71.18455269 176.90234375 72.43554688 C178.63293089 73.23672349 180.3634035 74.03814755 182.09375 74.83984375 C182.89703735 75.21181381 183.70032471 75.58378387 184.5279541 75.96702576 C186.01945821 76.66024436 187.50913826 77.35740708 188.99658203 78.05929565 C190.81148168 78.91148127 192.63852608 79.7376829 194.46679688 80.56079102 C197.50243088 82.28545008 197.94365464 83.84988458 199.12109375 87.0390625 C203.75219133 97.37155576 214.42454798 101.63178516 224.25 105.6875 C233.24029487 108.94621994 241.95480236 111.2960707 251.55078125 110.76953125 C272.04242724 109.90696315 286.94986887 117.30612008 304.96073914 126.11572266 C313.91391007 130.4884868 323.01207845 134.50438144 332.14172363 138.49230957 C335.78066931 140.08352555 339.41420712 141.68688312 343.04772949 143.29043579 C345.69312375 144.45789909 348.33916341 145.62388823 350.98535156 146.78955078 C355.62468294 148.83387205 360.26190408 150.8829362 364.8984375 152.93359375 C376.37602191 158.00819684 387.85620805 163.07571303 399.3671875 168.07421875 C416.01900273 175.30605364 432.63994279 182.59462716 449.1875 190.0625 C450.01552124 190.43614685 450.84354248 190.8097937 451.69665527 191.19476318 C455.01428452 192.69201074 458.33185931 194.18937891 461.64938354 195.68685913 C470.3811468 199.62642761 479.12412729 203.5405757 487.875 207.4375 C488.98524536 207.93242447 488.98524536 207.93242447 490.11791992 208.43734741 C497.71206246 211.81965747 505.3192961 215.16158291 512.98828125 218.37109375 C513.60856201 218.6309758 514.22884277 218.89085785 514.86791992 219.15861511 C517.74117572 220.36005498 520.61825355 221.55090002 523.50146484 222.72827148 C524.48453613 223.13505127 525.46760742 223.54183105 526.48046875 223.9609375 C527.76280396 224.48373291 527.76280396 224.48373291 529.07104492 225.01708984 C531 226 531 226 532 228 C476.99424241 218.44554829 422.51460341 205.68535593 368.03138542 193.56413174 C360.34279026 191.85360828 352.65377663 190.14497013 344.96471596 188.4365406 C341.16330849 187.59188828 337.3619291 186.74710967 333.56054688 185.90234375 C332.04223646 185.5649408 330.52392592 185.22753846 329.00561523 184.89013672 C325.9440918 184.20979818 322.88256836 183.52945964 319.82104492 182.84912109 C319.05913094 182.67980733 318.29721695 182.51049356 317.51221466 182.33604908 C315.98053155 181.99567414 314.44884921 181.65529571 312.91716766 181.31491375 C309.17196952 180.48263165 305.42675863 179.65040701 301.68151855 178.8183136 C294.89936195 177.31143701 288.11737854 175.80379515 281.3359375 174.29370117 C269.60610306 171.68236966 257.87375219 169.08753604 246.125 166.5625 C242.99984884 165.88872072 239.87491757 165.21392424 236.75 164.5390625 C235.88384064 164.35204269 235.01768127 164.16502289 234.12527466 163.97233582 C221.74505972 161.29826504 209.36689541 158.61472921 196.98953056 155.92750072 C193.23195986 155.11171126 189.47429982 154.29634027 185.71636963 153.48220825 C170.44628687 150.17374202 155.18539391 146.83266993 139.94921875 143.37109375 C127.60049967 140.56722615 115.23123268 137.88166238 102.83740234 135.28500366 C97.27992434 134.12053714 91.72408732 132.94827612 86.16796875 131.77734375 C84.49980606 131.42610191 84.49980606 131.42610191 82.79794312 131.06776428 C72.02675758 128.79855801 61.26236488 126.49813329 50.5 124.1875 C49.70435638 124.01671936 48.90871277 123.84593872 48.08895874 123.66998291 C44.9677408 122.99995358 41.84653618 122.32986524 38.72557068 121.65866089 C34.06197247 120.65597869 29.39742199 119.65791519 24.73193359 118.6640625 C8.52265233 115.20755838 -7.6646895 111.65870991 -23.84546661 108.07183266 C-54.521863 101.2602991 -54.521863 101.2602991 -85.25 94.6875 C-85.95192474 94.54030518 -86.65384949 94.39311035 -87.37704468 94.24145508 C-95.73582729 92.49123805 -104.10117807 90.77346692 -112.46792603 89.06178284 C-116.9404467 88.14565099 -121.41196782 87.22469243 -125.88342285 86.30337524 C-129.12404038 85.63802919 -132.36615466 84.98036588 -135.60839844 84.32299805 C-137.58666465 83.91622283 -139.56485846 83.50909528 -141.54296875 83.1015625 C-142.45658676 82.91859116 -143.37020477 82.73561981 -144.31150818 82.54710388 C-145.15125687 82.37252151 -145.99100555 82.19793915 -146.85620117 82.01806641 C-147.5876384 81.86898834 -148.31907562 81.71991028 -149.07267761 81.5663147 C-151 81 -151 81 -154 79 C-138.77920604 70.04320356 -123.45946233 61.29173286 -108.03320312 52.69384766 C-94.08342526 44.90379946 -80.2081306 36.98225515 -66.34338379 29.04220581 C-56.876319 23.62222843 -47.38556367 18.24557715 -37.83422852 12.97509766 C-32.99468992 10.29422182 -28.23440621 7.55535154 -23.5703125 4.578125 C-22.72090088 4.04743408 -21.87148926 3.51674316 -20.99633789 2.9699707 C-19.43341155 1.98587113 -17.88636453 0.97582028 -16.36108398 -0.06567383 C-10.15827988 -3.93137691 -6.51005435 -2.67174359 0 0 Z "
     fill="#FDFCF8"
     transform="translate(310,542)"
     id="path6" />
  <path
     d="M0 0 C2.52517406 2.21290062 4.9306514 4.49729234 7.30859375 6.8671875 C8.37400391 7.89779297 8.37400391 7.89779297 9.4609375 8.94921875 C21.83287435 21.74859296 24.78930695 38.04003874 28.30859375 54.8671875 C28.65476623 56.50700269 29.00095877 58.14681365 29.34716797 59.78662109 C30.47820694 65.16381562 31.58402084 70.54598292 32.68359375 75.9296875 C32.86493866 76.80921082 33.04628357 77.68873413 33.23312378 78.59490967 C33.75384926 81.1332426 34.26335183 83.67357484 34.76953125 86.21484375 C34.92546249 86.96920212 35.08139374 87.72356049 35.24205017 88.5007782 C38.29689341 104.10481147 34.69878683 119.54062839 26.30859375 132.8671875 C18.49628511 143.56381788 8.31483564 148.889393 -3.69140625 153.8671875 C-4.76044189 154.32158203 -5.82947754 154.77597656 -6.9309082 155.24414062 C-13.310498 157.61803497 -20.03450952 158.71185385 -26.6953125 160.01171875 C-28.17914442 160.30637197 -29.662861 160.60160661 -31.14646912 160.89738464 C-35.0575102 161.67539608 -38.97012593 162.44518648 -42.88311768 163.21331787 C-46.74798187 163.97359456 -50.61120139 164.74213029 -54.47460938 165.50976562 C-62.79970323 167.16206202 -71.12791073 168.79822551 -79.45719147 170.42926788 C-81.69940156 170.86875463 -83.94137569 171.30942708 -86.18328857 171.75042725 C-89.77142028 172.45606833 -93.36011164 173.15879039 -96.94926262 173.85922813 C-98.90640497 174.24172186 -100.86306961 174.62665736 -102.81971741 175.01167297 C-122.79554646 178.89558603 -142.08105045 181.2208768 -159.92797852 169.65161133 C-165.34560044 165.95873254 -170.51166883 161.94556846 -174.69140625 156.8671875 C-175.57054687 155.89007813 -176.4496875 154.91296875 -177.35546875 153.90625 C-180.83841161 148.94234004 -180.17689343 143.71195912 -180.06640625 137.8671875 C-180.15930869 127.02307539 -181.50032978 117.00700171 -183.94140625 106.4921875 C-184.22935059 105.22890625 -184.51729492 103.965625 -184.81396484 102.6640625 C-188.51412005 87.31125435 -188.51412005 87.31125435 -196.50390625 73.9296875 C-200.99567389 67.83932133 -200.62728984 62.1580226 -199.69140625 54.8671875 C-196.97822197 37.70928315 -189.70922158 21.88416493 -175.39453125 11.36328125 C-162.20243971 2.28424386 -147.94148451 -1.30145483 -132.50390625 -4.5703125 C-130.69400123 -4.96032522 -128.88410554 -5.3503812 -127.07421875 -5.74047852 C-115.4833321 -8.21741559 -103.86195453 -10.50158971 -92.19140625 -12.5703125 C-91.52227203 -12.68978241 -90.85313782 -12.80925232 -90.16372681 -12.93234253 C-58.69262179 -18.50471564 -26.78551001 -21.22625322 0 0 Z "
     fill="#4BAEAB"
     transform="translate(581.69140625,190.1328125)"
     id="path8" />
  <path
     d="M0 0 C11.29011813 3.86149746 19.88266703 14.23664052 25.296875 24.43359375 C35.46342241 45.57932076 39.85399161 72.55582462 39.546875 95.87109375 C38.66386719 96.13921875 37.78085937 96.40734375 36.87109375 96.68359375 C21.24430111 101.78621992 11.62334603 110.13668115 3.796875 124.74609375 C1.03298062 130.55495652 -0.71921527 136.69101326 -2.453125 142.87109375 C-5.75695956 143.85521468 -8.17419279 144.01722507 -11.453125 142.87109375 C-14.13226623 139.5965878 -16.15426753 136.1423564 -18.27734375 132.49609375 C-23.98037028 122.71516427 -32.71044653 117.38531284 -43.140625 113.49609375 C-57.43343937 110.67282178 -69.91717064 113.52950871 -82.109375 121.24609375 C-88.58153663 125.73345915 -93.45447433 130.80231983 -98.10546875 137.1484375 C-98.55019531 137.71691406 -98.99492187 138.28539062 -99.453125 138.87109375 C-99.783125 138.87109375 -100.113125 138.87109375 -100.453125 138.87109375 C-100.51781982 138.11940918 -100.58251465 137.36772461 -100.64916992 136.59326172 C-102.16148483 119.41907615 -104.28857079 102.53272339 -107.26953125 85.55078125 C-107.56174561 83.87773926 -107.56174561 83.87773926 -107.85986328 82.17089844 C-108.25933796 79.9489644 -108.68003129 77.7307527 -109.12060547 75.51660156 C-109.32186035 74.46053711 -109.52311523 73.40447266 -109.73046875 72.31640625 C-109.91730225 71.38586426 -110.10413574 70.45532227 -110.29663086 69.49658203 C-110.4803986 66.41352698 -109.70738768 64.6605142 -108.453125 61.87109375 C-107.29194296 50.17826064 -108.86651606 39.24278715 -116.453125 29.87109375 C-118.38472559 28.09239031 -120.38543442 26.49885016 -122.453125 24.87109375 C-123.46992811 23.88818407 -124.48050719 22.89774588 -125.453125 21.87109375 C-119.69779039 19.95264888 -114.03528632 20.69464919 -108.203125 21.87109375 C-75.10868016 27.67201157 -35.52011505 19.11310651 -6.453125 2.87109375 C-5.44958984 2.00871094 -5.44958984 2.00871094 -4.42578125 1.12890625 C-2.453125 -0.12890625 -2.453125 -0.12890625 0 0 Z "
     fill="#4BAEAB"
     transform="translate(574.453125,369.12890625)"
     id="path10" />
  <path
     d="M -93.198344,-19.942848 C -75.602436,-19.941656 422.43296,85.517855 422.29951,90.817589 432.43835,94.066089 33.427846,52.052292 -80.951582,40.477198 -86.492284,9.0074008 -91.610191,0.1928223 -93.198344,-19.942848 Z"
     fill="#4baeab"
     transform="translate(322,675)"
     id="path12"
     sodipodi:nodetypes="cccc" />
  <path
     d="M0 0 C2.79666586 8.58338406 4.73036434 17.18503881 6.3125 26.0625 C6.49586914 27.061604 6.67923828 28.06070801 6.86816406 29.09008789 C7.03155273 30.04133545 7.19494141 30.99258301 7.36328125 31.97265625 C7.51063721 32.82093994 7.65799316 33.66922363 7.80981445 34.54321289 C8.15862336 39.04907178 6.86751213 42.44604122 4.9375 46.4375 C1.87303537 53.91971472 1.69206915 62.66897457 4 70.4375 C7.3471676 77.68969647 14.51599713 81.80516288 21.59765625 84.8046875 C42.38193356 92.10662649 67.02796453 96.68026846 88 88 C89.99622852 87.3221238 91.99534677 86.65254108 94 86 C94.4846875 86.49628906 94.969375 86.99257813 95.46875 87.50390625 C98.74352966 90.82276948 102.02523271 94.08528239 105.5625 97.125 C118.22944087 108.09655682 130.03633701 119.94058459 141.81201172 131.84887695 C148.18239236 138.31860251 148.18239236 138.31860251 154.91015625 144.41015625 C161.98250962 150.43652688 168.34397297 157.29299458 174.87304688 163.89355469 C183.68437523 172.81816303 183.68437523 172.81816303 192.9921875 181.21484375 C198.24177351 185.88227723 203.07723679 191.03072885 208.00927734 196.02978516 C209.49360246 197.53244123 210.98018829 199.03279094 212.46875 200.53125 C212.94570313 201.01142578 213.42265625 201.49160156 213.9140625 201.98632812 C217.25903894 205.32667163 220.71948274 208.47022318 224.36132812 211.48242188 C226.1793492 213.16609574 227.56970999 214.98191958 229 217 C223.69217152 215.41785882 218.92410489 213.11443821 214 210.625 C213.13060791 210.18800781 212.26121582 209.75101563 211.36547852 209.30078125 C202.94224245 205.03242718 194.6686058 200.50174594 186.39453125 195.953125 C181.32918531 193.17158189 176.23756539 190.44366601 171.125 187.75 C170.43784912 187.38648438 169.75069824 187.02296875 169.04272461 186.6484375 C158.78421611 181.26066072 148.3670761 176.17466521 137.98971558 171.02105713 C134.10813154 169.0925015 130.22803219 167.16096968 126.34814453 165.22900391 C124.37751468 164.24870536 122.40616789 163.26984662 120.43408203 162.29248047 C107.77890854 156.01866925 95.29366939 149.50926571 82.92041016 142.69628906 C76.83764516 139.3500208 70.68105443 136.16096658 64.5 133 C55.28910347 128.25782133 46.15513906 123.40081297 37.07958984 118.4050293 C30.47602223 114.77905495 23.81500147 111.27609046 17.125 107.8125 C7.96748266 103.07022804 -1.05933238 98.13861303 -10 93 C-9.94199219 92.20078125 -9.88398437 91.4015625 -9.82421875 90.578125 C-9.31820136 78.26021595 -12.98834533 69.50378748 -20.9609375 60.1875 C-25.77333163 54.74338459 -25.77333163 54.74338459 -32.0390625 51.43994141 C-34.70271296 50.68860742 -36.06049621 50.00584388 -38 48 C-39.35066405 42.62343977 -39.39816101 37.2706206 -39.5 31.75 C-39.55633272 30.22642658 -39.61618974 28.70297912 -39.6796875 27.1796875 C-39.82731433 23.45371467 -39.92652435 19.72825594 -40 16 C-38.85954224 15.59273682 -38.85954224 15.59273682 -37.69604492 15.17724609 C-34.18977988 13.91913292 -30.68868966 12.64716574 -27.1875 11.375 C-25.99189453 10.94832031 -24.79628906 10.52164063 -23.56445312 10.08203125 C-16.72601932 7.58516441 -10.39227469 4.79993083 -4.1027832 1.12353516 C-2 0 -2 0 0 0 Z "
     fill="#FCFCF8"
     transform="translate(616,543)"
     id="path14" />
  <path
     d="M0 0 C3.85802175 3.71268531 3.60682891 8.54697482 4.09375 13.6953125 C4.27454102 15.25378906 4.27454102 15.25378906 4.45898438 16.84375 C5.20114316 23.64616537 5.42641743 30.3563138 5.28125 37.1953125 C4.48203125 37.34226562 3.6828125 37.48921875 2.859375 37.640625 C-5.7281611 39.39441758 -15.32865077 41.80521327 -21.71875 48.1953125 C-22.05208333 51.6953125 -22.05208333 51.6953125 -21.71875 55.1953125 C-19.88399252 57.41315692 -19.88399252 57.41315692 -17.21875 57.6328125 C-12.90581407 57.09369551 -9.86962308 55.45536928 -6.0859375 53.38671875 C0.41849629 50.11303508 8.08034245 50.2730171 14.96875 52.2578125 C22.3910219 56.59914134 30.96788677 63.57277682 33.28125 72.1953125 C33.83306648 76.53101343 33.61057767 78.60479392 31.46875 82.4453125 C26.3764977 87.780053 18.34247001 88.35358429 11.34375 88.6328125 C-5.32118977 88.19530811 -24.16401603 84.12691164 -36.59375 72.5078125 C-38.90920929 68.89842008 -39.59011758 66.96130283 -39.32836914 62.74829102 C-38.581728 59.6214883 -37.19310637 58.13501881 -35.16015625 55.66015625 C-29.35779317 46.85491921 -31.41793559 36.2719898 -32.08862305 26.20898438 C-33.03123353 10.8960362 -33.03123353 10.8960362 -29.61743164 6.47241211 C-27.03341363 4.6389977 -24.65379716 3.3692755 -21.71875 2.1953125 C-21.00074219 1.83937012 -20.28273438 1.48342773 -19.54296875 1.11669922 C-13.53542574 -1.8121445 -6.32045038 -1.87070801 0 0 Z "
     fill="#4AAEAB"
     transform="translate(558.71875,551.8046875)"
     id="path16" />
  <path
     d="M0 0 C0.79956055 2.11376953 0.79956055 2.11376953 1.38671875 4.8828125 C1.7105957 6.38714844 1.7105957 6.38714844 2.04101562 7.921875 C2.36102539 9.50742187 2.36102539 9.50742187 2.6875 11.125 C2.91244141 12.15882813 3.13738281 13.19265625 3.36914062 14.2578125 C4.49069637 19.60309947 5.28620382 24.53892178 5 30 C3.99839844 30.37511719 2.99679687 30.75023437 1.96484375 31.13671875 C-8.24035032 34.82548487 -8.24035032 34.82548487 -17 41 C-18.22873769 44.02878466 -18.22873769 44.02878466 -18 47 C-17.34 47.99 -16.68 48.98 -16 50 C-10.25127828 50.93856681 -6.8405857 49.13862448 -2.11328125 46.19140625 C3.75434443 42.88341025 11.16617504 43.14418387 17.58984375 44.578125 C25.77916982 47.42433627 32.93947202 53.31623629 37.625 60.625 C39.19505028 64.47875978 39.61012782 66.88163724 39 71 C36.11802661 75.87718574 32.24888484 78.15877089 26.8125 79.56640625 C16.37284593 81.17585292 5.2490885 80.29476447 -5 78 C-5.63856934 77.86045898 -6.27713867 77.72091797 -6.93505859 77.57714844 C-25.87606882 73.38189059 -25.87606882 73.38189059 -32.0625 67.3125 C-34.34942289 63.40259958 -34.35701702 61.53225072 -33.59375 57.1875 C-32.68611183 53.8435699 -31.49180741 50.49180741 -29 48 C-27.75955134 35.27818936 -30.98622522 21.5111114 -33 9 C-23.12893959 1.84705768 -12.43925779 -4.14641926 0 0 Z "
     fill="#4AAEAB"
     transform="translate(666,541)"
     id="path18" />
  <path
     d="M0 0 C3.80299462 1.17547106 4.49407907 1.73257876 6.4375 5.0625 C7.64565365 12.15744152 5.89284735 19.04079459 4.18359375 25.90234375 C3.49166847 28.8330639 2.94923879 31.70222418 2.5625 34.6875 C2.46195313 35.46351563 2.36140625 36.23953125 2.2578125 37.0390625 C2.27154344 39.1493043 2.27154344 39.1493043 3.7109375 40.828125 C5.55882269 42.38934954 5.55882269 42.38934954 8.9375 42.1875 C12.64268278 41.42062837 12.64268278 41.42062837 14.125 38.25 C14.59357074 36.86428776 15.0261741 35.46626919 15.4375 34.0625 C19.72840909 20.62613636 19.72840909 20.62613636 23.4375 15.0625 C26.29870256 13.63189872 28.27760585 13.67557419 31.4375 14.0625 C34.55461866 17.38742657 34.6521063 20.37141418 34.58447266 24.796875 C34.32526864 28.79257818 33.51965846 32.65208151 32.6875 36.5625 C32.50630615 37.43181152 32.3251123 38.30112305 32.13842773 39.19677734 C31.58386247 41.8215436 31.01345065 44.44235135 30.4375 47.0625 C30.1892749 48.21153809 30.1892749 48.21153809 29.93603516 49.38378906 C27.1549895 62.07851125 23.83637007 73.85187409 12.4453125 81.37890625 C4.58541406 85.51039132 -4.44035188 85.10455575 -12.875 82.9375 C-21.88879579 79.80163253 -29.3212365 72.82474623 -33.96875 64.5625 C-38.28095197 55.51739344 -42.71404444 45.23447588 -41.5625 35.0625 C-40.9025 34.4025 -40.2425 33.7425 -39.5625 33.0625 C-36.6875 33.0625 -36.6875 33.0625 -33.5625 34.0625 C-31.26888843 36.77313185 -29.91419439 39.18751839 -28.59375 42.47265625 C-25.7356751 49.24016932 -22.67533397 51.7772505 -15.98828125 54.80859375 C-13.5625 56.0625 -13.5625 56.0625 -11.5625 59.0625 C-11.3975 60.238125 -11.2325 61.41375 -11.0625 62.625 C-10.90402243 66.1196192 -10.90402243 66.1196192 -8.5625 68.0625 C-5.0625 68.39583333 -5.0625 68.39583333 -1.5625 68.0625 C0.65492557 66.27434272 0.65492557 66.27434272 0.625 63.8828125 C0.0605497 55.76883943 -2.24786016 46.88741555 -8.55859375 41.29296875 C-11.10652165 39.72845162 -13.70462606 38.90687185 -16.5625 38.0625 C-16.08621515 32.70429544 -14.59006413 28.25212563 -12.66796875 23.2421875 C-10.98478619 18.40080728 -9.85335317 13.4314167 -8.6875 8.4453125 C-7.00325444 3.38087966 -5.61824413 0.09856569 0 0 Z "
     fill="#4CB0AD"
     transform="translate(707.5625,188.9375)"
     id="path20" />
  <path
     d="M0 0 C3.9061078 2.9045417 6.57202822 6.33062499 8.4375 10.8125 C10.0572626 22.02624109 6.67561466 29.8821613 0.24609375 38.87890625 C-1.28831993 40.91180965 -2.83517859 42.9353814 -4.39453125 44.94921875 C-10.42853278 52.9184496 -14.53544447 61.70164386 -18.5625 70.8125 C-19.23796875 70.60753906 -19.9134375 70.40257812 -20.609375 70.19140625 C-21.50140625 69.92199219 -22.3934375 69.65257812 -23.3125 69.375 C-24.19421875 69.10816406 -25.0759375 68.84132813 -25.984375 68.56640625 C-26.83515625 68.31761719 -27.6859375 68.06882812 -28.5625 67.8125 C-29.17287109 67.63396484 -29.78324219 67.45542969 -30.41210938 67.27148438 C-32.84866746 66.75141975 -35.05593991 66.69965512 -37.546875 66.71484375 C-38.48144531 66.71806641 -39.41601562 66.72128906 -40.37890625 66.72460938 C-41.34699219 66.73298828 -42.31507813 66.74136719 -43.3125 66.75 C-44.29605469 66.75451172 -45.27960938 66.75902344 -46.29296875 66.76367188 C-48.71620791 66.77543517 -51.13932273 66.79187316 -53.5625 66.8125 C-51.09075169 53.20330423 -45.77034784 40.99880929 -40.125 28.4375 C-39.68293213 27.43960449 -39.24086426 26.44170898 -38.78540039 25.41357422 C-31.23358292 8.91069244 -20.26932331 -6.7564411 0 0 Z "
     fill="#4BAEAC"
     transform="translate(442.5625,404.1875)"
     id="path22" />
  <path
     d="M0 0 C2.52517406 2.21290062 4.9306514 4.49729234 7.30859375 6.8671875 C8.37400391 7.89779297 8.37400391 7.89779297 9.4609375 8.94921875 C21.83287435 21.74859296 24.78930695 38.04003874 28.30859375 54.8671875 C28.65476623 56.50700269 29.00095877 58.14681365 29.34716797 59.78662109 C30.47820694 65.16381562 31.58402084 70.54598292 32.68359375 75.9296875 C32.86493866 76.80921082 33.04628357 77.68873413 33.23312378 78.59490967 C33.75384926 81.1332426 34.26335183 83.67357484 34.76953125 86.21484375 C34.92546249 86.96920212 35.08139374 87.72356049 35.24205017 88.5007782 C38.27606428 103.99841697 34.76753681 119.66087843 26.30859375 132.8671875 C24.69245157 134.58289144 23.03791965 136.26562967 21.30859375 137.8671875 C22.29549244 135.38660431 23.28485997 132.92002548 24.37890625 130.484375 C32.24780326 110.02524277 26.75252554 86.27252537 22.14648438 65.68310547 C21.32734862 61.95260087 20.58167847 58.21442658 19.85546875 54.46484375 C16.6203935 38.17126068 12.76838536 22.68389309 0.30859375 10.8671875 C-0.32175781 10.20589844 -0.95210937 9.54460937 -1.6015625 8.86328125 C-14.54746977 -3.88904236 -32.54558335 -7.73063589 -50.12890625 -7.6953125 C-50.81058868 -7.6948291 -51.49227112 -7.6943457 -52.1946106 -7.69384766 C-69.14974345 -7.61206931 -85.54570303 -4.77064727 -102.15753174 -1.61114502 C-104.79849574 -1.11259667 -107.44155649 -0.62680789 -110.08544922 -0.14404297 C-115.58290676 0.86069779 -121.07525894 1.89108039 -126.56640625 2.9296875 C-127.42031952 3.08904785 -128.27423279 3.2484082 -129.15402222 3.41259766 C-149.7217832 7.27995904 -167.44203415 12.67257078 -182.69140625 27.8671875 C-183.25472656 28.40730469 -183.81804687 28.94742188 -184.3984375 29.50390625 C-190.88312627 36.29657496 -194.94450008 46.02053381 -197.69140625 54.8671875 C-198.02140625 54.8671875 -198.35140625 54.8671875 -198.69140625 54.8671875 C-197.94138734 40.36682189 -191.60299595 25.59391304 -180.8828125 15.6171875 C-166.23090085 3.91655217 -150.51982699 -0.75549908 -132.50390625 -4.5703125 C-130.69400123 -4.96032522 -128.88410554 -5.3503812 -127.07421875 -5.74047852 C-115.4833321 -8.21741559 -103.86195453 -10.50158971 -92.19140625 -12.5703125 C-91.52227203 -12.68978241 -90.85313782 -12.80925232 -90.16372681 -12.93234253 C-58.69262179 -18.50471564 -26.78551001 -21.22625322 0 0 Z "
     fill="#F5F8F5"
     transform="translate(581.69140625,190.1328125)"
     id="path24" />
  <path
     d="M0 0 C10.61697498 7.60788582 17.33782753 19.57949524 20.25 32.25 C20.25 33.57 20.25 34.89 20.25 36.25 C19.30640625 36.26417969 18.3628125 36.27835938 17.390625 36.29296875 C5.82960412 36.72244443 -3.21474738 39.47495208 -12.75 46.25 C-13.41 46.25 -14.07 46.25 -14.75 46.25 C-14.96914063 45.3321875 -15.18828125 44.414375 -15.4140625 43.46875 C-17.93746439 32.63282626 -17.93746439 32.63282626 -24.75 24.25 C-29.15096502 23.02146206 -32.50703211 23.64232681 -36.5625 25.625 C-39.23194079 28.82832895 -40.42439762 31.98661248 -41.7578125 35.91015625 C-42.79740143 38.36178527 -43.60840813 39.67637288 -45.75 41.25 C-52.08333333 40.91666667 -52.08333333 40.91666667 -54.75 38.25 C-56.34660995 25.81129458 -52.64087282 14.90574943 -45.734375 4.6640625 C-42.60278119 0.85436767 -39.1128192 -1.51927157 -34.75 -3.75 C-34.10160156 -4.08773438 -33.45320312 -4.42546875 -32.78515625 -4.7734375 C-21.55916256 -9.77807273 -9.95168861 -6.17342039 0 0 Z "
     fill="#4AAEAB"
     transform="translate(641.75,490.75)"
     id="path26" />
  <path
     d="M0 0 C5.56206294 1.81730769 5.56206294 1.81730769 7.95703125 2.81640625 C15.62831416 5.90106948 23.84513057 5.72848311 32 6 C30.93091228 17.49269298 26.37538259 28.15562439 21.375 38.4375 C20.84648438 39.52716064 20.31796875 40.61682129 19.7734375 41.73950195 C15.58349275 50.18674785 11.00733674 57.72634647 5 65 C4.24058105 65.93005859 4.24058105 65.93005859 3.46582031 66.87890625 C-6.45081144 78.94924085 -6.45081144 78.94924085 -11 82 C-11.21914063 81.23816406 -11.43828125 80.47632813 -11.6640625 79.69140625 C-14.92968936 69.05820658 -19.21324755 61.85366691 -28 55 C-26.61785822 50.98964043 -24.74783465 48.26319147 -22.0625 45 C-11.82593553 31.57689207 -4.98397059 16.04544117 0 0 Z "
     fill="#4BAFAC"
     transform="translate(681,281)"
     id="path28" />
  <path
     d="M0 0 C12.29284346 8.30285863 17.12217539 21.9895381 20 36 C19.1028125 36.0515625 18.205625 36.103125 17.28125 36.15625 C7.68317901 37.02880191 0.59314094 39.69156367 -7.83203125 44.3203125 C-11 46 -11 46 -13 46 C-13.24234375 45.20335937 -13.4846875 44.40671875 -13.734375 43.5859375 C-16.50924422 34.55302341 -16.50924422 34.55302341 -22 27 C-25.41600593 26.58307147 -25.41600593 26.58307147 -29 27 C-31.94980446 29.97097531 -32.6547148 32.9748324 -33.5 37 C-34.34937063 41.04462206 -35.09461239 43.97325713 -38 47 C-41.50817286 47.59713581 -43.28935606 47.41142544 -46.375 45.625 C-49.48301173 40.60436567 -48.50903931 35.43375009 -47.33984375 29.84375 C-44.41140618 19.19488612 -39.37540713 9.2630011 -30 3 C-28.94232422 2.27296875 -28.94232422 2.27296875 -27.86328125 1.53125 C-19.58944005 -3.39202741 -8.75493218 -4.39991463 0 0 Z "
     fill="#4AAEAC"
     transform="translate(535,501)"
     id="path30" />
  <path
     d="M0 0 C2.62055708 1.59126378 4.84097713 3.50987388 7.08203125 5.59375 C8.84745539 7.24937775 8.84745539 7.24937775 11.73046875 8.80078125 C18.22758843 13.67362101 22.69830876 21.59672128 25.73046875 29.05078125 C25.48046875 32.05078125 25.48046875 32.05078125 24.73046875 34.05078125 C22.453125 33.87890625 22.453125 33.87890625 19.73046875 33.05078125 C17.8515625 30.72265625 17.8515625 30.72265625 16.16796875 27.80078125 C13.92423751 23.96622902 11.77574008 20.30810242 8.73046875 17.05078125 C5.0624706 16.63306321 5.0624706 16.63306321 1.73046875 17.05078125 C0.76646337 24.21196408 3.1494933 28.14120206 7.00390625 34.12109375 C9.87981522 39.00102979 11.23478548 43.37721808 10.73046875 49.05078125 C10.07046875 50.04078125 9.41046875 51.03078125 8.73046875 52.05078125 C6.10546875 52.23828125 6.10546875 52.23828125 3.73046875 52.05078125 C3.52292969 51.5403125 3.31539063 51.02984375 3.1015625 50.50390625 C-0.78611464 41.32963886 -5.50649076 32.4286436 -12.26953125 25.05078125 C-13.91953125 25.38078125 -15.56953125 25.71078125 -17.26953125 26.05078125 C-18.28980891 29.80114253 -18.49191739 31.55693493 -16.87109375 35.15625 C-16.21882813 36.17332031 -15.5665625 37.19039062 -14.89453125 38.23828125 C-11.29925958 43.93198838 -10.14143129 47.26148328 -10.26953125 54.05078125 C-16.00002714 54.78233392 -19.3891556 53.5271629 -24.05859375 50.140625 C-32.41647373 42.24050877 -36.2110132 30.61669083 -36.70703125 19.36328125 C-36.49712157 13.22342297 -34.84053938 8.78628516 -30.62109375 4.296875 C-22.36045568 -3.18820098 -10.27378727 -4.62210899 0 0 Z "
     fill="#4BAFAD"
     transform="translate(419.26953125,558.94921875)"
     id="path32" />
  <path
     d="M0 0 C1.2365332 -0.0299707 1.2365332 -0.0299707 2.49804688 -0.06054688 C8.52486329 -0.05572928 12.08492694 1.08492694 16.4375 5.4375 C16.51407772 8.55689343 16.52804856 11.65443128 16.5 14.7734375 C16.49621338 15.72256012 16.49242676 16.67168274 16.48852539 17.64956665 C16.47217735 21.72102116 16.44435633 25.79237636 16.41699219 29.86376953 C16.39871598 32.83365398 16.38673054 35.80352105 16.375 38.7734375 C16.36670166 39.6759726 16.35840332 40.57850769 16.34985352 41.50839233 C16.32589303 47.86880506 16.76337474 54.11396567 17.4375 60.4375 C16.550625 60.2725 15.66375 60.1075 14.75 59.9375 C6.48525142 58.77605875 -1.64359021 58.74170092 -9.5625 61.4375 C-10.8825 61.4375 -12.2025 61.4375 -13.5625 61.4375 C-15.04324507 55.91892489 -16.09324241 50.55556514 -16.6875 44.875 C-16.77169189 44.07215576 -16.85588379 43.26931152 -16.94262695 42.44213867 C-17.57639369 35.71085531 -17.74456031 29.00881346 -17.75 22.25 C-17.75080566 21.29472412 -17.75161133 20.33944824 -17.75244141 19.35522461 C-17.73150582 16.71292129 -17.65487323 14.07813589 -17.5625 11.4375 C-17.56588379 10.66325684 -17.56926758 9.88901367 -17.57275391 9.09130859 C-17.48828125 6.94921875 -17.48828125 6.94921875 -16.5625 3.4375 C-11.36369401 -0.02152111 -6.10954408 -0.0527926 0 0 Z "
     fill="#4AAEAB"
     transform="translate(401.5625,483.5625)"
     id="path34" />
  <path
     d="M0 0 C6.716044 2.62089522 11.19366142 7.46585929 14.4375 13.8125 C15.51356584 19.91020642 16.35184807 26.54180657 13 32 C11.19091797 33.42871094 11.19091797 33.42871094 8.9921875 34.734375 C8.17717773 35.22260742 7.36216797 35.71083984 6.52246094 36.21386719 C5.64879883 36.72079102 4.77513672 37.22771484 3.875 37.75 C2.54130371 38.53745605 2.54130371 38.53745605 1.18066406 39.34082031 C-6.69763832 43.93954377 -14.76233482 48.08825955 -23 52 C-26.4958723 47.80929594 -28.56169211 42.9229168 -30.86328125 38.01953125 C-32.54313003 34.54871528 -34.23316711 31.54748416 -36.7578125 28.6171875 C-39 26 -39 26 -39 24 C-38.030625 23.53851563 -37.06125 23.07703125 -36.0625 22.6015625 C-28.64703965 19.01563441 -21.43557163 15.22636505 -14.4375 10.875 C-13.79619141 10.48006348 -13.15488281 10.08512695 -12.49414062 9.67822266 C-7.9823297 6.82129129 -3.96956216 3.56733965 0 0 Z "
     fill="#4BAFAD"
     transform="translate(641,346)"
     id="path36" />
  <path
     d="M0 0 C3.1875 0.3125 3.1875 0.3125 5.5625 1.75 C8.01699927 5.62055655 7.99834088 8.85646295 7.1875 13.3125 C3.63141608 22.83362791 -4.0261461 31.15833172 -12.85546875 36.02734375 C-26.68452148 42.03759256 -41.50379458 43.54412042 -55.8125 38.3125 C-63.90926465 35.02318936 -70.28549868 30.49514306 -73.8125 22.3125 C-73.75 18.5 -73.75 18.5 -72.8125 15.3125 C-69.28981037 12.96404025 -67.96121783 12.82985213 -63.8125 13.3125 C-61.03125 14.9921875 -61.03125 14.9921875 -58.3125 17.1875 C-51.94790089 22.29015273 -46.66962905 23.70561851 -38.5625 23.6875 C-37.43751099 23.68508301 -37.43751099 23.68508301 -36.28979492 23.68261719 C-30.13876936 23.54721099 -25.21584466 22.34595665 -19.8125 19.3125 C-18.74 18.735 -17.6675 18.1575 -16.5625 17.5625 C-11.16046136 13.1426502 -7.6202621 7.09465727 -3.8125 1.3125 C-2.8125 0.3125 -2.8125 0.3125 0 0 Z "
     fill="#01232B"
     transform="translate(542.8125,284.6875)"
     id="path38" />
  <path
     d="M0 0 C1.49688023 2.7317873 2.31316987 5.01299328 2.7109375 8.09765625 C2.81881592 8.88946289 2.92669434 9.68126953 3.0378418 10.49707031 C3.149104 11.34366211 3.26036621 12.19025391 3.375 13.0625 C7.98833938 45.17642778 7.98833938 45.17642778 27.53955078 70.20605469 C43.05605772 81.70010328 60.10169483 85.04248587 79 86 C80.10126119 93.0205401 80.07922863 99.904983 80 107 C72.63763692 103.3271101 65.27628332 99.65267459 57.93856812 95.9307251 C54.52393532 94.19907721 51.1059738 92.47405002 47.6875 90.75 C46.96530273 90.38515503 46.24310547 90.02031006 45.49902344 89.64440918 C37.69859614 85.71210733 29.88504039 81.86902678 21.86328125 78.40625 C21.23177658 78.13282776 20.60027191 77.85940552 19.94963074 77.57769775 C16.99386198 76.30421129 14.02972318 75.05820239 11.04956055 73.84277344 C9.49362183 73.18583496 9.49362183 73.18583496 7.90625 72.515625 C6.54983398 71.96310059 6.54983398 71.96310059 5.16601562 71.39941406 C1.69568001 69.15730814 1.29947375 66.29694036 0.40576172 62.42651367 C-3.19809035 41.54450111 -5.58244428 20.73479305 0 0 Z "
     fill="#F8F9F6"
     transform="translate(435,486)"
     id="path40" />
  <path
     d="M0 0 C5.90152577 3.69498184 11.09020322 8.80983849 13.4375 15.4375 C14.04805853 21.44132555 14.04805853 21.44132555 12.25 24.375 C9.59078668 25.93384919 8.48179255 26.14547501 5.4375 25.4375 C3.82894675 23.80666762 2.45148828 22.04894613 1.01953125 20.26171875 C-2.1964762 16.55338423 -5.36963804 14.7475694 -10.2421875 14.05859375 C-14.77990351 13.86798508 -17.85802261 14.10447433 -22 16.0625 C-26.89681806 20.6010143 -29.06798823 25.30775961 -30.94921875 31.58203125 C-31.5625 33.4375 -31.5625 33.4375 -32.5625 34.4375 C-37.84941275 34.89723154 -37.84941275 34.89723154 -40.22265625 33.3671875 C-43.41947525 28.76302252 -42.22045975 21.77793993 -41.5625 16.4375 C-38.91243842 9.39074535 -32.90279118 4.25224186 -26.5625 0.4375 C-19.0620297 -2.70345325 -7.56295003 -3.46201838 0 0 Z "
     fill="#01232B"
     transform="translate(465.5625,251.5625)"
     id="path42" />
  <path
     d="M0 0 C5.76990302 3.56341659 10.83512547 8.08674725 13.91015625 14.1796875 C14.56615965 17.6912351 14.59038461 21.03403974 12.72265625 24.1796875 C10.24707816 25.54552369 8.71158585 25.50020768 5.91015625 25.1796875 C3.91796875 23.53515625 3.91796875 23.53515625 2.03515625 21.3671875 C-2.3551535 16.7045465 -5.70143958 14.66374524 -12.15234375 13.7421875 C-17.47793127 14.53536011 -20.71128667 17.41519588 -23.83984375 21.6171875 C-25.68108922 24.3584667 -26.93819437 27.079093 -28.08984375 30.1796875 C-30.08984375 32.1796875 -30.08984375 32.1796875 -33.02734375 32.5546875 C-36.08984375 32.1796875 -36.08984375 32.1796875 -37.96484375 30.6796875 C-40.15767191 25.80673602 -39.79517265 22.12515513 -38.0234375 17.23828125 C-34.85675071 10.34405033 -31.31790529 5.51776703 -25.08984375 1.1796875 C-24.20296875 0.5403125 -23.31609375 -0.0990625 -22.40234375 -0.7578125 C-15.40729417 -3.00150765 -6.79978133 -3.03174964 0 0 Z "
     fill="#01232B"
     transform="translate(567.08984375,230.8203125)"
     id="path44" />
  <path
     d="M0 0 C5.21050737 4.42600401 7.26972458 10.6041605 9 17 C9.2784375 17.79019531 9.556875 18.58039063 9.84375 19.39453125 C13.03425972 29.48304114 14.94275031 46.85497822 11 57 C7.71480525 58.09506492 5.26336585 58.09960608 1.8125 58.0625 C0.18248047 58.04896484 0.18248047 58.04896484 -1.48046875 58.03515625 C-2.31191406 58.02355469 -3.14335937 58.01195312 -4 58 C-5.0769298 54.7692106 -4.94012652 54.12044984 -4.0625 51 C-0.63934314 36.48675276 -4.9262955 23.69214166 -12 11 C-12.86625 9.68322266 -12.86625 9.68322266 -13.75 8.33984375 C-14.1625 7.56769531 -14.575 6.79554688 -15 6 C-14 3 -14 3 -11.4375 1.3125 C-7.4305407 -0.21742991 -4.19908572 -1.29073693 0 0 Z "
     fill="#4CB1AE"
     transform="translate(370,277)"
     id="path46" />
  <path
     d="M0 0 C11.31974769 3.50776613 20.01841139 14.31208669 25.359375 24.37109375 C35.52592241 45.51682076 39.91649161 72.49332462 39.609375 95.80859375 C36.969375 96.13859375 34.329375 96.46859375 31.609375 96.80859375 C31.50447754 95.709104 31.50447754 95.709104 31.39746094 94.58740234 C28.01585829 48.58605444 28.01585829 48.58605444 4.203125 10.703125 C1.09156138 8.25327377 -2.09595481 6.00504055 -5.390625 3.80859375 C-5.390625 3.14859375 -5.390625 2.48859375 -5.390625 1.80859375 C-2.390625 -0.19140625 -2.390625 -0.19140625 0 0 Z "
     fill="#F6F9F5"
     transform="translate(574.390625,369.19140625)"
     id="path48" />
  <path
     d="M0 0 C2.941381 2.46115553 4.57817389 4.21508291 5.47265625 8 C5.76922957 12.01514651 5.14633646 13.81900491 2.625 16.9375 C-1.04373804 19.82007989 -3.24421433 20.33584805 -7.9609375 20.29296875 C-11.13134567 19.83745033 -12.8192402 18.24684343 -15 16 C-16.73631636 12.52736727 -16.60190402 8.78806987 -16 5 C-11.23410048 -1.02008361 -7.23925893 -1.99703695 0 0 Z "
     fill="#4DB2AF"
     transform="translate(472,95)"
     id="path50" />
  <path
     d="M0 0 C0 7.92 0 15.84 0 24 C-4.27541598 22.28983361 -8.15101829 20.34231056 -12.125 18.0625 C-12.74503906 17.71509766 -13.36507813 17.36769531 -14.00390625 17.00976562 C-17.06153337 15.26395917 -19.58742367 13.55244238 -22 11 C-18.7121022 9.15984502 -15.41908674 7.32904953 -12.125 5.5 C-11.18785156 4.97535156 -10.25070312 4.45070313 -9.28515625 3.91015625 C-8.38925781 3.41386719 -7.49335938 2.91757812 -6.5703125 2.40625 C-5.74289551 1.94541016 -4.91547852 1.48457031 -4.06298828 1.00976562 C-2 0 -2 0 0 0 Z "
     fill="#F4F6F3"
     transform="translate(370,500)"
     id="path52" />
  <path
     d="M0 0 C2.9375 0.8125 2.9375 0.8125 4.9375 3.8125 C4.7300099 6.57903462 4.23471306 8.34321623 2.75 10.6875 C0.9375 11.8125 0.9375 11.8125 -2.125 11.6875 C-5.0625 10.8125 -5.0625 10.8125 -7.0625 7.8125 C-6.875 4.75 -6.875 4.75 -6.0625 1.8125 C-3.0625 -0.1875 -3.0625 -0.1875 0 0 Z "
     fill="#0E282D"
     transform="translate(288.0625,431.1875)"
     id="path54" />
  <path
     d="M0 0 C1.875 1.0625 1.875 1.0625 3 3 C2.875 6.5625 2.875 6.5625 2 10 C-1 12 -1 12 -3.5 11.875 C-6.57921269 10.79727556 -7.54512924 9.90974151 -9 7 C-8.875 4.375 -8.875 4.375 -8 2 C-4.76746204 -0.15502531 -3.74849077 -0.46856135 0 0 Z "
     fill="#0B252A"
     transform="translate(208,476)"
     id="path56" />
  <path
     d="M0 0 C2.9375 0.8125 2.9375 0.8125 4.9375 3.8125 C4.75 6.875 4.75 6.875 3.9375 9.8125 C0.9375 11.8125 0.9375 11.8125 -1.5625 11.625 C-4.31637823 10.72998958 -5.53136237 10.27933286 -7.0625 7.8125 C-6.9375 4.75 -6.9375 4.75 -6.0625 1.8125 C-3.0625 -0.1875 -3.0625 -0.1875 0 0 Z "
     fill="#09232A"
     transform="translate(253.0625,417.1875)"
     id="path58" />
  <path
     d="M0 0 C3.0625 0.3125 3.0625 0.3125 4.9375 1.5 C6.46909584 3.96757108 6.49072025 5.45769831 6.0625 8.3125 C4.9375 10.125 4.9375 10.125 3.0625 11.3125 C0.0625 11.75 0.0625 11.75 -2.9375 11.3125 C-4.875 9.625 -4.875 9.625 -5.9375 7.3125 C-5.61764525 2.8345335 -4.76027546 0.50641228 0 0 Z "
     fill="#082128"
     transform="translate(181.9375,545.6875)"
     id="path60" />
  <path
     d="M0 0 C2 3 2 3 1.75 5.5625 C1 8 1 8 -1 10 C-4.5 10.3125 -4.5 10.3125 -8 10 C-10.15502531 6.76746204 -10.46856135 5.74849077 -10 2 C-7.59684073 -2.24086929 -4.21511384 -1.07293807 0 0 Z "
     fill="#072127"
     transform="translate(267,501)"
     id="path62" />
  <path
     d="M0 0 C2 2 2 2 2.3125 4.9375 C2 8 2 8 0.875 9.9375 C-1 11 -1 11 -4.0625 10.8125 C-7 10 -7 10 -9 8 C-9.375 5.0625 -9.375 5.0625 -9 2 C-6.12524616 -1.3006433 -4.03854228 -1.38160657 0 0 Z "
     fill="#082127"
     transform="translate(227,485)"
     id="path64" />
  <path
     d="M0 0 C3.0625 0.3125 3.0625 0.3125 4.9375 1.5 C6.46909584 3.96757108 6.49072025 5.45769831 6.0625 8.3125 C4.9375 10.125 4.9375 10.125 3.0625 11.3125 C0.0625 11.75 0.0625 11.75 -2.9375 11.3125 C-4.875 9.625 -4.875 9.625 -5.9375 7.3125 C-5.61764525 2.8345335 -4.76027546 0.50641228 0 0 Z "
     fill="#072127"
     transform="translate(165.9375,460.6875)"
     id="path66" />
  <path
     d="M0 0 C3.625 0.3125 3.625 0.3125 5.625 2 C6.89596428 4.9391049 6.72443143 6.32832898 5.625 9.3125 C2.39246204 11.46752531 1.37349077 11.78106135 -2.375 11.3125 C-4.25 10.25 -4.25 10.25 -5.375 8.3125 C-4.83258355 0.44746144 -4.83258355 0.44746144 0 0 Z "
     fill="#08262E"
     transform="translate(320.375,445.6875)"
     id="path68" />
  <path
     d="M0 0 C2 2 2 2 2.3125 4.9375 C2 8 2 8 0.8125 9.875 C-1.65507108 11.40659584 -3.14519831 11.42822025 -6 11 C-7.8125 9.875 -7.8125 9.875 -9 8 C-9.4375 5 -9.4375 5 -9 2 C-6.12524616 -1.3006433 -4.03854228 -1.38160657 0 0 Z "
     fill="#082127"
     transform="translate(273,425)"
     id="path70" />
  <path
     d="M0 0 C2 2 2 2 2.3125 4.9375 C2 8 2 8 0.8125 9.875 C-1.65507108 11.40659584 -3.14519831 11.42822025 -6 11 C-7.8125 9.875 -7.8125 9.875 -9 8 C-9.4375 5 -9.4375 5 -9 2 C-6.12524616 -1.3006433 -4.03854228 -1.38160657 0 0 Z "
     fill="#072025"
     transform="translate(167,538)"
     id="path72" />
  <path
     d="M0 0 C1.9375 1.6875 1.9375 1.6875 3 4 C2.75925978 7.37036311 2.41201979 8.58798021 0 11 C-3.13704316 11.333728 -5.16554166 11.52849028 -7.875 9.8125 C-9.40659584 7.34492892 -9.42822025 5.85480169 -9 3 C-6.74280427 -0.63659311 -4.02330328 -0.58673173 0 0 Z "
     fill="#072026"
     transform="translate(246,492)"
     id="path74" />
  <path
     d="M0 0 C2.9375 0.875 2.9375 0.875 4.9375 3.875 C5.29590349 6.74222793 5.34871458 8.24735669 3.75 10.6875 C1.28842224 12.30025784 -0.17315736 12.3084014 -3.0625 11.875 C-4.875 10.75 -4.875 10.75 -6.0625 8.875 C-6.45954314 5.69865485 -6.56183741 3.73496999 -4.9375 0.9375 C-3.0625 -0.125 -3.0625 -0.125 0 0 Z "
     fill="#082127"
     transform="translate(148.0625,453.125)"
     id="path76" />
  <path
     d="M0 0 C2 2 2 2 2.3125 4.9375 C2 8 2 8 0.8125 9.875 C-1.65507108 11.40659584 -3.14519831 11.42822025 -6 11 C-7.8125 9.875 -7.8125 9.875 -9 8 C-9.4375 5 -9.4375 5 -9 2 C-6.12524616 -1.3006433 -4.03854228 -1.38160657 0 0 Z "
     fill="#061F25"
     transform="translate(308,439)"
     id="path78" />
  <path
     d="M0 0 C2 2 2 2 2.3125 4.9375 C2 8 2 8 0.8125 9.875 C-1.65507108 11.40659584 -3.14519831 11.42822025 -6 11 C-7.8125 9.875 -7.8125 9.875 -9 8 C-9.4375 5 -9.4375 5 -9 2 C-6.12524616 -1.3006433 -4.03854228 -1.38160657 0 0 Z "
     fill="#061F25"
     transform="translate(238,411)"
     id="path80" />
  <path
     d="M0 0 C2 2 2 2 2.3125 4.9375 C2 8 2 8 0.875 9.9375 C-1 11 -1 11 -4.0625 10.875 C-7 10 -7 10 -9 7 C-9.375 4.5 -9.375 4.5 -9 2 C-6.07557433 -1.24936186 -4.04996841 -1.38551551 0 0 Z "
     fill="#012229"
     transform="translate(221,404)"
     id="path82" />
  <path
     d="M0 0 C2 2 2 2 2.25 5.5 C2 9 2 9 0 11 C-3.09771665 11.32954432 -5.17331023 11.45334601 -7.9375 9.9375 C-9.64787795 6.81857551 -8.80513863 4.34442199 -8 1 C-5.23749964 -0.38125018 -3.05268901 -0.19079306 0 0 Z "
     fill="#051C21"
     transform="translate(149,530)"
     id="path84" />
  <path
     d="M0 0 C3.5625 0.1875 3.5625 0.1875 5.5625 2.1875 C5.875 5.6875 5.875 5.6875 5.5625 9.1875 C2.32996204 11.34252531 1.31099077 11.65606135 -2.4375 11.1875 C-4.3125 10.125 -4.3125 10.125 -5.4375 8.1875 C-4.89124449 0.26679515 -4.89124449 0.26679515 0 0 Z "
     fill="#051E24"
     transform="translate(127.4375,521.8125)"
     id="path86" />
  <path
     d="M0 0 C1.875 1.0625 1.875 1.0625 3 3 C2.55555556 9.44444444 2.55555556 9.44444444 1 11 C-2.4375 11.1875 -2.4375 11.1875 -6 11 C-8 9 -8 9 -8.3125 5.5 C-8.209375 4.345 -8.10625 3.19 -8 2 C-4.76746204 -0.15502531 -3.74849077 -0.46856135 0 0 Z "
     fill="#051F25"
     transform="translate(204,397)"
     id="path88" />
  <path
     d="M0 0 C1 1 1 1 1.1875 4.4375 C1 8 1 8 -1 10 C-4.13704316 10.333728 -6.16554166 10.52849028 -8.875 8.8125 C-10.40659584 6.34492892 -10.42822025 4.85480169 -10 2 C-7.59027568 -2.25245468 -4.23782457 -0.94173879 0 0 Z "
     fill="#051F25"
     transform="translate(189,469)"
     id="path90" />
  <path
     d="M0 0 C2 2 2 2 2.3125 5.5 C2.1578125 7.2325 2.1578125 7.2325 2 9 C-1.23253796 11.15502531 -2.25150923 11.46856135 -6 11 C-7.875 9.9375 -7.875 9.9375 -9 8 C-8.8125 4.375 -8.8125 4.375 -8 1 C-5.23749964 -0.38125018 -3.05268901 -0.19079306 0 0 Z "
     fill="#061F25"
     transform="translate(342,453)"
     id="path92" />
  <path
     d="M0 0 C1.8125 1.125 1.8125 1.125 3 3 C3.3125 6.0625 3.3125 6.0625 3 9 C1 11 1 11 -2.5 11.25 C-6 11 -6 11 -8 9 C-8.333728 5.86295684 -8.52849028 3.83445834 -6.8125 1.125 C-4.34492892 -0.40659584 -2.85480169 -0.42822025 0 0 Z "
     fill="#041E24"
     transform="translate(131,445)"
     id="path94" />
  <path
     d="M0 0 C-0.33 0.99 -0.66 1.98 -1 3 C-3.31 3.33 -5.62 3.66 -8 4 C-7.34 5.32 -6.68 6.64 -6 8 C-3.69 8 -1.38 8 1 8 C0.01 9.485 0.01 9.485 -1 11 C-3.875 10.6875 -3.875 10.6875 -7 10 C-9.14762184 6.77856724 -9.561068 5.7404533 -9 2 C-6.04897468 -1.27891703 -4.09533092 -1.25135112 0 0 Z "
     fill="#0D1D22"
     transform="translate(221,404)"
     id="path102" />
  <path
     d="M0 0 C1.175625 0.0825 2.35125 0.165 3.5625 0.25 C4.2225 1.24 4.8825 2.23 5.5625 3.25 C3.2525 2.92 0.9425 2.59 -1.4375 2.25 C-2.41870464 5.30263664 -2.41870464 7.19736336 -1.4375 10.25 C-2.7575 9.59 -4.0775 8.93 -5.4375 8.25 C-4.42849099 0.32207207 -4.42849099 0.32207207 0 0 Z "
     fill="#0A181C"
     transform="translate(320.4375,445.75)"
     id="path112" />
  <path
     d="M0 0 C0.66 0.33 1.32 0.66 2 1 C2.625 4.0625 2.625 4.0625 3 7 C2.01 7.495 2.01 7.495 1 8 C0.34 7.34 -0.32 6.68 -1 6 C-1 5.34 -1 4.68 -1 4 C-1.33 3.01 -1.66 2.02 -2 1 C-1.34 0.67 -0.68 0.34 0 0 Z "
     fill="#062A32"
     transform="translate(148,532)"
     id="path130" />
  <path
     d="M0 0 C0.99 0.33 1.98 0.66 3 1 C2.67 1.66 2.34 2.32 2 3 C1.34 3 0.68 3 0 3 C0 4.98 0 6.96 0 9 C-0.66 8.34 -1.32 7.68 -2 7 C-1.6730244 4.38419521 -1.17960932 2.35921863 0 0 Z "
     fill="#213134"
     transform="translate(329,503)"
     id="path136" />
  <path
     d="M0 0 C4.455 2.97 4.455 2.97 9 6 C8.01 6.66 7.02 7.32 6 8 C4.99403703 7.0479279 3.99538437 6.08812654 3 5.125 C2.443125 4.59132812 1.88625 4.05765625 1.3125 3.5078125 C0 2 0 2 0 0 Z "
     fill="#18262A"
     transform="translate(583,190)"
     id="path138" />
</svg>
