<?xml version="1.0" encoding="UTF-8" standalone="no"?>
<!-- Generator: visioncortex VTracer 0.6.4 -->

<svg
   version="1.1"
   width="1024"
   height="1024"
   id="svg140"
   sodipodi:docname="logo.svg"
   inkscape:version="1.2.2 (b0a8486541, 2022-12-01)"
   xmlns:inkscape="http://www.inkscape.org/namespaces/inkscape"
   xmlns:sodipodi="http://sodipodi.sourceforge.net/DTD/sodipodi-0.dtd"
   xmlns="http://www.w3.org/2000/svg"
   xmlns:svg="http://www.w3.org/2000/svg">
  <defs
     id="defs144" />
  <sodipodi:namedview
     id="namedview142"
     pagecolor="#ffffff"
     bordercolor="#000000"
     borderopacity="0.25"
     inkscape:showpageshadow="2"
     inkscape:pageopacity="0.0"
     inkscape:pagecheckerboard="0"
     inkscape:deskcolor="#d1d1d1"
     showgrid="false"
     inkscape:zoom="0.83587256"
     inkscape:cx="817.11021"
     inkscape:cy="593.99007"
     inkscape:window-width="1920"
     inkscape:window-height="1131"
     inkscape:window-x="0"
     inkscape:window-y="0"
     inkscape:window-maximized="1"
     inkscape:current-layer="svg140" />
  <path
     d="m 483.05739,32.275734 c 7.25544,5.917864 10.82701,12.423746 13.74716,21.184142 0.74142,10.750739 -1.26969,19.17208 -8.25331,27.56442 -3.1522,3.554157 -5.09798,4.783966 -9.69562,5.769298 l 0.94151,3.449308 c 1.15201,4.232537 2.29822,8.46656 3.44053,12.701728 0.49517,1.83107 0.99262,3.66153 1.49243,5.49134 0.71887,2.63348 1.42943,5.26909 2.13845,7.90523 l 1.30208,4.80149 c 0.94153,4.11288 0.94153,4.11288 0.94153,9.24115 l 2.24768,-0.33273 c 3.44362,-0.50741 6.88808,-1.00884 10.33259,-1.51024 l 3.5332,-0.52334 c 40.49411,-5.86664 80.01664,-4.55915 114.24659,20.24012 18.15716,14.10076 33.02529,31.60511 37.9111,54.64305 1.06026,3.96002 1.53291,5.26522 5.09822,7.39191 2.25893,0.83961 4.5408,1.61995 6.84103,2.33877 7.13652,2.48177 10.88578,9.01089 14.66363,15.18949 1.57752,4.45216 1.57752,4.45216 2.80452,9.05458 l 1.25701,4.61242 c 3.7027,14.86291 4.97784,31.49623 -2.77946,45.30803 -1.2955,1.34837 -2.63145,2.65915 -4.00646,3.92633 -5.09896,5.30289 -4.80909,12.14411 -5.38055,19.09388 -2.0845,24.7666 -12.73755,42.4629 -30.59243,59.07209 -8.39955,6.98638 -18.27603,11.70951 -27.97007,16.62679 21.74295,-4.18472 40.10484,-13.01752 56.41091,-28.20546 l 2.08585,-1.88554 c 18.80556,-17.10946 31.86228,-37.50975 41.50439,-60.9357 l 1.19192,-2.71688 c 4.76046,-10.45291 4.76046,-10.45291 3.92133,-21.44706 -2.20841,-3.38663 -2.20841,-3.38663 -4.87286,-6.6457 -10.9484,-14.85855 -17.9809,-38.10739 -15.62518,-56.37084 2.25171,-6.94596 7.06965,-11.22449 12.82067,-15.3848 9.42423,-3.14142 17.93315,-1.00646 26.92338,2.56413 l 0.38061,-2.77948 c 4.46722,-29.76863 4.46722,-29.76863 15.00418,-38.24664 6.24508,-4.24817 11.57898,-6.10216 19.23099,-5.12825 10.73524,3.57841 16.78008,9.39378 21.79513,19.23099 l 2.18351,-0.61098 c 7.53957,-1.71822 14.60606,-1.90986 21.37445,2.13343 5.57334,3.97774 9.8022,8.74691 12.33989,15.1444 3.23571,28.09475 -3.55208,66.6931 -20.51306,89.74463 -3.20238,3.66839 -6.46061,7.19585 -10.25653,10.25653 h -2.56413 l -0.33554,2.92471 c -5.50011,41.57886 -27.01001,80.21767 -56.07536,109.8971 -1.23945,1.30304 -2.47809,2.60683 -3.716,3.9113 -8.74694,9.10484 -18.05244,16.97988 -28.33566,24.29416 l -2.25801,1.61197 c -9.17406,6.48238 -18.60864,12.31387 -28.51158,17.61902 l -2.69558,1.45264 c -5.42136,2.82652 -10.60209,4.75641 -16.53541,6.23975 l 0.54775,2.71406 c 5.1529,25.69479 8.61702,50.60045 9.70878,76.77403 l 4.27189,1.08675 c 11.8066,3.14362 21.86913,6.6427 31.62596,14.29805 l 2.489,1.93812 c 25.76031,22.87884 30.99787,70.15063 34.69092,101.90923 0.0394,2.56383 0.0505,5.12876 0,7.6924 l 2.73941,0.39563 c 16.479,3.97924 27.80312,17.05605 36.43371,30.74455 3.34244,6.26935 4.70612,10.79009 3.69596,17.81871 -0.11794,5.10124 0.40536,7.02655 3.49062,11.18302 3.5492,3.71254 7.40978,7.06358 11.33327,10.37172 8.70393,7.40388 16.72192,15.35328 24.72985,23.49786 4.36591,4.41093 8.72671,8.73378 13.45169,12.76057 8.31382,7.14496 15.85748,15.14734 23.55607,22.94134 2.08123,2.10469 4.16651,4.2053 6.25196,6.3058 l 1.86659,1.89883 c 3.47135,3.49554 7.04383,6.80105 10.77377,10.02037 5.29591,4.58844 10.24269,9.45921 15.16444,14.44328 l 2.72799,2.7427 c 3.80424,3.82497 7.60072,7.65761 11.39789,11.4896 2.7941,2.81744 5.59218,5.63092 8.39041,8.44424 l 2.54645,2.57869 c 4.02997,4.05095 8.11477,7.95682 12.44269,11.68929 5.46632,4.71892 10.54605,9.76467 15.62019,14.89903 l 2.90046,2.91516 c 4.04931,4.07006 8.09087,8.14779 12.13314,12.22485 2.9723,2.99564 5.94857,5.98731 8.925,8.97885 l 2.71641,2.74865 c 6.95071,6.98476 14.19558,13.51391 21.84317,19.72758 2.6273,3.36617 3.0793,4.41254 3.3654,8.49368 -0.8013,5.04814 -0.8013,5.04814 -3.2947,7.92871 -5.52995,3.17331 -9.87302,2.66644 -16.10654,2.23266 l -3.57916,-0.18525 C 566.51254,901.11463 418.92515,890.18881 154.96757,867.26659 144.21564,805.39119 148.35229,816.44225 132.5178,758.9436 c -3.80528,-4.64707 -8.59113,-4.91338 -14.31839,-5.98151 -68.136107,-11.25545 -15.77464,-2.89631 -77.478292,-14.23168 -6.104981,-1.23077 -9.262247,-3.51867 -13.152753,-8.33969 -0.902358,-4.81256 -0.60211,-6.80522 2.152524,-10.86407 C 100.59055,677.35834 176.24634,637.15291 235.76043,600.174 c 11.77222,-7.03621 11.77222,-7.03621 19.38123,-5.44534 17.89318,6.10674 35.27388,15.03344 51.91711,20.27611 l -2.02108,-3.19359 c -2.47295,-3.91867 -4.92073,-7.85256 -7.36124,-11.7915 -1.05908,-1.70156 -2.12493,-3.39894 -3.19765,-5.09194 -1.54226,-2.43665 -3.05947,-4.8874 -4.57268,-7.34215 l -1.46473,-2.27921 c -2.13534,-3.51389 -3.21679,-5.64798 -2.92266,-9.80402 2.2312,-6.0958 6.75407,-7.75504 12.40531,-10.41803 8.40474,-4.05691 16.50886,-8.57308 24.59964,-13.22131 l 3.51253,-2.01795 c 2.16534,-1.24887 4.3243,-2.50889 6.47544,-3.78203 2.75257,-1.57191 2.75257,-1.57191 6.57371,-3.26464 4.15235,-3.45358 4.48609,-8.14301 5.47384,-13.21128 7.19361,-32.11889 20.7704,-78.19197 48.39799,-99.19986 4.59472,-2.79301 9.28224,-5.31266 14.10273,-7.6924 l -3.94637,-1.32212 c -21.52049,-7.46497 -42.99869,-20.92144 -55.02868,-40.98606 l -1.52244,-4.32697 c -1.95032,-3.60458 -1.95032,-3.60458 -5.23845,-4.13668 -2.45608,-0.35085 -4.91346,-0.69258 -7.37187,-1.02665 -11.58335,-2.32578 -20.15675,-10.71936 -26.89334,-19.99722 -10.61554,-16.83556 -12.48488,-36.50773 -9.56542,-55.86503 2.55122,-11.17209 6.39157,-19.53696 15.97574,-26.18719 3.45056,-0.81132 3.45056,-0.81132 6.41033,-1.28207 l -0.10176,-2.284 c -1.31344,-34.09939 10.74756,-58.33366 32.86451,-83.49423 26.27747,-27.75898 61.59417,-35.61899 97.68743,-43.63031 l 3.67312,-0.82164 3.43834,-0.73587 2.97855,-0.64072 c 3.60971,-0.52769 7.10071,-0.51736 10.74357,-0.44603 -1.43336,-5.79677 -2.87066,-11.59252 -4.31164,-17.38739 -0.4898,-1.97209 -0.9785,-3.94443 -1.46612,-5.91705 -0.70048,-2.83298 -1.40484,-5.66498 -2.10996,-8.49682 l -0.65979,-2.67927 c -1.15679,-4.674079 -1.15679,-4.674079 -2.99109,-9.10972 -2.38016,-0.968588 -4.78987,-1.865061 -7.21162,-2.724391 -8.91757,-3.626414 -14.26099,-8.096503 -18.53988,-16.762014 -3.41323,-8.971462 -3.93422,-17.401007 -0.29046,-26.347457 4.30808,-8.646177 11.17712,-13.899314 19.63164,-18.269441 10.11032,-3.08119 21.01871,-1.264284 29.84315,4.457217 z"
     fill="#01242c"
     id="path4"
     sodipodi:nodetypes="cccccccccccccccccccccccccccccccccccccccccccccccccccccccccccccccccccccccscccccsccccccccccccccccccccccccscccccccccccccccccccccccccccccccc"
     style="stroke-width:1.28207" />
  <path
     d="m 263.46853,620.13308 c 3.07484,1.12707 6.14982,2.25387 9.22485,3.38045 3.39505,1.28778 6.78133,2.59755 10.16639,3.91129 0.88061,0.34069 1.76123,0.68137 2.66851,1.03237 11.63456,4.51536 23.14202,9.12906 34.09574,15.14871 4.0497,2.26043 4.0497,2.26043 8.40354,3.73603 4.16647,1.64229 6.77444,2.81116 9.8008,6.12486 1.07919,5.3665 1.12237,10.36485 1.09676,15.81549 0.0809,14.30786 5.82756,29.20392 14.28802,40.59543 0.68586,0.93209 1.37171,1.86419 2.07835,2.82453 5.23666,6.53071 10.90364,10.30587 18.43471,13.84232 1.0577,0.55529 2.1154,1.11059 3.20517,1.68272 6.19812,1.70447 12.34724,1.74363 18.40466,-0.43571 4.58911,-1.41948 8.06756,-1.28863 12.8457,-1.00663 9.87344,0.1564 14.85876,-2.26932 21.79513,-8.97446 1.46958,-2.85754 1.7621,-4.87169 2.2436,-8.01291 0.58093,-2.70937 0.58093,-2.70937 1.76284,-5.04813 2.86419,-1.50539 5.58221,-2.23701 8.71906,-3.00986 3.6768,-1.09063 5.59239,-2.99473 7.94781,-5.96461 6.65281,2.03746 12.81855,4.79792 19.11079,7.72745 1.08069,0.49948 2.16137,0.99894 3.27481,1.51356 2.27657,1.05307 4.55225,2.10809 6.82709,3.16492 3.46684,1.61056 6.93622,3.21547 10.40615,4.81934 2.21873,1.02715 4.43731,2.05464 6.65573,3.08246 1.02986,0.47689 2.05972,0.95378 3.1208,1.44512 1.91222,0.88875 3.82208,1.78256 5.72908,2.68244 2.32683,1.09254 4.66922,2.15179 7.01319,3.20707 3.89187,2.21112 4.45755,4.21683 5.9671,8.30557 5.93737,13.24695 19.62005,18.70884 32.21693,23.90854 11.52614,4.17789 22.69871,7.19055 35.0014,6.51549 26.27165,-1.10587 45.38397,8.38034 68.47509,19.67483 11.47856,5.60618 23.14301,10.75482 34.84782,15.86761 4.66537,2.04005 9.32381,4.09564 13.98223,6.15151 3.39156,1.49677 6.78395,2.99164 10.17654,4.4861 5.94793,2.62095 11.89315,5.24799 17.83751,7.87707 14.71501,6.50597 29.43338,13.00286 44.19121,19.41127 21.34872,9.27169 42.65787,18.61613 63.87293,28.19043 1.06157,0.47905 2.12316,0.95808 3.2169,1.45164 4.25342,1.91957 8.50678,3.8393 12.76005,5.75917 11.19471,5.05078 22.40379,10.06899 33.62298,15.06509 1.42342,0.63452 1.42342,0.63452 2.87558,1.28188 9.73618,4.33635 19.48916,8.6209 29.32131,12.73571 0.79524,0.33319 1.59048,0.66638 2.40982,1.00967 3.6837,1.54031 7.3723,3.06705 11.06876,4.57653 1.26038,0.52151 2.52074,1.04303 3.8193,1.58036 1.64403,0.67025 1.64403,0.67025 3.32128,1.35405 2.47305,1.26015 2.47305,1.26015 3.75511,3.82429 -70.52101,-12.24944 -140.36752,-28.60884 -210.21858,-44.14906 -9.8573,-2.19301 -19.71512,-4.38359 -29.573,-6.57391 -4.87366,-1.0829 -9.74728,-2.16596 -14.6209,-3.24901 -1.94657,-0.43257 -3.89315,-0.86514 -5.83972,-1.29771 -3.92509,-0.87224 -7.85016,-1.74449 -11.77524,-2.61673 -0.97682,-0.21706 -1.95364,-0.43414 -2.96008,-0.65778 -1.9637,-0.4364 -3.92742,-0.87277 -5.89113,-1.30917 -4.8016,-1.06704 -9.60321,-2.134 -14.40485,-3.2008 -8.69518,-1.93191 -17.39012,-3.86481 -26.08439,-5.80086 -15.03842,-3.34789 -30.08007,-6.67464 -45.14274,-9.91191 -4.00665,-0.86382 -8.01302,-1.72896 -12.01937,-2.59418 -1.11048,-0.23977 -2.22095,-0.47955 -3.36508,-0.72657 -15.87225,-3.42833 -31.74186,-6.86881 -47.61046,-10.31401 -4.81746,-1.04591 -9.63504,-2.09127 -14.45295,-3.13503 -19.57725,-4.24168 -39.14273,-8.52515 -58.67651,-12.96313 -15.83188,-3.59472 -31.69009,-7.03781 -47.57979,-10.3669 -7.12507,-1.49292 -14.24801,-2.99582 -21.37132,-4.49705 -2.13869,-0.45031 -2.13869,-0.45031 -4.3206,-0.90973 -13.80936,-2.90926 -27.61004,-5.85856 -41.4081,-8.82094 -1.02006,-0.21896 -2.04013,-0.43791 -3.09111,-0.6635 -4.00161,-0.85903 -8.00319,-1.71811 -12.00448,-2.57865 -5.97904,-1.2855 -11.95931,-2.56508 -17.94077,-3.83927 -20.78137,-4.43146 -41.53461,-8.98132 -62.27944,-13.57994 -39.32916,-8.73283 -39.32916,-8.73283 -78.72467,-17.1596 -0.8999,-0.18871 -1.79982,-0.37742 -2.727,-0.57185 -10.71652,-2.24389 -21.44145,-4.44619 -32.16817,-6.64069 -5.73407,-1.17454 -11.46686,-2.35527 -17.19955,-3.53646 -4.15469,-0.85302 -8.311289,-1.69618 -12.468067,-2.53897 -2.53626,-0.52152 -5.072443,-1.04348 -7.608512,-1.56596 -1.17132,-0.23458 -2.342629,-0.46917 -3.54945,-0.71086 -1.076615,-0.22382 -2.15323,-0.44765 -3.262461,-0.67825 -0.937755,-0.19113 -1.87551,-0.38226 -2.841674,-0.57918 -2.470951,-0.72605 -2.470951,-0.72605 -6.31715,-3.29019 19.514059,-11.48321 39.154994,-22.70317 58.932474,-33.72622 17.88453,-9.98736 35.67358,-20.1433 53.4491,-30.32296 12.13741,-6.94877 24.30518,-13.842 36.55062,-20.5991 6.20461,-3.43706 12.30761,-6.94848 18.28728,-10.76549 1.08901,-0.68038 2.178,-1.36076 3.30001,-2.06175 2.00377,-1.26168 3.9872,-2.55663 5.9427,-3.89188 7.95241,-4.9561 12.62967,-3.34116 20.976,0.0842 z"
     fill="#fdfcf8"
     id="path6"
     style="stroke-width:1.28207" />
  <path
     d="m 611.79486,169.01609 c 3.23743,2.83708 6.32141,5.76583 9.3701,8.8042 1.36592,1.3213 1.36592,1.3213 2.75943,2.6693 15.86165,16.40965 19.65198,37.29634 24.16395,58.86986 0.44382,2.10236 0.88767,4.20471 1.33151,6.30704 1.45007,6.89393 2.86781,13.79422 4.27752,20.69649 0.2325,1.1276 0.465,2.25521 0.70454,3.41698 0.66761,3.25432 1.32082,6.51119 1.96979,9.76927 0.1999,0.96712 0.39982,1.93426 0.60579,2.93071 3.9165,20.0054 -0.69651,39.79514 -11.45328,56.88067 -10.01591,13.71378 -23.0692,20.54153 -38.46199,26.92339 -1.37057,0.58255 -2.74115,1.16512 -4.15325,1.76533 -8.17906,3.04351 -16.79968,4.44585 -25.33928,6.11236 -1.90237,0.37776 -3.80458,0.75627 -5.70666,1.13549 -5.01421,0.99746 -10.03046,1.98438 -15.04717,2.96917 -4.95501,0.97473 -9.90792,1.96004 -14.86105,2.9442 -10.67333,2.11835 -21.35063,4.21602 -32.02933,6.30713 -2.87467,0.56345 -5.74902,1.12842 -8.6233,1.69381 -4.60022,0.90468 -9.20116,1.80562 -13.8027,2.70362 -2.50918,0.49038 -5.01775,0.98389 -7.5263,1.47752 -25.61033,4.97943 -50.33562,7.9606 -73.21656,-6.87197 -6.94575,-4.7345 -13.56899,-9.87965 -18.9277,-16.39047 -1.12711,-1.25271 -2.25423,-2.50543 -3.41549,-3.79611 -4.46538,-6.36407 -3.61726,-13.06976 -3.47561,-20.56314 -0.1191,-13.90286 -1.83838,-26.74415 -4.968,-40.22483 -0.36916,-1.6196 -0.73833,-3.23921 -1.11869,-4.90791 -4.74382,-19.6833 -4.74382,-19.6833 -14.98727,-36.83936 -5.75874,-7.80826 -5.28644,-15.09205 -4.08658,-24.43939 3.47847,-21.99756 12.79781,-42.2864 31.15019,-55.77488 16.91314,-11.63992 35.19663,-16.23702 54.98862,-20.42792 2.32042,-0.50001 4.64082,-1.0001 6.96122,-1.50023 14.86028,-3.17559 29.75965,-6.10406 44.72207,-8.7563 0.85786,-0.15316 1.71575,-0.30633 2.59962,-0.46414 40.34803,-7.14415 81.25507,-10.63334 115.59586,16.58011 z"
     fill="#4baeab"
     id="path8"
     style="stroke-width:1.28207" />
  <path
     d="m 602.51489,398.50092 c 14.47467,4.95068 25.4909,18.25231 32.43227,31.32548 13.03419,27.11021 18.66319,61.69588 18.26944,91.58758 -1.13207,0.34376 -2.26415,0.68752 -3.43052,1.04169 -20.03458,6.5419 -32.36928,17.24774 -42.40334,35.97797 -3.54349,7.44734 -5.78993,15.31418 -8.01291,23.23745 -4.23573,1.26172 -7.33479,1.46941 -11.5386,0 -3.43484,-4.19814 -6.02717,-8.62668 -8.7491,-13.30144 -7.31166,-12.53979 -18.50418,-19.37301 -31.87637,-24.35925 -18.32432,-3.61962 -34.3293,0.0429 -49.9605,9.93601 -8.29775,5.75311 -14.54517,12.25172 -20.50805,20.38785 -0.57018,0.72884 -1.14035,1.45766 -1.72779,2.20857 -0.42308,0 -0.84617,0 -1.28207,0 -0.0829,-0.9637 -0.16588,-1.92742 -0.25133,-2.92033 -1.9389,-22.01845 -4.66597,-43.66786 -8.48776,-65.43983 -0.37462,-2.14495 -0.37462,-2.14495 -0.75683,-4.33324 -0.51216,-2.84867 -1.05151,-5.69256 -1.61635,-8.53124 -0.25804,-1.35395 -0.51606,-2.7079 -0.78189,-4.10287 -0.23955,-1.19301 -0.47907,-2.38603 -0.72586,-3.6152 -0.2356,-3.95268 0.75545,-6.20016 2.36349,-9.77638 1.48872,-14.99097 -0.52998,-29.01098 -10.25653,-41.02612 -2.47644,-2.2804 -5.04147,-4.32342 -7.69239,-6.41032 -1.3036,-1.26016 -2.59924,-2.52996 -3.84619,-3.84619 7.3787,-2.45957 14.63841,-1.50829 22.11563,0 42.42926,7.43715 93.18442,-3.53594 130.45022,-24.35927 1.28661,-1.10563 1.28661,-1.10563 2.59919,-2.2336 2.52908,-1.6126 2.52908,-1.6126 5.67414,-1.44732 z"
     fill="#4baeab"
     id="path10"
     style="stroke-width:1.28207" />
  <path
     d="m 159.36688,765.07982 c 22.55911,10e-4 661.0734,135.20758 660.9023,142.00219 12.99866,4.16479 -498.55915,-49.69967 -645.20114,-64.53971 -7.10355,-40.34636 -13.66504,-51.64723 -15.70116,-77.46248 z"
     fill="#4baeab"
     id="path12"
     sodipodi:nodetypes="cccc"
     style="stroke-width:1.28207" />
  <path
     d="m 655.78074,621.41514 c 3.58551,11.00446 6.06463,22.03236 8.09304,33.41384 0.23509,1.28092 0.47019,2.56185 0.71239,3.88157 0.20948,1.21957 0.41896,2.43913 0.63478,3.69566 0.18892,1.08754 0.37783,2.17509 0.57247,3.29561 0.4472,5.77681 -1.20808,10.13195 -3.68248,15.24927 -3.92885,9.59268 -4.16086,20.80981 -1.20194,30.76958 4.29129,9.2978 13.48221,14.5741 22.56136,18.41969 26.64681,9.36156 58.24465,15.22528 85.13219,4.0966 2.55929,-0.86909 5.1223,-1.72753 7.69239,-2.56414 0.62141,0.63628 1.24282,1.27255 1.88304,1.92812 4.19848,4.25499 8.40584,8.43775 12.94085,12.33487 16.23986,14.06626 31.37709,29.25108 46.47427,44.5183 8.16725,8.29462 8.16725,8.29462 16.79269,16.1044 9.06722,7.7262 17.22303,16.51664 25.59375,24.97899 11.29671,11.44194 11.29671,11.44194 23.22993,22.20703 6.73031,5.98398 12.92971,12.58463 19.25291,18.99375 1.90299,1.9265 3.8089,3.85004 5.71732,5.77117 0.6115,0.61562 1.22299,1.23123 1.85299,1.86551 4.28849,4.28253 8.725,8.31277 13.39409,12.17461 2.33082,2.15859 4.11335,4.4866 5.94708,7.0739 -6.80498,-2.0284 -12.91797,-4.98153 -19.23099,-8.17317 -1.11461,-0.56024 -2.22923,-1.1205 -3.37762,-1.69773 -10.79916,-5.47231 -21.4065,-11.28094 -32.01441,-17.11258 -6.4941,-3.56612 -13.0219,-7.06348 -19.57655,-10.51694 -0.88098,-0.46606 -1.76194,-0.9321 -2.66963,-1.41228 -13.15206,-6.90749 -26.50753,-13.42807 -39.81199,-20.03533 -4.97645,-2.47254 -9.951,-4.9489 -14.92528,-7.4258 -2.52647,-1.2568 -5.05386,-2.51177 -7.58221,-3.76482 -16.22476,-8.04343 -32.23166,-16.38892 -48.095,-25.12361 -7.7985,-4.29014 -15.69167,-8.37871 -23.61618,-12.43128 -11.80898,-6.07979 -23.51933,-12.30679 -35.15478,-18.71172 -8.46621,-4.64875 -17.00608,-9.13977 -25.5831,-13.58032 -11.74055,-6.0799 -23.31352,-12.40257 -34.77605,-18.99061 0.0743,-1.02465 0.14875,-2.0493 0.22537,-3.105 0.64875,-15.79237 -4.05663,-27.01868 -14.27801,-38.96279 -6.16981,-6.97972 -6.16981,-6.97972 -14.20289,-11.21495 -3.41498,-0.96325 -5.15575,-1.83861 -7.64232,-4.41023 -1.73163,-6.8931 -1.79253,-13.75577 -1.92309,-20.83357 -0.0722,-1.95332 -0.14897,-3.90649 -0.23038,-5.85944 -0.18925,-4.77696 -0.31646,-9.55322 -0.41066,-14.3331 1.46215,-0.52214 1.46215,-0.52214 2.95383,-1.05483 4.49525,-1.61299 8.98389,-3.24372 13.47264,-4.87473 1.53286,-0.54703 3.06569,-1.09406 4.645,-1.65767 8.76732,-3.20115 16.8876,-6.77201 24.95114,-11.48537 2.6959,-1.44046 2.6959,-1.44046 5.26004,-1.44046 z"
     fill="#fcfcf8"
     id="path14"
     style="stroke-width:1.28207" />
  <path
     d="m 582.34239,632.70333 c 4.94624,4.75991 4.62419,10.95779 5.24846,17.5583 0.23178,1.99808 0.23178,1.99808 0.46824,4.03651 0.9515,8.72114 1.24033,17.32399 1.05421,26.09204 -1.02465,0.1884 -2.04931,0.37681 -3.10502,0.57092 -11.00978,2.24848 -23.31824,5.33927 -31.51076,13.53181 -0.42736,4.48723 -0.42736,4.48723 0,8.97446 2.35228,2.84342 2.35228,2.84342 5.7693,3.12503 5.52947,-0.69118 9.42206,-2.79161 14.27299,-5.44377 8.33912,-4.19708 18.16211,-3.99198 26.99351,-1.44733 9.51583,5.56587 20.51194,14.50653 23.47783,25.56119 0.70746,5.55866 0.42222,8.21738 -2.32375,13.14118 -6.5286,6.83948 -16.82875,7.57479 -25.80158,7.93278 -21.36554,-0.5609 -45.52331,-5.77686 -61.45904,-20.67331 -2.96857,-4.62747 -3.84154,-7.11099 -3.50596,-12.51235 0.95724,-4.00876 2.73754,-5.91452 5.34392,-9.08747 7.43902,-11.28888 4.79777,-24.85689 3.93792,-37.75834 -1.2085,-19.63222 -1.2085,-19.63222 3.16823,-25.30358 3.31288,-2.35055 6.36369,-3.97844 10.12663,-5.48354 0.92053,-0.45633 1.84107,-0.91267 2.78949,-1.38284 7.70207,-3.75497 16.95214,-3.83006 25.05538,-1.43169 z"
     fill="#4aaeab"
     id="path16"
     style="stroke-width:1.28207" />
  <path
     d="m 719.88404,618.85101 c 1.02509,2.71 1.02509,2.71 1.77786,6.26009 0.41524,1.92866 0.41524,1.92866 0.83887,3.89627 0.41027,2.03278 0.41027,2.03278 0.82882,4.10662 0.28839,1.32544 0.57677,2.65088 0.87391,4.01648 1.43792,6.853 2.45779,13.18106 2.09086,20.18252 -1.28411,0.48093 -2.56823,0.96185 -3.89127,1.45735 -13.08373,4.72923 -13.08373,4.72923 -24.31418,12.64538 -1.57532,3.8831 -1.57532,3.8831 -1.28206,7.6924 0.84616,1.26924 1.69232,2.53848 2.56413,3.84619 7.37024,1.20331 11.74296,-1.10434 17.80369,-4.88286 7.52268,-4.24107 17.02515,-3.90675 25.2607,-2.06835 10.49926,3.64905 19.67924,11.20285 25.6864,20.57317 2.01291,4.94077 2.54508,8.02142 1.76285,13.30144 -3.69488,6.25287 -8.65539,9.178 -15.62518,10.98269 -13.38433,2.06342 -27.64573,0.93379 -40.78573,-2.00823 -0.81869,-0.17891 -1.63738,-0.3578 -2.48088,-0.54213 -24.28362,-5.3786 -24.28362,-5.3786 -32.21504,-13.15996 -2.93197,-5.01275 -2.94172,-7.41066 -1.96316,-12.98092 1.16366,-4.28713 2.69482,-8.58432 5.88949,-11.77898 1.59034,-16.3102 -2.54647,-33.9605 -5.12826,-50.00057 12.65535,-9.17054 26.36023,-16.85458 42.30818,-11.5386 z"
     fill="#4aaeab"
     id="path18"
     style="stroke-width:1.28207" />
  <path
     d="m 773.16991,167.48363 c 4.87569,1.50702 5.76171,2.22128 8.2533,6.49045 1.54893,9.09619 -0.69828,17.92109 -2.88966,26.71805 -0.8871,3.75739 -1.58252,7.43583 -2.07834,11.26316 -0.12892,0.99491 -0.25782,1.9898 -0.39064,3.01486 0.0176,2.70546 0.0176,2.70546 1.86301,4.85782 2.3691,2.0016 2.3691,2.0016 6.7008,1.74282 4.75028,-0.98318 4.75028,-0.98318 6.65072,-5.04814 0.60073,-1.77656 1.15535,-3.56892 1.6827,-5.36865 5.50124,-17.2263 5.50124,-17.2263 10.25653,-24.35925 3.66825,-1.83412 6.20534,-1.77814 10.25653,-1.28207 3.99635,4.26279 4.12135,8.08843 4.03462,13.76217 -0.3323,5.12276 -1.36515,10.0709 -2.43203,15.08431 -0.23231,1.11453 -0.46462,2.22904 -0.70395,3.37733 -0.711,3.36511 -1.4423,6.72517 -2.18071,10.08438 -0.31824,1.47313 -0.31824,1.47313 -0.6429,2.97604 -3.56549,16.27547 -7.82018,31.3697 -22.42428,41.01985 -10.07691,5.29684 -21.64852,4.77654 -32.4623,1.99822 -11.55629,-4.02039 -21.08517,-12.96521 -27.04358,-23.55796 -5.52853,-11.59643 -11.21205,-24.77981 -9.73569,-37.82095 0.84616,-0.84617 1.69233,-1.69233 2.56413,-2.56414 3.68594,0 3.68594,0 7.6924,1.28207 2.94055,3.47521 4.67737,6.57061 6.37026,10.78238 3.66424,8.67639 7.58781,11.9291 16.16104,15.81548 3.11001,1.60759 3.11001,1.60759 5.67415,5.45379 0.21155,1.50723 0.42308,3.01446 0.64103,4.56736 0.20319,4.48033 0.20319,4.48033 3.20517,6.97124 4.48723,0.42735 4.48723,0.42735 8.97446,0 2.84289,-2.29254 2.84289,-2.29254 2.80452,-5.35865 -0.72366,-10.40263 -3.6832,-21.7892 -11.77397,-28.96166 -3.26662,-2.00582 -6.59757,-3.05913 -10.26154,-4.14167 0.61063,-6.86957 2.52879,-12.57755 4.99305,-19.00062 2.15794,-6.20697 3.60852,-12.57805 5.10322,-18.97057 2.15932,-6.49294 3.935,-10.70108 11.13795,-10.82745 z"
     fill="#4cb0ad"
     id="path20"
     style="stroke-width:1.28207" />
  <path
     d="m 433.4224,443.44834 c 5.00789,3.72382 8.42578,8.11628 10.81743,13.86234 2.07664,14.37676 -2.25885,24.44857 -10.50193,35.983 -1.96721,2.60631 -3.95039,5.20066 -5.94957,7.78253 -7.73599,10.21708 -13.00132,21.47772 -18.16428,33.15844 -0.866,-0.26277 -1.73199,-0.52555 -2.62423,-0.79628 -1.14365,-0.34541 -2.28728,-0.69081 -3.46559,-1.04669 -1.13041,-0.34211 -2.26084,-0.6842 -3.42552,-1.03667 -1.09075,-0.31896 -2.18151,-0.63793 -3.30532,-0.96655 -0.78253,-0.22891 -1.56507,-0.4578 -2.37132,-0.69364 -3.12384,-0.66674 -5.95369,-0.7331 -9.14725,-0.71364 -1.19818,0.003 -2.39636,0.008 -3.63085,0.0128 -1.24115,0.0102 -2.48229,0.0216 -3.76106,0.0326 -1.26097,0.007 -2.52196,0.0116 -3.82116,0.0176 -3.10675,0.0151 -6.21333,0.0362 -9.32001,0.0625 3.16894,-17.4479 9.99005,-33.09486 17.22776,-49.19929 0.56676,-1.27937 1.13353,-2.55873 1.71746,-3.87687 9.68193,-21.15778 23.73883,-41.24409 49.72544,-32.58189 z"
     fill="#4baeac"
     id="path22"
     style="stroke-width:1.28207" />
  <path
     d="m 611.79486,169.01609 c 3.23743,2.83708 6.32141,5.76583 9.3701,8.8042 1.36592,1.3213 1.36592,1.3213 2.75943,2.6693 15.86165,16.40965 19.65198,37.29634 24.16395,58.86986 0.44382,2.10236 0.88767,4.20471 1.33151,6.30704 1.45007,6.89393 2.86781,13.79422 4.27752,20.69649 0.2325,1.1276 0.465,2.25521 0.70454,3.41698 0.66761,3.25432 1.32082,6.51119 1.96979,9.76927 0.1999,0.96712 0.39982,1.93426 0.60579,2.93071 3.88981,19.869 -0.60836,39.94931 -11.45328,56.88067 -2.072,2.19964 -4.19322,4.35703 -6.41033,6.41033 1.26526,-3.18027 2.53371,-6.34259 3.93633,-9.46525 10.08846,-26.22996 3.04314,-56.68252 -2.8621,-83.07951 -1.05019,-4.78276 -2.0062,-9.57534 -2.93724,-14.38255 -4.14757,-20.88946 -9.08611,-40.74528 -25.06039,-55.89508 -0.80815,-0.84782 -1.61629,-1.69564 -2.44894,-2.56915 -16.5975,-16.34932 -39.67228,-21.27449 -62.21526,-21.2292 -0.87395,6.1e-4 -1.74792,10e-4 -2.64837,10e-4 -21.7376,0.10483 -42.75831,3.74774 -64.05577,7.79843 -3.38588,0.63918 -6.77446,1.26198 -10.1641,1.88091 -7.04811,1.28815 -14.08967,2.60917 -21.12968,3.94073 -1.09477,0.20432 -2.18956,0.40862 -3.3175,0.61912 -26.36923,4.9588 -49.08777,11.87248 -68.63846,31.35299 -0.72222,0.69248 -1.44443,1.38493 -2.18852,2.09839 -8.3138,8.70865 -13.52075,21.17541 -17.04248,32.5174 -0.42308,0 -0.84615,0 -1.28205,0 0.96157,-18.59044 9.08781,-37.53027 22.83178,-50.3211 18.78473,-15.00099 38.92735,-20.99087 62.02496,-25.88171 2.32042,-0.50001 4.64082,-1.0001 6.96122,-1.50023 14.86028,-3.17559 29.75965,-6.10406 44.72207,-8.7563 0.85786,-0.15316 1.71575,-0.30633 2.59962,-0.46413 40.34803,-7.14415 81.25507,-10.63335 115.59586,16.5801 z"
     fill="#f5f8f5"
     id="path24"
     style="stroke-width:1.28207" />
  <path
     d="m 688.79394,554.42719 c 13.61165,9.75382 22.22824,25.10222 25.96184,41.34663 0,1.69232 0,3.38465 0,5.12826 -1.20975,0.0181 -2.41951,0.0364 -3.66592,0.0551 -14.82199,0.55056 -26.41745,4.07947 -38.64227,12.76553 -0.84616,0 -1.69233,0 -2.56413,0 -0.28095,-1.1767 -0.56191,-2.3534 -0.85137,-3.56575 -3.23516,-13.89236 -3.23516,-13.89236 -11.96929,-24.6397 -5.64234,-1.57508 -9.94502,-0.77908 -15.1444,1.76284 -3.4224,4.10687 -4.95122,8.15599 -6.66074,13.18624 -1.33281,3.14316 -2.37259,4.82854 -5.11824,6.84603 -8.11975,-0.42734 -8.11975,-0.42734 -11.5386,-3.84619 -2.04696,-15.94725 2.70405,-29.92888 11.55862,-43.0594 4.01491,-4.88427 8.48928,-7.92743 14.0827,-10.78738 0.8313,-0.43299 1.66258,-0.866 2.51905,-1.31212 14.39248,-6.41627 29.27403,-1.79486 42.03275,6.11987 z"
     fill="#4aaeab"
     id="path26"
     style="stroke-width:1.28207" />
  <path
     d="m 739.11503,285.51383 c 7.13092,2.32992 7.13092,2.32992 10.20144,3.61083 9.83508,3.95474 20.36959,3.73347 30.82468,4.08157 -1.37066,14.73438 -7.21115,28.40496 -13.62196,41.58701 -0.6776,1.39702 -1.35519,2.79404 -2.0533,4.23339 -5.3718,10.82993 -11.23873,20.49619 -18.94053,29.8215 -0.97363,1.19239 -0.97363,1.19239 -1.96693,2.40888 -12.71377,15.47496 -12.71377,15.47496 -18.54612,19.38624 -0.28096,-0.97673 -0.56192,-1.95345 -0.85138,-2.95977 -4.18675,-13.63246 -9.67855,-22.86916 -20.94375,-31.65601 1.77199,-5.14155 4.16949,-8.63704 7.61227,-12.82067 13.12394,-17.2093 21.89581,-37.12165 28.28558,-57.69297 z"
     fill="#4bafac"
     id="path28"
     style="stroke-width:1.28207" />
  <path
     d="m 551.93338,567.56837 c 15.76023,10.64481 21.95177,28.19203 25.64132,46.15438 -1.15026,0.0661 -2.30049,0.1322 -3.48562,0.20032 -12.30535,1.11866 -21.39525,4.5325 -32.19687,10.46686 -4.06156,2.15347 -4.06156,2.15347 -6.62568,2.15347 -0.31071,-1.02134 -0.62141,-2.04268 -0.94153,-3.09498 -3.55755,-11.5808 -3.55755,-11.5808 -10.59707,-21.26427 -4.37955,-0.53453 -4.37955,-0.53453 -8.97446,0 -3.78183,3.80899 -4.68558,7.66012 -5.7693,12.82067 -1.08895,5.18546 -2.0444,8.94017 -5.7693,12.82065 -4.4977,0.76557 -6.7813,0.52748 -10.7373,-1.76284 -3.98468,-6.43678 -2.73598,-13.06586 -1.23699,-20.2326 3.75444,-13.65254 10.21093,-26.38588 22.23082,-34.41547 1.35602,-0.9321 1.35602,-0.9321 2.73942,-1.88303 10.6076,-6.31197 24.49817,-7.60414 35.72256,-1.96316 z"
     fill="#4aaeac"
     id="path30"
     style="stroke-width:1.28207" />
  <path
     d="m 403.55927,641.8631 c 3.35973,2.04009 6.20646,4.49988 9.07963,7.17156 2.2634,2.12262 2.2634,2.12262 5.95961,4.11162 8.32974,6.2473 14.0615,16.40524 17.94893,25.96184 -0.32052,3.84619 -0.32052,3.84619 -1.28207,6.41032 -2.9197,-0.22036 -2.9197,-0.22036 -6.41033,-1.28206 -2.40889,-2.98482 -2.40889,-2.98482 -4.56736,-6.73085 -2.8766,-4.91614 -5.63113,-9.60611 -9.53537,-13.78221 -4.70262,-0.53554 -4.70262,-0.53554 -8.97446,0 -1.23592,9.18111 1.81927,14.21866 6.7609,21.88527 3.68711,6.2564 5.42427,11.86697 4.7777,19.14085 -0.84617,1.26924 -1.69233,2.53849 -2.56414,3.8462 -3.36542,0.24038 -3.36542,0.24038 -6.41033,0 -0.26607,-0.65446 -0.53215,-1.30892 -0.8063,-1.9832 -4.98425,-11.76201 -11.03609,-23.17368 -19.70676,-32.63259 -2.1154,0.42308 -4.23081,0.84616 -6.41032,1.28206 -1.30807,4.80821 -1.56719,7.05925 0.51082,11.67382 0.83625,1.30395 1.6725,2.6079 2.53409,3.95137 4.60937,7.29971 6.09379,11.56834 5.92955,20.27266 -7.34688,0.9379 -11.69195,-0.67131 -17.67848,-5.01307 -10.71536,-10.12847 -15.58021,-25.03098 -16.21614,-39.45859 0.26912,-7.8717 2.39296,-13.56042 7.80258,-19.31614 10.59068,-9.59635 26.08658,-11.43472 39.25825,-5.50886 z"
     fill="#4bafad"
     id="path32"
     style="stroke-width:1.28207" />
  <path
     d="m 380.8577,545.21234 c 1.5853,-0.0385 1.5853,-0.0385 3.20266,-0.0776 7.72677,0.007 12.29101,1.46858 17.8713,7.04886 0.0982,3.99927 0.11615,7.97052 0.0801,11.96929 -0.006,1.21684 -0.0102,2.43367 -0.0147,3.6874 -0.021,5.21987 -0.0567,10.43962 -0.0917,15.65941 -0.0235,3.80757 -0.0388,7.61515 -0.0539,11.42278 -0.0102,1.1571 -0.0213,2.31422 -0.0322,3.50638 -0.0308,8.15449 0.53015,16.16119 1.39443,24.26838 -1.13703,-0.21155 -2.27406,-0.42309 -3.44556,-0.64103 -10.59595,-1.48905 -21.01766,-1.5331 -31.17022,1.92309 -1.69233,0 -3.38466,0 -5.12827,0 -1.89841,-7.07518 -3.24457,-13.95135 -4.00646,-21.23422 -0.10789,-1.02929 -0.21587,-2.0586 -0.32708,-3.11908 -0.81254,-8.62995 -1.02813,-17.22242 -1.03511,-25.88766 -0.001,-1.22473 -0.002,-2.44945 -0.002,-3.7113 0.0268,-3.3876 0.12513,-6.76556 0.24352,-10.15104 -0.003,-0.99263 -0.009,-1.98527 -0.0131,-3.00797 0.10835,-2.7463 0.10835,-2.7463 1.29521,-7.24856 6.66522,-4.43469 13.40139,-4.47478 21.23422,-4.4071 z"
     fill="#4aaeab"
     id="path34"
     style="stroke-width:1.28207" />
  <path
     d="m 687.83238,368.84813 c 8.61042,3.36017 14.35102,9.57172 18.50984,17.70853 1.37959,7.81767 2.45431,16.31982 -1.84297,23.31758 -2.31936,1.8317 -2.31936,1.8317 -5.13828,3.50565 -1.0449,0.62595 -2.08979,1.2519 -3.16635,1.89681 -1.1201,0.64991 -2.24019,1.29981 -3.39422,1.96942 -1.70989,1.00957 -1.70989,1.00957 -3.45433,2.03954 -10.1005,5.89587 -20.43996,11.21479 -31.0012,16.22991 -4.48194,-5.37276 -7.13046,-11.63742 -10.08125,-17.9239 -2.15367,-4.4498 -4.32042,-8.29759 -7.55717,-12.05441 -2.87464,-3.35542 -2.87464,-3.35542 -2.87464,-5.91955 1.24281,-0.59164 2.4856,-1.1833 3.76607,-1.79289 9.5071,-4.5974 18.75268,-9.45548 27.72468,-15.03422 0.8222,-0.50634 1.6444,-1.01266 2.49152,-1.53436 5.78443,-3.66277 10.92907,-7.83455 16.0183,-12.40811 z"
     fill="#4bafad"
     id="path36"
     style="stroke-width:1.28207" />
  <path
     d="m 561.94952,290.24145 c 4.08659,0.40065 4.08659,0.40065 7.1315,2.24362 3.14683,4.96232 3.12291,9.11095 2.08336,14.82389 -4.55914,12.20672 -14.37665,22.87953 -25.69642,29.12192 -17.72975,7.70554 -36.72903,9.63701 -55.07375,2.92973 -10.38057,-4.21711 -18.55534,-10.02238 -23.07719,-20.51306 0.0801,-4.88788 0.0801,-4.88788 1.28207,-8.97446 4.51632,-3.01088 6.21966,-3.18293 11.5386,-2.56413 3.56575,2.15347 3.56575,2.15347 7.05135,4.968 8.15984,6.54194 14.92693,8.35666 25.32081,8.33343 1.44231,-0.002 1.44231,-0.002 2.91377,-0.007 7.88601,-0.17345 14.19753,-1.71353 21.12498,-5.60262 1.37501,-0.7404 2.75003,-1.48079 4.16671,-2.24362 6.92576,-5.66654 11.46453,-13.42047 16.34633,-20.83357 1.28207,-1.28207 1.28207,-1.28207 4.88788,-1.68272 z"
     fill="#01232b"
     id="path38"
     style="stroke-width:1.28207" />
  <path
     d="m 423.72677,548.33738 c 1.9191,3.50234 2.96564,6.42698 3.47562,10.38173 0.1383,1.01514 0.2766,2.0303 0.4191,3.0762 0.14264,1.08539 0.28529,2.17077 0.43226,3.28905 5.91461,41.17219 5.91461,41.17219 30.98054,73.26181 19.8932,14.73613 41.74682,19.0213 65.97571,20.24889 1.41188,9.00079 1.38364,17.8271 1.28207,26.92338 -9.43904,-4.70888 -18.87679,-9.41975 -28.28422,-14.19154 -4.37777,-2.22008 -8.75984,-4.43168 -13.14255,-6.64202 -0.9259,-0.46776 -1.8518,-0.93552 -2.80577,-1.41745 -10.00066,-5.04147 -20.01815,-9.96855 -30.30258,-14.40806 -0.80963,-0.35055 -1.61926,-0.70108 -2.45343,-1.06226 -3.78949,-1.6327 -7.58972,-3.23017 -11.41048,-4.78843 -1.99481,-0.84223 -1.99481,-0.84223 -4.02993,-1.70149 -1.73901,-0.70836 -1.73901,-0.70836 -3.51315,-1.43105 -4.44921,-2.87452 -4.95718,-6.54171 -6.10297,-11.50386 -4.62038,-26.77211 -7.67727,-53.45153 -0.52022,-80.0349 z"
     fill="#f8f9f6"
     id="path40"
     style="stroke-width:1.28207" />
  <path
     d="m 462.90992,247.77301 c 7.56615,4.73721 14.21837,11.2948 17.22777,19.7919 0.78277,7.69731 0.78277,7.69731 -1.52246,11.45846 -3.40929,1.99855 -4.83109,2.26987 -8.73407,1.3622 -2.06227,-2.09083 -3.82826,-4.34435 -5.66413,-6.6357 -4.12314,-4.75433 -8.19134,-7.0695 -14.43828,-7.95281 -5.81764,-0.24437 -9.76399,0.0589 -15.07428,2.56914 -6.27805,5.81866 -9.06164,11.85304 -11.4735,19.89706 -0.78625,2.37884 -0.78625,2.37884 -2.06832,3.66091 -6.77817,0.5894 -6.77817,0.5894 -9.82084,-1.37221 -4.09853,-5.90286 -2.56131,-14.85819 -1.71776,-21.70499 3.39756,-9.0344 11.10232,-15.62231 19.23099,-20.51306 9.6161,-4.0269 24.35867,-4.99943 34.05488,-0.5609 z"
     fill="#01232b"
     id="path42"
     style="stroke-width:1.28207" />
  <path
     d="m 593.07467,221.18015 c 7.39742,4.56855 13.89136,10.36775 17.83376,18.1793 0.84103,4.50204 0.87209,8.78773 -1.52246,12.82067 -3.17386,1.7511 -5.14245,1.69299 -8.73407,1.28206 -2.55412,-2.1084 -2.55412,-2.1084 -4.96801,-4.88787 -5.62867,-5.97782 -9.91884,-8.59426 -18.18931,-9.77576 -6.82776,1.0169 -10.97313,4.70904 -14.98416,10.09628 -2.3606,3.51449 -3.97228,7.00252 -5.44878,10.97768 -2.56412,2.56414 -2.56412,2.56414 -6.3302,3.04491 -3.92633,-0.48077 -3.92633,-0.48077 -6.3302,-2.40387 -2.81135,-6.24745 -2.3466,-10.96748 -0.0751,-17.23278 4.05991,-8.83885 8.59696,-15.02647 16.58174,-20.58817 1.13703,-0.81973 2.27406,-1.63945 3.44555,-2.484 8.96812,-2.87658 20.00352,-2.91535 28.72128,0.97155 z"
     fill="#01232b"
     id="path44"
     style="stroke-width:1.28207" />
  <path
     d="m 340.39248,280.38557 c 6.68022,5.67442 9.32027,13.59524 11.5386,21.79513 0.35697,1.01308 0.71394,2.02616 1.08175,3.06993 4.09043,12.93415 6.53725,35.20612 1.48238,48.2127 -4.21184,1.40394 -7.35473,1.40977 -11.77899,1.3622 -2.08978,-0.0174 -2.08978,-0.0174 -4.2218,-0.0351 -1.06595,-0.0149 -2.13193,-0.0297 -3.2302,-0.0452 -1.3807,-4.14208 -1.20531,-4.97384 -0.0801,-8.97446 4.38872,-18.60695 -1.10744,-35.01049 -10.1764,-51.28264 -1.11058,-1.6882 -1.11058,-1.6882 -2.24361,-3.41051 -0.52885,-0.98993 -1.05771,-1.97987 -1.60258,-2.99983 1.28207,-3.84619 1.28207,-3.84619 4.56736,-6.00968 5.13718,-1.96146 9.28012,-3.33753 14.66363,-1.68271 z"
     fill="#4cb1ae"
     id="path46"
     style="stroke-width:1.28207" />
  <path
     d="m 602.43476,398.58104 c 14.51267,4.49718 25.66493,18.34904 32.5124,31.24536 13.03419,27.11021 18.66319,61.69588 18.26944,91.58758 -3.38465,0.42309 -6.76931,0.84617 -10.25653,1.28207 -0.13449,-1.40961 -0.13449,-1.40961 -0.27167,-2.84771 -4.33546,-58.97676 -4.33546,-58.97676 -34.86495,-107.54518 -3.98923,-3.14087 -8.07583,-6.02326 -12.29982,-8.83925 0,-0.84616 0,-1.69233 0,-2.56413 3.8462,-2.56414 3.8462,-2.56414 6.91113,-2.31874 z"
     fill="#f6f9f5"
     id="path48"
     style="stroke-width:1.28207" />
  <path
     d="m 471.16323,47.049546 c 3.77104,3.15537 5.86951,5.404011 7.01631,10.256528 0.38021,5.147688 -0.41837,7.460343 -3.65089,11.458466 -4.70357,3.695658 -7.52472,4.356909 -13.57188,4.301934 -4.06467,-0.584006 -6.22866,-2.623274 -9.02453,-5.503871 -2.22609,-4.452141 -2.05375,-9.246171 -1.28207,-14.102727 6.11019,-7.71814 11.23184,-8.970667 20.51306,-6.41033 z"
     fill="#4db2af"
     id="path50"
     style="stroke-width:1.28207" />
  <path
     d="m 340.39248,566.2863 c 0,10.15396 0,20.30793 0,30.76958 -5.48136,-2.19254 -10.45015,-4.68939 -15.54504,-7.61226 -0.79494,-0.44539 -1.58987,-0.89077 -2.40889,-1.34967 -3.92008,-2.23824 -7.15844,-4.43252 -10.25152,-7.70492 4.21531,-2.35919 8.43716,-4.70641 12.66041,-7.05137 1.20148,-0.67263 2.40297,-1.34527 3.64085,-2.03828 1.14861,-0.63628 2.29721,-1.27255 3.48062,-1.9281 1.0608,-0.59084 2.1216,-1.18167 3.21455,-1.79039 2.6449,-1.29459 2.6449,-1.29459 5.20902,-1.29459 z"
     fill="#f4f6f3"
     id="path52"
     style="stroke-width:1.28207" />
  <path
     d="m 235.3432,478.06413 c 3.76606,1.04168 3.76606,1.04168 6.3302,4.88787 -0.26602,3.54688 -0.90103,5.80868 -2.80453,8.81421 -2.32374,1.44232 -2.32374,1.44232 -6.25006,1.28207 -3.76608,-1.12181 -3.76608,-1.12181 -6.33021,-4.96801 0.24039,-3.92633 0.24039,-3.92633 1.28207,-7.69239 3.8462,-2.56414 3.8462,-2.56414 7.77253,-2.32375 z"
     fill="#0e282d"
     id="path54"
     style="stroke-width:1.28207" />
  <path
     d="m 132.69778,535.51672 c 2.40388,1.36219 2.40388,1.36219 3.8462,3.8462 -0.16025,4.56736 -0.16025,4.56736 -1.28207,8.97446 -3.8462,2.56413 -3.8462,2.56413 -7.05136,2.40387 -3.94776,-1.3817 -5.18612,-2.5196 -7.05136,-6.25007 0.16026,-3.36543 0.16026,-3.36543 1.28206,-6.41033 4.14433,-2.76289 5.45071,-3.16485 10.25653,-2.56413 z"
     fill="#0b252a"
     id="path56"
     style="stroke-width:1.28207" />
  <path
     d="m 190.47088,460.11521 c 3.76607,1.04168 3.76607,1.04168 6.33021,4.88787 -0.24039,3.92633 -0.24039,3.92633 -1.28207,7.6924 -3.8462,2.56413 -3.8462,2.56413 -7.05136,2.32375 -3.53066,-1.14747 -5.08834,-1.72524 -7.05137,-4.88788 0.16025,-3.92633 0.16025,-3.92633 1.28207,-7.6924 3.8462,-2.56413 3.8462,-2.56413 7.77252,-2.32374 z"
     fill="#09232a"
     id="path58"
     style="stroke-width:1.28207" />
  <path
     d="m 99.283935,624.8607 c 3.926325,0.40065 3.926325,0.40065 6.330205,1.92309 1.96361,3.16359 1.99133,5.07403 1.44232,8.73407 -1.44232,2.32376 -1.44232,2.32376 -3.8462,3.84621 -3.846197,0.5609 -3.846197,0.5609 -7.692394,0 -2.484004,-2.16349 -2.484004,-2.16349 -3.846198,-5.12826 0.410068,-5.74107 1.509273,-8.72587 7.612267,-9.37511 z"
     fill="#082128"
     id="path60"
     style="stroke-width:1.28207" />
  <path
     d="m 208.33968,567.56837 c 2.56413,3.84619 2.56413,3.84619 2.24361,7.13148 -0.96155,3.12504 -0.96155,3.12504 -3.52568,5.68918 -4.48723,0.40064 -4.48723,0.40064 -8.97446,0 -2.76289,-4.14434 -3.16486,-5.45072 -2.56413,-10.25653 3.08101,-5.43708 7.41661,-3.93971 12.82066,-2.56413 z"
     fill="#072127"
     id="path62"
     style="stroke-width:1.28207" />
  <path
     d="m 157.05704,547.05531 c 2.56412,2.56413 2.56412,2.56413 2.96477,6.3302 -0.40065,3.92633 -0.40065,3.92633 -1.84297,6.41033 -2.40387,1.36219 -2.40387,1.36219 -6.3302,1.12181 -3.76606,-1.04168 -3.76606,-1.04168 -6.3302,-3.60581 -0.48077,-3.76607 -0.48077,-3.76607 0,-7.6924 3.68562,-4.23164 6.36092,-4.33545 11.5386,-2.56413 z"
     fill="#082127"
     id="path64"
     style="stroke-width:1.28207" />
  <path
     d="m 78.770877,515.88508 c 3.926328,0.40064 3.926328,0.40064 6.330202,1.92309 1.963612,3.1636 1.991331,5.07404 1.442324,8.73408 -1.442324,2.32375 -1.442324,2.32375 -3.846198,3.84621 -3.846199,0.5609 -3.846199,0.5609 -7.692397,0 -2.484002,-2.16349 -2.484002,-2.16349 -3.846198,-5.12827 0.410069,-5.74106 1.509275,-8.72586 7.612267,-9.37511 z"
     fill="#072127"
     id="path66"
     style="stroke-width:1.28207" />
  <path
     d="m 276.76995,496.65409 c 4.6475,0.40064 4.6475,0.40064 7.21162,2.56413 1.62947,3.76812 1.40955,5.54921 0,9.37511 -4.14433,2.76288 -5.45071,3.16486 -10.25653,2.56414 -2.40387,-1.36221 -2.40387,-1.36221 -3.84619,-3.84621 0.69542,-10.0835 0.69542,-10.0835 6.8911,-10.65717 z"
     fill="#08262e"
     id="path68"
     style="stroke-width:1.28207" />
  <path
     d="m 216.03207,470.13135 c 2.56414,2.56413 2.56414,2.56413 2.96478,6.3302 -0.40064,3.92633 -0.40064,3.92633 -1.92309,6.3302 -3.16359,1.96361 -5.07404,1.99133 -8.73408,1.44232 -2.32375,-1.44232 -2.32375,-1.44232 -3.8462,-3.84619 -0.56091,-3.84621 -0.56091,-3.84621 0,-7.6924 3.68562,-4.23164 6.36092,-4.33545 11.53859,-2.56413 z"
     fill="#082127"
     id="path70"
     style="stroke-width:1.28207" />
  <path
     d="m 80.133073,615.00482 c 2.564132,2.56412 2.564132,2.56412 2.964777,6.3302 -0.400645,3.92633 -0.400645,3.92633 -1.923099,6.3302 -3.163587,1.96361 -5.074033,1.99132 -8.734075,1.44232 -2.323744,-1.44232 -2.323744,-1.44232 -3.846198,-3.84619 -0.560903,-3.84621 -0.560903,-3.84621 0,-7.69241 3.685619,-4.23164 6.36092,-4.33544 11.538595,-2.56412 z"
     fill="#072025"
     id="path72"
     style="stroke-width:1.28207" />
  <path
     d="m 181.41629,556.02977 c 2.48401,2.16349 2.48401,2.16349 3.8462,5.12826 -0.30864,4.32103 -0.75383,5.8821 -3.8462,8.97447 -4.02189,0.42786 -6.62256,0.67756 -10.09626,-1.52245 -1.96362,-3.16359 -1.99134,-5.07403 -1.44234,-8.73408 2.89388,-4.66235 6.38046,-4.59842 11.5386,-3.8462 z"
     fill="#072026"
     id="path74"
     style="stroke-width:1.28207" />
  <path
     d="m 55.853946,506.18945 c 3.76607,1.12181 3.76607,1.12181 6.330202,4.96802 0.459492,3.67597 0.527199,5.60565 -1.522453,8.73406 -3.155909,2.06767 -5.029751,2.0781 -8.734075,1.52245 -2.323745,-1.44232 -2.323745,-1.44232 -3.846199,-3.84619 -0.509032,-4.07229 -0.640186,-6.58985 1.442324,-10.1764 2.403875,-1.36219 2.403875,-1.36219 6.330201,-1.20194 z"
     fill="#082127"
     id="path76"
     style="stroke-width:1.28207" />
  <path
     d="m 260.90439,488.08027 c 2.56414,2.56414 2.56414,2.56414 2.96477,6.3302 -0.40063,3.92633 -0.40063,3.92633 -1.92309,6.3302 -3.16359,1.96362 -5.07403,1.99134 -8.73407,1.44232 -2.32376,-1.44232 -2.32376,-1.44232 -3.84621,-3.84619 -0.5609,-3.8462 -0.5609,-3.8462 0,-7.69239 3.68562,-4.23164 6.36092,-4.33545 11.5386,-2.56414 z"
     fill="#061f25"
     id="path78"
     style="stroke-width:1.28207" />
  <path
     d="m 171.15976,452.18242 c 2.56414,2.56414 2.56414,2.56414 2.96478,6.3302 -0.40064,3.92633 -0.40064,3.92633 -1.92309,6.3302 -3.1636,1.96362 -5.07404,1.99133 -8.73408,1.44233 -2.32375,-1.44233 -2.32375,-1.44233 -3.84621,-3.8462 -0.5609,-3.8462 -0.5609,-3.8462 0,-7.69239 3.68563,-4.23165 6.36093,-4.33546 11.5386,-2.56414 z"
     fill="#061f25"
     id="path80"
     style="stroke-width:1.28207" />
  <path
     d="m 149.36463,443.20796 c 2.56414,2.56414 2.56414,2.56414 2.96479,6.3302 -0.40065,3.92633 -0.40065,3.92633 -1.84297,6.41033 -2.40387,1.36219 -2.40387,1.36219 -6.3302,1.20194 -3.76608,-1.12181 -3.76608,-1.12181 -6.3302,-4.96801 -0.48078,-3.20516 -0.48078,-3.20516 0,-6.41032 3.7493,-4.1659 6.34626,-4.34047 11.53858,-2.56414 z"
     fill="#012229"
     id="path82"
     style="stroke-width:1.28207" />
  <path
     d="m 57.055883,604.74829 c 2.564133,2.56412 2.564133,2.56412 2.88465,7.05135 -0.320517,4.48723 -0.320517,4.48723 -2.88465,7.05137 -3.971481,0.42249 -6.632525,0.58122 -10.176399,-1.3622 -2.19282,-3.99865 -1.112371,-7.1707 -0.08013,-11.45847 3.541707,-1.77084 6.342778,-1.52666 10.256529,-1.28205 z"
     fill="#051c21"
     id="path84"
     style="stroke-width:1.28207" />
  <path
     d="m 29.411334,594.25137 c 4.567361,0.24039 4.567361,0.24039 7.131493,2.80451 0.400645,4.48723 0.400645,4.48723 0,8.97446 -4.144331,2.7629 -5.450717,3.16487 -10.256529,2.56414 -2.403874,-1.3622 -2.403874,-1.3622 -3.846198,-3.84619 0.700341,-10.15487 0.700341,-10.15487 6.971234,-10.49692 z"
     fill="#051e24"
     id="path86"
     style="stroke-width:1.28207" />
  <path
     d="m 127.56952,434.2335 c 2.40387,1.36219 2.40387,1.36219 3.84619,3.84619 -0.56979,8.2622 -0.56979,8.2622 -2.56412,10.25653 -4.40711,0.24039 -4.40711,0.24039 -8.97447,0 -2.56413,-2.56412 -2.56413,-2.56412 -2.96478,-7.05136 0.13221,-1.48079 0.26443,-2.96157 0.40065,-4.48724 4.14433,-2.76288 5.45071,-3.16485 10.25653,-2.56412 z"
     fill="#051f25"
     id="path88"
     style="stroke-width:1.28207" />
  <path
     d="m 108.33853,526.54225 c 1.28206,1.28207 1.28206,1.28207 1.52245,5.68918 -0.24039,4.56735 -0.24039,4.56735 -2.80452,7.13149 -4.02189,0.42786 -6.62256,0.67755 -10.09627,-1.52246 -1.963612,-3.16359 -1.991331,-5.07403 -1.442324,-8.73407 3.08942,-5.45193 7.387494,-3.77151 12.820664,-2.56414 z"
     fill="#051f25"
     id="path90"
     style="stroke-width:1.28207" />
  <path
     d="m 304.49463,506.0292 c 2.56414,2.56413 2.56414,2.56413 2.96478,7.05136 -0.19832,2.22118 -0.19832,2.22118 -0.40064,4.48723 -4.14433,2.7629 -5.45072,3.16486 -10.25653,2.56414 -2.40387,-1.3622 -2.40387,-1.3622 -3.8462,-3.84621 0.24039,-4.64748 0.24039,-4.64748 1.28206,-8.97446 3.54171,-1.77085 6.34279,-1.52666 10.25653,-1.28206 z"
     fill="#061f25"
     id="path92"
     style="stroke-width:1.28207" />
  <path
     d="m 33.978695,495.77267 c 2.323745,1.44232 2.323745,1.44232 3.846198,3.8462 0.400646,3.92633 0.400646,3.92633 0,7.69239 -2.564133,2.56414 -2.564133,2.56414 -7.051364,2.88465 -4.487231,-0.32051 -4.487231,-0.32051 -7.051363,-2.88465 -0.427864,-4.02189 -0.677559,-6.62256 1.522454,-10.09627 3.163587,-1.96361 5.074032,-1.99133 8.734075,-1.44232 z"
     fill="#041e24"
     id="path94"
     style="stroke-width:1.28207" />
  <path
     d="m 149.36463,443.20796 c -0.42307,1.26925 -0.84615,2.53849 -1.28205,3.84619 -2.96158,0.42309 -5.92316,0.84617 -8.97446,1.28207 0.84616,1.69233 1.69231,3.38466 2.56412,5.12827 2.96158,0 5.92315,0 8.97446,0 -1.26924,1.90387 -1.26924,1.90387 -2.56412,3.84619 -3.68595,-0.40064 -3.68595,-0.40064 -7.69241,-1.28206 -2.75338,-4.13009 -3.28345,-5.46102 -2.56412,-10.25652 3.78341,-4.20381 6.28811,-4.16845 11.53858,-2.56414 z"
     fill="#0d1d22"
     id="path102"
     style="stroke-width:1.28207" />
  <path
     d="m 276.85008,496.73421 c 1.50724,0.10574 3.01446,0.21155 4.56737,0.32052 0.84615,1.26925 1.69232,2.5385 2.56412,3.84621 -2.96156,-0.42309 -5.92314,-0.84617 -8.97446,-1.28207 -1.25796,3.91369 -1.25796,6.34284 0,10.25653 -1.69233,-0.84617 -3.38465,-1.69233 -5.12826,-2.56414 1.29362,-10.16412 1.29362,-10.16412 6.97123,-10.57705 z"
     fill="#0a181c"
     id="path112"
     style="stroke-width:1.28207" />
  <path
     d="m 55.773818,607.31241 c 0.846164,0.42308 1.692326,0.84617 2.564132,1.28207 0.801291,3.92633 0.801291,3.92633 1.282066,7.69239 -1.269246,0.63463 -1.269246,0.63463 -2.564133,1.28207 -0.846163,-0.84616 -1.692326,-1.69233 -2.564132,-2.56412 0,-0.84617 0,-1.69233 0,-2.56414 -0.423081,-1.26925 -0.846163,-2.53849 -1.282066,-3.8462 0.846164,-0.42308 1.692327,-0.84617 2.564133,-1.28207 z"
     fill="#062a32"
     id="path130"
     style="stroke-width:1.28207" />
  <path
     d="m 287.82778,570.1325 c 1.26924,0.42308 2.53849,0.84616 3.8462,1.28206 -0.42308,0.84617 -0.84617,1.69233 -1.28207,2.56414 -0.84616,0 -1.69233,0 -2.56413,0 0,2.53849 0,5.07698 0,7.69239 -0.84617,-0.84616 -1.69233,-1.69233 -2.56414,-2.56413 0.41921,-3.35362 1.05179,-5.94979 2.56414,-8.97446 z"
     fill="#213134"
     id="path136"
     style="stroke-width:1.28207" />
</svg>
