<?xml version="1.0" encoding="UTF-8"?>
<!-- Generator: visioncortex VTracer 0.6.4 -->
<svg version="1.1" xmlns="http://www.w3.org/2000/svg" width="1024" height="1024">
<path d="M0 0 C337.92 0 675.84 0 1024 0 C1024 337.92 1024 675.84 1024 1024 C686.08 1024 348.16 1024 0 1024 C0 686.08 0 348.16 0 0 Z " fill="#FEFEF9" transform="translate(0,0)"/>
<path d="M0 0 C5.65919195 4.61587724 8.44498101 9.69041179 10.72265625 16.5234375 C11.30096536 24.90891958 9.73232043 31.47748913 4.28515625 38.0234375 C1.82647112 40.79564624 0.30878047 41.75488286 -3.27734375 42.5234375 C-3.035 43.4112793 -2.79265625 44.29912109 -2.54296875 45.21386719 C-1.64440937 48.5152089 -0.75037978 51.81770868 0.140625 55.12109375 C0.52684152 56.54931727 0.91484605 57.97705854 1.3046875 59.40429688 C1.86541377 61.45838597 2.41964196 63.51413561 2.97265625 65.5703125 C3.3078125 66.80620117 3.64296875 68.04208984 3.98828125 69.31542969 C4.72265625 72.5234375 4.72265625 72.5234375 4.72265625 76.5234375 C5.30120361 76.43779541 5.87975098 76.35215332 6.47583008 76.26391602 C9.16182306 75.86813892 11.84847659 75.47702493 14.53515625 75.0859375 C15.44458984 74.95123047 16.35402344 74.81652344 17.29101562 74.67773438 C48.87606238 70.10180887 79.70327693 71.12164228 106.40234375 90.46484375 C120.56475902 101.46331518 132.16177058 115.11655298 135.97265625 133.0859375 C136.79965303 136.17472065 137.16830724 137.19277318 139.94921875 138.8515625 C141.71116694 139.5064459 143.4910046 140.11510886 145.28515625 140.67578125 C150.85158023 142.61154087 153.77597216 147.70420174 156.72265625 152.5234375 C157.953125 155.99609375 157.953125 155.99609375 158.91015625 159.5859375 C159.23371094 160.77316406 159.55726563 161.96039063 159.890625 163.18359375 C162.77868797 174.77652259 163.77328855 187.75036047 157.72265625 198.5234375 C156.71218177 199.57515584 155.67015983 200.59755184 154.59765625 201.5859375 C150.62052484 205.72215416 150.84661826 211.05823819 150.40087891 216.47900391 C148.77499389 235.79672246 140.46569729 249.59967839 126.5390625 262.5546875 C119.98749066 268.00401001 112.28391865 271.68801454 104.72265625 275.5234375 C121.68195562 272.25940007 136.00406926 265.36989281 148.72265625 253.5234375 C149.25955078 253.03810547 149.79644531 252.55277344 150.34960938 252.05273438 C165.01778433 238.70750642 175.20189842 222.7954605 182.72265625 204.5234375 C183.02945313 203.82412109 183.33625 203.12480469 183.65234375 202.40429688 C187.36545573 194.2511216 187.36545573 194.2511216 186.7109375 185.67578125 C184.98841057 183.03424452 184.98841057 183.03424452 182.91015625 180.4921875 C174.37049944 168.90265325 168.88521426 150.76877428 170.72265625 136.5234375 C172.47896741 131.1056641 176.23691565 127.76844134 180.72265625 124.5234375 C188.07348261 122.07316205 194.71035706 123.73841087 201.72265625 126.5234375 C201.820625 125.80800781 201.91859375 125.09257812 202.01953125 124.35546875 C205.50392158 101.13621252 205.50392158 101.13621252 213.72265625 94.5234375 C218.59375793 91.20989786 222.7541563 89.76381023 228.72265625 90.5234375 C237.09604415 93.3145668 241.81096724 97.85050906 245.72265625 105.5234375 C246.2846875 105.36617188 246.84671875 105.20890625 247.42578125 105.046875 C253.30657576 103.70669394 258.81838064 103.55721293 264.09765625 106.7109375 C268.44480886 109.81354239 271.74329479 113.53345064 273.72265625 118.5234375 C276.24648745 140.43708724 270.95207212 170.54345866 257.72265625 188.5234375 C255.22483499 191.38474767 252.68343677 194.1361415 249.72265625 196.5234375 C249.06265625 196.5234375 248.40265625 196.5234375 247.72265625 196.5234375 C247.63628906 197.27625 247.54992187 198.0290625 247.4609375 198.8046875 C243.17089558 231.2358301 226.39338082 261.37375396 203.72265625 284.5234375 C202.75591439 285.53979799 201.7897793 286.55673593 200.82421875 287.57421875 C194.00168331 294.67591419 186.74348271 300.81837111 178.72265625 306.5234375 C177.85084717 307.14581299 177.85084717 307.14581299 176.96142578 307.78076172 C169.80574877 312.83697359 162.44686258 317.38546982 154.72265625 321.5234375 C154.02881836 321.89734619 153.33498047 322.27125488 152.62011719 322.65649414 C148.39150919 324.86114865 144.35059493 326.36645283 139.72265625 327.5234375 C139.86364746 328.22202881 140.00463867 328.92062012 140.14990234 329.64038086 C144.16910527 349.68208195 146.87109096 369.10828022 147.72265625 389.5234375 C148.82222656 389.80316406 149.92179687 390.08289063 151.0546875 390.37109375 C160.26374191 392.82308535 168.11241622 395.55232609 175.72265625 401.5234375 C176.36332031 402.02230469 177.00398437 402.52117187 177.6640625 403.03515625 C197.7568667 420.8804432 201.84211496 457.7520205 204.72265625 482.5234375 C204.7533306 484.52320226 204.76207212 486.52382594 204.72265625 488.5234375 C205.42777344 488.62527344 206.13289062 488.72710938 206.859375 488.83203125 C219.71285195 491.93580399 228.54556464 502.13558523 235.27734375 512.8125 C237.88442364 517.70253634 238.94807462 521.22868444 238.16015625 526.7109375 C238.06812675 530.68985993 238.47632669 532.19158303 240.8828125 535.43359375 C243.65114519 538.32934129 246.66236615 540.94312214 249.72265625 543.5234375 C256.51165212 549.29839903 262.76560533 555.49886011 269.01171875 561.8515625 C272.41708838 565.29203903 275.81848424 568.66383357 279.50390625 571.8046875 C285.98862153 577.37769033 291.87260991 583.61948088 297.87744141 589.69873047 C299.5007765 591.3403648 301.12727745 592.97881769 302.75390625 594.6171875 C303.23436401 595.1059436 303.71482178 595.59469971 304.20983887 596.0982666 C306.91746107 598.82475404 309.70396132 601.40301813 312.61328125 603.9140625 C316.74404361 607.493012 320.60247877 611.29215704 324.44140625 615.1796875 C325.14358276 615.88565063 325.84575928 616.59161377 326.56921387 617.31896973 C329.53649391 620.30241125 332.49770988 623.2918446 335.45947266 626.28076172 C337.6388409 628.47834329 339.82130572 630.67281688 342.00390625 632.8671875 C342.65935425 633.53093384 343.31480225 634.19468018 343.9901123 634.87854004 C347.13345552 638.03825379 350.31957498 641.08479573 353.6953125 643.99609375 C357.95899341 647.67680003 361.92112922 651.61243795 365.87890625 655.6171875 C366.62547485 656.36754272 367.37204346 657.11789795 368.14123535 657.89099121 C371.29966737 661.06560254 374.45204904 664.24619666 377.60498047 667.42626953 C379.9233537 669.76284111 382.24481145 672.09631749 384.56640625 674.4296875 C385.26560181 675.1371814 385.96479736 675.84467529 386.68518066 676.5736084 C392.1066743 682.02166052 397.75761429 687.11434091 403.72265625 691.9609375 C405.77189963 694.58653058 406.12447675 695.40269301 406.34765625 698.5859375 C405.72265625 702.5234375 405.72265625 702.5234375 403.77783203 704.77026367 C399.46449335 707.2454183 396.07694385 706.85006378 391.21484375 706.51171875 C390.29357697 706.46403854 389.37231018 706.41635834 388.42312622 706.36723328 C385.47981387 706.20993295 382.5392012 706.02315739 379.59765625 705.8359375 C377.6420309 705.72792143 375.68630092 705.6217823 373.73046875 705.51757812 C366.59786773 705.12477399 359.47762371 704.7026236 352.36621094 704.01953125 C346.29122533 703.45359736 340.2159024 703.16863913 334.12109375 702.91015625 C332.89558807 702.85601059 331.6700824 702.80186493 330.40744019 702.74607849 C327.02251991 702.59693802 323.63751622 702.45003882 320.25245667 702.3041153 C316.54420524 702.14376323 312.83606991 701.98077147 309.12792969 701.81787109 C308.36181366 701.784217 307.59569763 701.7505629 306.80636597 701.71588898 C305.22971044 701.6466244 303.65305538 701.57734938 302.07640076 701.50806427 C299.63773688 701.40101669 297.19905733 701.29433175 294.76037598 701.18768311 C283.99880883 700.71629419 273.23808897 700.22841625 262.4777565 699.72968102 C204.77707634 697.05694771 147.06363773 694.76251045 89.34484863 692.52389908 C58.99442044 691.34623235 28.64637908 690.11241184 -1.69997787 688.83423996 C-5.98976193 688.65365836 -10.27957498 688.47376657 -14.56939888 688.29413414 C-18.24736472 688.14011905 -21.92530659 687.98556686 -25.60321045 687.83007812 C-41.75997051 687.14830133 -57.91535348 686.50345996 -74.08042908 686.05329895 C-76.24396277 685.99290128 -78.40744628 685.93093751 -80.57092285 685.86853027 C-87.27455599 685.6762375 -93.97792926 685.49834963 -100.68261719 685.34570312 C-103.06056217 685.28050348 -105.43849286 685.21477939 -107.81640625 685.1484375 C-109.41583572 685.12033997 -109.41583572 685.12033997 -111.0475769 685.0916748 C-116.84448096 684.91417213 -121.17417696 684.36172289 -126.27734375 681.5234375 C-128.21875 679.046875 -128.21875 679.046875 -129.83984375 675.8984375 C-130.51346088 674.6349567 -131.18801892 673.3719773 -131.86328125 672.109375 C-132.23807617 671.39233398 -132.61287109 670.67529297 -132.99902344 669.93652344 C-135.56887124 665.08542036 -138.27965072 660.31132524 -140.96484375 655.5234375 C-141.87218262 653.89946045 -141.87218262 653.89946045 -142.79785156 652.24267578 C-147.65675154 643.56680282 -152.67201003 634.9934595 -157.7578125 626.44921875 C-162.00864784 619.30756788 -166.20392456 612.1334742 -170.40234375 604.9609375 C-171.50121659 603.08368276 -172.60014907 601.20646322 -173.6993866 599.329422 C-174.66071802 597.68780034 -175.62163312 596.04593491 -176.58251953 594.40405273 C-177.14181152 593.45344971 -177.70110352 592.50284668 -178.27734375 591.5234375 C-178.65366943 590.62286621 -179.02999512 589.72229492 -179.41772461 588.79443359 C-182.38581336 585.169757 -186.11872844 584.96203635 -190.5859375 584.12890625 C-191.99742317 583.8392524 -191.99742317 583.8392524 -193.43742371 583.54374695 C-196.52640032 582.91384338 -199.62028686 582.31276728 -202.71484375 581.7109375 C-204.86489853 581.27661066 -207.01447371 580.83990325 -209.16357422 580.40087891 C-213.49779795 579.51621392 -217.83353419 578.63962864 -222.17041016 577.76806641 C-229.71853343 576.24123387 -237.23449675 574.58180839 -244.74603271 572.88537598 C-248.35546968 572.07029239 -251.9667532 571.26349216 -255.578125 570.45703125 C-256.28755249 570.29848663 -256.99697998 570.13994202 -257.72790527 569.97659302 C-266.17231691 568.09388533 -274.63149266 566.27976091 -283.08984375 564.4609375 C-296.01579421 561.6802715 -308.92764361 558.84492812 -321.81518555 555.89086914 C-327.2073003 554.65582371 -332.59476254 553.43937059 -338.0234375 552.375 C-338.86366455 552.20581055 -339.7038916 552.03662109 -340.56958008 551.86230469 C-342.04935042 551.56805417 -343.53213221 551.2882772 -345.01831055 551.02832031 C-349.78013633 550.06833817 -352.24277744 548.2837852 -355.27734375 544.5234375 C-355.98117097 540.76969234 -355.74697799 539.21542583 -353.59838867 536.04956055 C-351.08752403 533.31684607 -348.83873918 531.85807836 -345.578125 530.10546875 C-344.46002441 529.49614502 -343.34192383 528.88682129 -342.18994141 528.2590332 C-341.30861542 527.78827866 -341.30861542 527.78827866 -340.40948486 527.30801392 C-337.94346864 525.99063534 -335.49043664 524.6499107 -333.03662109 523.3099823 C-331.81198354 522.6413699 -330.58672501 521.97389359 -329.36083984 521.30757141 C-324.65020291 518.74364202 -320.00753675 516.08378432 -315.40234375 513.3359375 C-300.65140519 504.56858015 -285.68726967 496.17468002 -270.71020508 487.80126953 C-255.84756688 479.49149143 -241.02843777 471.10596297 -226.24176025 462.66177368 C-224.47348151 461.65336342 -222.70344457 460.64809843 -220.93310547 459.64331055 C-215.52729262 456.56890201 -210.14614961 453.46629058 -204.83433533 450.23150635 C-203.060029 449.15185364 -201.280503 448.08135815 -199.49926758 447.01318359 C-197.28427227 445.67990393 -195.08017525 444.32828688 -192.8894043 442.95556641 C-183.70717069 437.46738585 -183.70717069 437.46738585 -177.7722168 438.70825195 C-171.9654085 440.60559346 -166.37294029 442.96464393 -160.77734375 445.3984375 C-153.02812502 448.72570793 -145.3403267 452.0169015 -137.27734375 454.5234375 C-137.79756104 453.70141846 -138.31777832 452.87939941 -138.85375977 452.0324707 C-140.78263895 448.97594082 -142.6918763 445.90754129 -144.59545898 442.83520508 C-145.42153938 441.50799842 -146.25288791 440.18405554 -147.08959961 438.86352539 C-148.29254875 436.96296582 -149.47596292 435.05141156 -150.65625 433.13671875 C-151.03326553 432.55005936 -151.41028107 431.96339996 -151.79872131 431.35896301 C-153.46427497 428.61815451 -154.30778618 426.95359086 -154.07836914 423.71191406 C-152.33806492 418.95723957 -148.8102649 417.66305142 -144.40234375 415.5859375 C-137.84673479 412.42159035 -131.5255822 408.8990229 -125.21484375 405.2734375 C-124.31072754 404.75402588 -123.40661133 404.23461426 -122.47509766 403.69946289 C-120.78616421 402.72534578 -119.10219227 401.74255398 -117.42431641 400.74951172 C-115.27734375 399.5234375 -115.27734375 399.5234375 -112.296875 398.203125 C-109.05809228 395.50935988 -108.79777742 391.85164634 -108.02734375 387.8984375 C-102.41638881 362.84599566 -91.8266063 326.9094114 -70.27734375 310.5234375 C-66.69349491 308.34492423 -63.03727355 306.37960537 -59.27734375 304.5234375 C-60.293125 304.183125 -61.30890625 303.8428125 -62.35546875 303.4921875 C-79.14126343 297.66958937 -95.8940571 287.17366377 -105.27734375 271.5234375 C-105.66921875 270.4096875 -106.06109375 269.2959375 -106.46484375 268.1484375 C-107.9860744 265.33690477 -107.9860744 265.33690477 -110.55078125 264.921875 C-112.46649625 264.64820143 -114.38323906 264.38165687 -116.30078125 264.12109375 C-125.33567637 262.30700064 -132.02286159 255.76007922 -137.27734375 248.5234375 C-145.55736171 235.39184652 -147.01543381 220.0477303 -144.73828125 204.94921875 C-142.74835378 196.23508583 -139.75290534 189.71056187 -132.27734375 184.5234375 C-129.5859375 183.890625 -129.5859375 183.890625 -127.27734375 183.5234375 C-127.30352783 182.93554443 -127.32971191 182.34765137 -127.35668945 181.74194336 C-128.38115592 155.14471907 -118.97368063 136.24220606 -101.72265625 116.6171875 C-81.22647184 94.96543187 -53.67976157 88.83469524 -25.52734375 82.5859375 C-24.10917358 82.26870728 -24.10917358 82.26870728 -22.66235352 81.94506836 C-21.77733154 81.75565674 -20.89230957 81.56624512 -19.98046875 81.37109375 C-19.21379883 81.20617432 -18.44712891 81.04125488 -17.65722656 80.87133789 C-14.8416936 80.45975249 -12.11873801 80.46780934 -9.27734375 80.5234375 C-10.39535254 76.00201699 -11.51643154 71.48137325 -12.64038086 66.96142578 C-13.0224145 65.42322487 -13.40360371 63.88481398 -13.78393555 62.34619141 C-14.3303064 60.13648816 -14.87969532 57.9275543 -15.4296875 55.71875 C-15.68443092 54.68429245 -15.68443092 54.68429245 -15.94432068 53.62893677 C-16.84659704 49.98319992 -16.84659704 49.98319992 -18.27734375 46.5234375 C-20.13384663 45.7679521 -22.01340229 45.06870705 -23.90234375 44.3984375 C-30.85797194 41.56987051 -35.02579101 38.08323675 -38.36328125 31.32421875 C-41.02556938 24.32655316 -41.43193984 17.75159214 -38.58984375 10.7734375 C-35.22958116 4.02949586 -29.87178104 -0.06790704 -23.27734375 -3.4765625 C-15.3914279 -5.87988923 -6.88297745 -4.46271951 0 0 Z " fill="#01242C" transform="translate(481.27734375,83.4765625)"/>
<path d="M0 0 C2.39836271 0.87911031 4.7968065 1.75799946 7.1953125 2.63671875 C9.84340572 3.64117512 12.48468748 4.6627888 15.125 5.6875 C15.8118689 5.95322815 16.49873779 6.2189563 17.2064209 6.49273682 C26.28127169 10.01467217 35.25697682 13.61331713 43.80078125 18.30859375 C46.95951005 20.07170947 46.95951005 20.07170947 50.35546875 21.22265625 C53.60527555 22.50363206 55.63947085 23.4153398 58 26 C58.84176374 30.18581968 58.87543711 34.08449122 58.85546875 38.3359375 C58.91858565 49.49593993 63.40090596 61.11473333 70 70 C70.53496094 70.72703125 71.06992187 71.4540625 71.62109375 72.203125 C75.70563616 77.29701161 80.1258298 80.24159688 86 83 C86.825 83.433125 87.65 83.86625 88.5 84.3125 C93.33447513 85.64198066 98.13074237 85.67252361 102.85546875 83.97265625 C106.43493883 82.86546612 109.14809632 82.96753798 112.875 83.1875 C120.57619967 83.3094831 124.46470642 81.41745046 129.875 76.1875 C131.02127253 73.95863675 131.24943442 72.38761833 131.625 69.9375 C132.078125 67.82421875 132.078125 67.82421875 133 66 C135.23404178 64.82580875 137.35407237 64.25515608 139.80078125 63.65234375 C142.66864859 62.80166196 144.16279543 61.31647533 146 59 C151.18914305 60.58920098 155.99836407 62.74233164 160.90625 65.02734375 C161.74917603 65.41692764 162.59210205 65.80651154 163.46057129 66.207901 C165.23628214 67.02928954 167.01129424 67.85219017 168.78564453 68.67651367 C171.48973739 69.93273238 174.19583048 71.18455269 176.90234375 72.43554688 C178.63293089 73.23672349 180.3634035 74.03814755 182.09375 74.83984375 C182.89703735 75.21181381 183.70032471 75.58378387 184.5279541 75.96702576 C186.01945821 76.66024436 187.50913826 77.35740708 188.99658203 78.05929565 C190.81148168 78.91148127 192.63852608 79.7376829 194.46679688 80.56079102 C197.50243088 82.28545008 197.94365464 83.84988458 199.12109375 87.0390625 C203.75219133 97.37155576 214.42454798 101.63178516 224.25 105.6875 C233.24029487 108.94621994 241.95480236 111.2960707 251.55078125 110.76953125 C272.04242724 109.90696315 286.94986887 117.30612008 304.96073914 126.11572266 C313.91391007 130.4884868 323.01207845 134.50438144 332.14172363 138.49230957 C335.78066931 140.08352555 339.41420712 141.68688312 343.04772949 143.29043579 C345.69312375 144.45789909 348.33916341 145.62388823 350.98535156 146.78955078 C355.62468294 148.83387205 360.26190408 150.8829362 364.8984375 152.93359375 C376.37602191 158.00819684 387.85620805 163.07571303 399.3671875 168.07421875 C416.01900273 175.30605364 432.63994279 182.59462716 449.1875 190.0625 C450.01552124 190.43614685 450.84354248 190.8097937 451.69665527 191.19476318 C455.01428452 192.69201074 458.33185931 194.18937891 461.64938354 195.68685913 C470.3811468 199.62642761 479.12412729 203.5405757 487.875 207.4375 C488.98524536 207.93242447 488.98524536 207.93242447 490.11791992 208.43734741 C497.71206246 211.81965747 505.3192961 215.16158291 512.98828125 218.37109375 C513.60856201 218.6309758 514.22884277 218.89085785 514.86791992 219.15861511 C517.74117572 220.36005498 520.61825355 221.55090002 523.50146484 222.72827148 C524.48453613 223.13505127 525.46760742 223.54183105 526.48046875 223.9609375 C527.76280396 224.48373291 527.76280396 224.48373291 529.07104492 225.01708984 C531 226 531 226 532 228 C476.99424241 218.44554829 422.51460341 205.68535593 368.03138542 193.56413174 C360.34279026 191.85360828 352.65377663 190.14497013 344.96471596 188.4365406 C341.16330849 187.59188828 337.3619291 186.74710967 333.56054688 185.90234375 C332.04223646 185.5649408 330.52392592 185.22753846 329.00561523 184.89013672 C325.9440918 184.20979818 322.88256836 183.52945964 319.82104492 182.84912109 C319.05913094 182.67980733 318.29721695 182.51049356 317.51221466 182.33604908 C315.98053155 181.99567414 314.44884921 181.65529571 312.91716766 181.31491375 C309.17196952 180.48263165 305.42675863 179.65040701 301.68151855 178.8183136 C294.89936195 177.31143701 288.11737854 175.80379515 281.3359375 174.29370117 C269.60610306 171.68236966 257.87375219 169.08753604 246.125 166.5625 C242.99984884 165.88872072 239.87491757 165.21392424 236.75 164.5390625 C235.88384064 164.35204269 235.01768127 164.16502289 234.12527466 163.97233582 C221.74505972 161.29826504 209.36689541 158.61472921 196.98953056 155.92750072 C193.23195986 155.11171126 189.47429982 154.29634027 185.71636963 153.48220825 C170.44628687 150.17374202 155.18539391 146.83266993 139.94921875 143.37109375 C127.60049967 140.56722615 115.23123268 137.88166238 102.83740234 135.28500366 C97.27992434 134.12053714 91.72408732 132.94827612 86.16796875 131.77734375 C84.49980606 131.42610191 84.49980606 131.42610191 82.79794312 131.06776428 C72.02675758 128.79855801 61.26236488 126.49813329 50.5 124.1875 C49.70435638 124.01671936 48.90871277 123.84593872 48.08895874 123.66998291 C44.9677408 122.99995358 41.84653618 122.32986524 38.72557068 121.65866089 C34.06197247 120.65597869 29.39742199 119.65791519 24.73193359 118.6640625 C8.52265233 115.20755838 -7.6646895 111.65870991 -23.84546661 108.07183266 C-54.521863 101.2602991 -54.521863 101.2602991 -85.25 94.6875 C-85.95192474 94.54030518 -86.65384949 94.39311035 -87.37704468 94.24145508 C-95.73582729 92.49123805 -104.10117807 90.77346692 -112.46792603 89.06178284 C-116.9404467 88.14565099 -121.41196782 87.22469243 -125.88342285 86.30337524 C-129.12404038 85.63802919 -132.36615466 84.98036588 -135.60839844 84.32299805 C-137.58666465 83.91622283 -139.56485846 83.50909528 -141.54296875 83.1015625 C-142.45658676 82.91859116 -143.37020477 82.73561981 -144.31150818 82.54710388 C-145.15125687 82.37252151 -145.99100555 82.19793915 -146.85620117 82.01806641 C-147.5876384 81.86898834 -148.31907562 81.71991028 -149.07267761 81.5663147 C-151 81 -151 81 -154 79 C-138.77920604 70.04320356 -123.45946233 61.29173286 -108.03320312 52.69384766 C-94.08342526 44.90379946 -80.2081306 36.98225515 -66.34338379 29.04220581 C-56.876319 23.62222843 -47.38556367 18.24557715 -37.83422852 12.97509766 C-32.99468992 10.29422182 -28.23440621 7.55535154 -23.5703125 4.578125 C-22.72090088 4.04743408 -21.87148926 3.51674316 -20.99633789 2.9699707 C-19.43341155 1.98587113 -17.88636453 0.97582028 -16.36108398 -0.06567383 C-10.15827988 -3.93137691 -6.51005435 -2.67174359 0 0 Z " fill="#FDFCF8" transform="translate(310,542)"/>
<path d="M0 0 C2.52517406 2.21290062 4.9306514 4.49729234 7.30859375 6.8671875 C8.37400391 7.89779297 8.37400391 7.89779297 9.4609375 8.94921875 C21.83287435 21.74859296 24.78930695 38.04003874 28.30859375 54.8671875 C28.65476623 56.50700269 29.00095877 58.14681365 29.34716797 59.78662109 C30.47820694 65.16381562 31.58402084 70.54598292 32.68359375 75.9296875 C32.86493866 76.80921082 33.04628357 77.68873413 33.23312378 78.59490967 C33.75384926 81.1332426 34.26335183 83.67357484 34.76953125 86.21484375 C34.92546249 86.96920212 35.08139374 87.72356049 35.24205017 88.5007782 C38.29689341 104.10481147 34.69878683 119.54062839 26.30859375 132.8671875 C18.49628511 143.56381788 8.31483564 148.889393 -3.69140625 153.8671875 C-4.76044189 154.32158203 -5.82947754 154.77597656 -6.9309082 155.24414062 C-13.310498 157.61803497 -20.03450952 158.71185385 -26.6953125 160.01171875 C-28.17914442 160.30637197 -29.662861 160.60160661 -31.14646912 160.89738464 C-35.0575102 161.67539608 -38.97012593 162.44518648 -42.88311768 163.21331787 C-46.74798187 163.97359456 -50.61120139 164.74213029 -54.47460938 165.50976562 C-62.79970323 167.16206202 -71.12791073 168.79822551 -79.45719147 170.42926788 C-81.69940156 170.86875463 -83.94137569 171.30942708 -86.18328857 171.75042725 C-89.77142028 172.45606833 -93.36011164 173.15879039 -96.94926262 173.85922813 C-98.90640497 174.24172186 -100.86306961 174.62665736 -102.81971741 175.01167297 C-122.79554646 178.89558603 -142.08105045 181.2208768 -159.92797852 169.65161133 C-165.34560044 165.95873254 -170.51166883 161.94556846 -174.69140625 156.8671875 C-175.57054687 155.89007813 -176.4496875 154.91296875 -177.35546875 153.90625 C-180.83841161 148.94234004 -180.17689343 143.71195912 -180.06640625 137.8671875 C-180.15930869 127.02307539 -181.50032978 117.00700171 -183.94140625 106.4921875 C-184.22935059 105.22890625 -184.51729492 103.965625 -184.81396484 102.6640625 C-188.51412005 87.31125435 -188.51412005 87.31125435 -196.50390625 73.9296875 C-200.99567389 67.83932133 -200.62728984 62.1580226 -199.69140625 54.8671875 C-196.97822197 37.70928315 -189.70922158 21.88416493 -175.39453125 11.36328125 C-162.20243971 2.28424386 -147.94148451 -1.30145483 -132.50390625 -4.5703125 C-130.69400123 -4.96032522 -128.88410554 -5.3503812 -127.07421875 -5.74047852 C-115.4833321 -8.21741559 -103.86195453 -10.50158971 -92.19140625 -12.5703125 C-91.52227203 -12.68978241 -90.85313782 -12.80925232 -90.16372681 -12.93234253 C-58.69262179 -18.50471564 -26.78551001 -21.22625322 0 0 Z " fill="#4BAEAB" transform="translate(581.69140625,190.1328125)"/>
<path d="M0 0 C11.29011813 3.86149746 19.88266703 14.23664052 25.296875 24.43359375 C35.46342241 45.57932076 39.85399161 72.55582462 39.546875 95.87109375 C38.66386719 96.13921875 37.78085937 96.40734375 36.87109375 96.68359375 C21.24430111 101.78621992 11.62334603 110.13668115 3.796875 124.74609375 C1.03298062 130.55495652 -0.71921527 136.69101326 -2.453125 142.87109375 C-5.75695956 143.85521468 -8.17419279 144.01722507 -11.453125 142.87109375 C-14.13226623 139.5965878 -16.15426753 136.1423564 -18.27734375 132.49609375 C-23.98037028 122.71516427 -32.71044653 117.38531284 -43.140625 113.49609375 C-57.43343937 110.67282178 -69.91717064 113.52950871 -82.109375 121.24609375 C-88.58153663 125.73345915 -93.45447433 130.80231983 -98.10546875 137.1484375 C-98.55019531 137.71691406 -98.99492187 138.28539062 -99.453125 138.87109375 C-99.783125 138.87109375 -100.113125 138.87109375 -100.453125 138.87109375 C-100.51781982 138.11940918 -100.58251465 137.36772461 -100.64916992 136.59326172 C-102.16148483 119.41907615 -104.28857079 102.53272339 -107.26953125 85.55078125 C-107.56174561 83.87773926 -107.56174561 83.87773926 -107.85986328 82.17089844 C-108.25933796 79.9489644 -108.68003129 77.7307527 -109.12060547 75.51660156 C-109.32186035 74.46053711 -109.52311523 73.40447266 -109.73046875 72.31640625 C-109.91730225 71.38586426 -110.10413574 70.45532227 -110.29663086 69.49658203 C-110.4803986 66.41352698 -109.70738768 64.6605142 -108.453125 61.87109375 C-107.29194296 50.17826064 -108.86651606 39.24278715 -116.453125 29.87109375 C-118.38472559 28.09239031 -120.38543442 26.49885016 -122.453125 24.87109375 C-123.46992811 23.88818407 -124.48050719 22.89774588 -125.453125 21.87109375 C-119.69779039 19.95264888 -114.03528632 20.69464919 -108.203125 21.87109375 C-75.10868016 27.67201157 -35.52011505 19.11310651 -6.453125 2.87109375 C-5.44958984 2.00871094 -5.44958984 2.00871094 -4.42578125 1.12890625 C-2.453125 -0.12890625 -2.453125 -0.12890625 0 0 Z " fill="#4BAEAB" transform="translate(574.453125,369.12890625)"/>
<path d="M0 0 C8.18786141 0.56993937 15.99014442 2.19948242 23.96435547 4.03637695 C27.95759294 4.95556374 31.95549886 5.85403261 35.953125 6.75390625 C36.7819519 6.94087067 37.61077881 7.12783508 38.46472168 7.32046509 C47.29095838 9.30419992 56.14371753 11.15600722 65 13 C78.18935147 15.75025805 91.34835892 18.61459373 104.49398804 21.56637573 C116.12132656 24.17403745 127.77399447 26.62535041 139.4515686 28.99691772 C149.30978497 31.00169881 159.13147176 33.12572218 168.9375 35.375 C181.32396309 38.21534135 193.7447627 40.85592784 206.1875 43.4375 C220.11697883 46.32855268 234.02203079 49.30242357 247.90228271 52.42108154 C261.18454338 55.40307305 274.49430791 58.24571713 287.8125 61.0625 C304.62372885 64.62014219 321.39771036 68.30151013 338.15039062 72.12597656 C345.40761689 73.77367253 352.67258027 75.38662335 359.9375 77 C360.68699921 77.16657104 361.43649841 77.33314209 362.20870972 77.50476074 C370.50706699 79.34846658 378.80789965 81.18037396 387.11328125 82.9921875 C387.8462291 83.15213196 388.57917694 83.31207642 389.33433533 83.47686768 C392.80569856 84.23403372 396.2774157 84.98951432 399.74975586 85.7421875 C405.85925927 87.07136494 411.94675009 88.43345543 418 90 C418 90.33 418 90.66 418 91 C391.84878895 90.35518445 365.72059856 89.33065767 339.58660889 88.19366455 C335.57888192 88.01983757 331.57105947 87.84827678 327.56323051 87.6768198 C294.08633644 86.24425073 294.08633644 86.24425073 277.86962891 85.48022461 C251.33571216 84.23316824 224.79980657 83.2750681 198.25 82.4375 C191.33362158 82.21878246 184.41731578 81.99801497 177.50112152 81.77354622 C174.80282952 81.68679914 172.10445849 81.60297551 169.40606689 81.51939392 C161.98744766 81.28331399 154.58550611 81.00068941 147.17871094 80.50439453 C136.9407498 79.82725219 126.69211295 79.55316207 116.4375 79.24609375 C114.3080173 79.1804823 112.17854149 79.11464681 110.04907227 79.04859924 C104.49925259 78.87705797 98.94934584 78.70851921 93.39941406 78.54064941 C87.71413592 78.36813936 82.02894728 78.1927293 76.34375 78.01757812 C65.22925141 77.67557981 54.11465846 77.33675988 43 77 C42.57964478 76.21300217 42.15928955 75.42600433 41.72619629 74.61515808 C40.1343719 71.63605813 38.54165173 68.65744048 36.94836426 65.67912292 C36.26491116 64.40113088 35.58179396 63.12295912 34.89904785 61.84458923 C25.30296749 43.87840808 15.2443558 26.21541359 4.671875 8.8059082 C3.75728516 7.29710083 3.75728516 7.29710083 2.82421875 5.7578125 C2.27854248 4.8620752 1.73286621 3.96633789 1.1706543 3.04345703 C0 1 0 1 0 0 Z " fill="#4BAEAB" transform="translate(322,675)"/>
<path d="M0 0 C2.79666586 8.58338406 4.73036434 17.18503881 6.3125 26.0625 C6.49586914 27.061604 6.67923828 28.06070801 6.86816406 29.09008789 C7.03155273 30.04133545 7.19494141 30.99258301 7.36328125 31.97265625 C7.51063721 32.82093994 7.65799316 33.66922363 7.80981445 34.54321289 C8.15862336 39.04907178 6.86751213 42.44604122 4.9375 46.4375 C1.87303537 53.91971472 1.69206915 62.66897457 4 70.4375 C7.3471676 77.68969647 14.51599713 81.80516288 21.59765625 84.8046875 C42.38193356 92.10662649 67.02796453 96.68026846 88 88 C89.99622852 87.3221238 91.99534677 86.65254108 94 86 C94.4846875 86.49628906 94.969375 86.99257813 95.46875 87.50390625 C98.74352966 90.82276948 102.02523271 94.08528239 105.5625 97.125 C118.22944087 108.09655682 130.03633701 119.94058459 141.81201172 131.84887695 C148.18239236 138.31860251 148.18239236 138.31860251 154.91015625 144.41015625 C161.98250962 150.43652688 168.34397297 157.29299458 174.87304688 163.89355469 C183.68437523 172.81816303 183.68437523 172.81816303 192.9921875 181.21484375 C198.24177351 185.88227723 203.07723679 191.03072885 208.00927734 196.02978516 C209.49360246 197.53244123 210.98018829 199.03279094 212.46875 200.53125 C212.94570313 201.01142578 213.42265625 201.49160156 213.9140625 201.98632812 C217.25903894 205.32667163 220.71948274 208.47022318 224.36132812 211.48242188 C226.1793492 213.16609574 227.56970999 214.98191958 229 217 C223.69217152 215.41785882 218.92410489 213.11443821 214 210.625 C213.13060791 210.18800781 212.26121582 209.75101563 211.36547852 209.30078125 C202.94224245 205.03242718 194.6686058 200.50174594 186.39453125 195.953125 C181.32918531 193.17158189 176.23756539 190.44366601 171.125 187.75 C170.43784912 187.38648438 169.75069824 187.02296875 169.04272461 186.6484375 C158.78421611 181.26066072 148.3670761 176.17466521 137.98971558 171.02105713 C134.10813154 169.0925015 130.22803219 167.16096968 126.34814453 165.22900391 C124.37751468 164.24870536 122.40616789 163.26984662 120.43408203 162.29248047 C107.77890854 156.01866925 95.29366939 149.50926571 82.92041016 142.69628906 C76.83764516 139.3500208 70.68105443 136.16096658 64.5 133 C55.28910347 128.25782133 46.15513906 123.40081297 37.07958984 118.4050293 C30.47602223 114.77905495 23.81500147 111.27609046 17.125 107.8125 C7.96748266 103.07022804 -1.05933238 98.13861303 -10 93 C-9.94199219 92.20078125 -9.88398437 91.4015625 -9.82421875 90.578125 C-9.31820136 78.26021595 -12.98834533 69.50378748 -20.9609375 60.1875 C-25.77333163 54.74338459 -25.77333163 54.74338459 -32.0390625 51.43994141 C-34.70271296 50.68860742 -36.06049621 50.00584388 -38 48 C-39.35066405 42.62343977 -39.39816101 37.2706206 -39.5 31.75 C-39.55633272 30.22642658 -39.61618974 28.70297912 -39.6796875 27.1796875 C-39.82731433 23.45371467 -39.92652435 19.72825594 -40 16 C-38.85954224 15.59273682 -38.85954224 15.59273682 -37.69604492 15.17724609 C-34.18977988 13.91913292 -30.68868966 12.64716574 -27.1875 11.375 C-25.99189453 10.94832031 -24.79628906 10.52164063 -23.56445312 10.08203125 C-16.72601932 7.58516441 -10.39227469 4.79993083 -4.1027832 1.12353516 C-2 0 -2 0 0 0 Z " fill="#FCFCF8" transform="translate(616,543)"/>
<path d="M0 0 C3.85802175 3.71268531 3.60682891 8.54697482 4.09375 13.6953125 C4.27454102 15.25378906 4.27454102 15.25378906 4.45898438 16.84375 C5.20114316 23.64616537 5.42641743 30.3563138 5.28125 37.1953125 C4.48203125 37.34226562 3.6828125 37.48921875 2.859375 37.640625 C-5.7281611 39.39441758 -15.32865077 41.80521327 -21.71875 48.1953125 C-22.05208333 51.6953125 -22.05208333 51.6953125 -21.71875 55.1953125 C-19.88399252 57.41315692 -19.88399252 57.41315692 -17.21875 57.6328125 C-12.90581407 57.09369551 -9.86962308 55.45536928 -6.0859375 53.38671875 C0.41849629 50.11303508 8.08034245 50.2730171 14.96875 52.2578125 C22.3910219 56.59914134 30.96788677 63.57277682 33.28125 72.1953125 C33.83306648 76.53101343 33.61057767 78.60479392 31.46875 82.4453125 C26.3764977 87.780053 18.34247001 88.35358429 11.34375 88.6328125 C-5.32118977 88.19530811 -24.16401603 84.12691164 -36.59375 72.5078125 C-38.90920929 68.89842008 -39.59011758 66.96130283 -39.32836914 62.74829102 C-38.581728 59.6214883 -37.19310637 58.13501881 -35.16015625 55.66015625 C-29.35779317 46.85491921 -31.41793559 36.2719898 -32.08862305 26.20898438 C-33.03123353 10.8960362 -33.03123353 10.8960362 -29.61743164 6.47241211 C-27.03341363 4.6389977 -24.65379716 3.3692755 -21.71875 2.1953125 C-21.00074219 1.83937012 -20.28273438 1.48342773 -19.54296875 1.11669922 C-13.53542574 -1.8121445 -6.32045038 -1.87070801 0 0 Z " fill="#4AAEAB" transform="translate(558.71875,551.8046875)"/>
<path d="M0 0 C0.79956055 2.11376953 0.79956055 2.11376953 1.38671875 4.8828125 C1.7105957 6.38714844 1.7105957 6.38714844 2.04101562 7.921875 C2.36102539 9.50742187 2.36102539 9.50742187 2.6875 11.125 C2.91244141 12.15882813 3.13738281 13.19265625 3.36914062 14.2578125 C4.49069637 19.60309947 5.28620382 24.53892178 5 30 C3.99839844 30.37511719 2.99679687 30.75023437 1.96484375 31.13671875 C-8.24035032 34.82548487 -8.24035032 34.82548487 -17 41 C-18.22873769 44.02878466 -18.22873769 44.02878466 -18 47 C-17.34 47.99 -16.68 48.98 -16 50 C-10.25127828 50.93856681 -6.8405857 49.13862448 -2.11328125 46.19140625 C3.75434443 42.88341025 11.16617504 43.14418387 17.58984375 44.578125 C25.77916982 47.42433627 32.93947202 53.31623629 37.625 60.625 C39.19505028 64.47875978 39.61012782 66.88163724 39 71 C36.11802661 75.87718574 32.24888484 78.15877089 26.8125 79.56640625 C16.37284593 81.17585292 5.2490885 80.29476447 -5 78 C-5.63856934 77.86045898 -6.27713867 77.72091797 -6.93505859 77.57714844 C-25.87606882 73.38189059 -25.87606882 73.38189059 -32.0625 67.3125 C-34.34942289 63.40259958 -34.35701702 61.53225072 -33.59375 57.1875 C-32.68611183 53.8435699 -31.49180741 50.49180741 -29 48 C-27.75955134 35.27818936 -30.98622522 21.5111114 -33 9 C-23.12893959 1.84705768 -12.43925779 -4.14641926 0 0 Z " fill="#4AAEAB" transform="translate(666,541)"/>
<path d="M0 0 C3.80299462 1.17547106 4.49407907 1.73257876 6.4375 5.0625 C7.64565365 12.15744152 5.89284735 19.04079459 4.18359375 25.90234375 C3.49166847 28.8330639 2.94923879 31.70222418 2.5625 34.6875 C2.46195313 35.46351563 2.36140625 36.23953125 2.2578125 37.0390625 C2.27154344 39.1493043 2.27154344 39.1493043 3.7109375 40.828125 C5.55882269 42.38934954 5.55882269 42.38934954 8.9375 42.1875 C12.64268278 41.42062837 12.64268278 41.42062837 14.125 38.25 C14.59357074 36.86428776 15.0261741 35.46626919 15.4375 34.0625 C19.72840909 20.62613636 19.72840909 20.62613636 23.4375 15.0625 C26.29870256 13.63189872 28.27760585 13.67557419 31.4375 14.0625 C34.55461866 17.38742657 34.6521063 20.37141418 34.58447266 24.796875 C34.32526864 28.79257818 33.51965846 32.65208151 32.6875 36.5625 C32.50630615 37.43181152 32.3251123 38.30112305 32.13842773 39.19677734 C31.58386247 41.8215436 31.01345065 44.44235135 30.4375 47.0625 C30.1892749 48.21153809 30.1892749 48.21153809 29.93603516 49.38378906 C27.1549895 62.07851125 23.83637007 73.85187409 12.4453125 81.37890625 C4.58541406 85.51039132 -4.44035188 85.10455575 -12.875 82.9375 C-21.88879579 79.80163253 -29.3212365 72.82474623 -33.96875 64.5625 C-38.28095197 55.51739344 -42.71404444 45.23447588 -41.5625 35.0625 C-40.9025 34.4025 -40.2425 33.7425 -39.5625 33.0625 C-36.6875 33.0625 -36.6875 33.0625 -33.5625 34.0625 C-31.26888843 36.77313185 -29.91419439 39.18751839 -28.59375 42.47265625 C-25.7356751 49.24016932 -22.67533397 51.7772505 -15.98828125 54.80859375 C-13.5625 56.0625 -13.5625 56.0625 -11.5625 59.0625 C-11.3975 60.238125 -11.2325 61.41375 -11.0625 62.625 C-10.90402243 66.1196192 -10.90402243 66.1196192 -8.5625 68.0625 C-5.0625 68.39583333 -5.0625 68.39583333 -1.5625 68.0625 C0.65492557 66.27434272 0.65492557 66.27434272 0.625 63.8828125 C0.0605497 55.76883943 -2.24786016 46.88741555 -8.55859375 41.29296875 C-11.10652165 39.72845162 -13.70462606 38.90687185 -16.5625 38.0625 C-16.08621515 32.70429544 -14.59006413 28.25212563 -12.66796875 23.2421875 C-10.98478619 18.40080728 -9.85335317 13.4314167 -8.6875 8.4453125 C-7.00325444 3.38087966 -5.61824413 0.09856569 0 0 Z " fill="#4CB0AD" transform="translate(707.5625,188.9375)"/>
<path d="M0 0 C3.9061078 2.9045417 6.57202822 6.33062499 8.4375 10.8125 C10.0572626 22.02624109 6.67561466 29.8821613 0.24609375 38.87890625 C-1.28831993 40.91180965 -2.83517859 42.9353814 -4.39453125 44.94921875 C-10.42853278 52.9184496 -14.53544447 61.70164386 -18.5625 70.8125 C-19.23796875 70.60753906 -19.9134375 70.40257812 -20.609375 70.19140625 C-21.50140625 69.92199219 -22.3934375 69.65257812 -23.3125 69.375 C-24.19421875 69.10816406 -25.0759375 68.84132813 -25.984375 68.56640625 C-26.83515625 68.31761719 -27.6859375 68.06882812 -28.5625 67.8125 C-29.17287109 67.63396484 -29.78324219 67.45542969 -30.41210938 67.27148438 C-32.84866746 66.75141975 -35.05593991 66.69965512 -37.546875 66.71484375 C-38.48144531 66.71806641 -39.41601562 66.72128906 -40.37890625 66.72460938 C-41.34699219 66.73298828 -42.31507813 66.74136719 -43.3125 66.75 C-44.29605469 66.75451172 -45.27960938 66.75902344 -46.29296875 66.76367188 C-48.71620791 66.77543517 -51.13932273 66.79187316 -53.5625 66.8125 C-51.09075169 53.20330423 -45.77034784 40.99880929 -40.125 28.4375 C-39.68293213 27.43960449 -39.24086426 26.44170898 -38.78540039 25.41357422 C-31.23358292 8.91069244 -20.26932331 -6.7564411 0 0 Z " fill="#4BAEAC" transform="translate(442.5625,404.1875)"/>
<path d="M0 0 C2.52517406 2.21290062 4.9306514 4.49729234 7.30859375 6.8671875 C8.37400391 7.89779297 8.37400391 7.89779297 9.4609375 8.94921875 C21.83287435 21.74859296 24.78930695 38.04003874 28.30859375 54.8671875 C28.65476623 56.50700269 29.00095877 58.14681365 29.34716797 59.78662109 C30.47820694 65.16381562 31.58402084 70.54598292 32.68359375 75.9296875 C32.86493866 76.80921082 33.04628357 77.68873413 33.23312378 78.59490967 C33.75384926 81.1332426 34.26335183 83.67357484 34.76953125 86.21484375 C34.92546249 86.96920212 35.08139374 87.72356049 35.24205017 88.5007782 C38.27606428 103.99841697 34.76753681 119.66087843 26.30859375 132.8671875 C24.69245157 134.58289144 23.03791965 136.26562967 21.30859375 137.8671875 C22.29549244 135.38660431 23.28485997 132.92002548 24.37890625 130.484375 C32.24780326 110.02524277 26.75252554 86.27252537 22.14648438 65.68310547 C21.32734862 61.95260087 20.58167847 58.21442658 19.85546875 54.46484375 C16.6203935 38.17126068 12.76838536 22.68389309 0.30859375 10.8671875 C-0.32175781 10.20589844 -0.95210937 9.54460937 -1.6015625 8.86328125 C-14.54746977 -3.88904236 -32.54558335 -7.73063589 -50.12890625 -7.6953125 C-50.81058868 -7.6948291 -51.49227112 -7.6943457 -52.1946106 -7.69384766 C-69.14974345 -7.61206931 -85.54570303 -4.77064727 -102.15753174 -1.61114502 C-104.79849574 -1.11259667 -107.44155649 -0.62680789 -110.08544922 -0.14404297 C-115.58290676 0.86069779 -121.07525894 1.89108039 -126.56640625 2.9296875 C-127.42031952 3.08904785 -128.27423279 3.2484082 -129.15402222 3.41259766 C-149.7217832 7.27995904 -167.44203415 12.67257078 -182.69140625 27.8671875 C-183.25472656 28.40730469 -183.81804687 28.94742188 -184.3984375 29.50390625 C-190.88312627 36.29657496 -194.94450008 46.02053381 -197.69140625 54.8671875 C-198.02140625 54.8671875 -198.35140625 54.8671875 -198.69140625 54.8671875 C-197.94138734 40.36682189 -191.60299595 25.59391304 -180.8828125 15.6171875 C-166.23090085 3.91655217 -150.51982699 -0.75549908 -132.50390625 -4.5703125 C-130.69400123 -4.96032522 -128.88410554 -5.3503812 -127.07421875 -5.74047852 C-115.4833321 -8.21741559 -103.86195453 -10.50158971 -92.19140625 -12.5703125 C-91.52227203 -12.68978241 -90.85313782 -12.80925232 -90.16372681 -12.93234253 C-58.69262179 -18.50471564 -26.78551001 -21.22625322 0 0 Z " fill="#F5F8F5" transform="translate(581.69140625,190.1328125)"/>
<path d="M0 0 C10.61697498 7.60788582 17.33782753 19.57949524 20.25 32.25 C20.25 33.57 20.25 34.89 20.25 36.25 C19.30640625 36.26417969 18.3628125 36.27835938 17.390625 36.29296875 C5.82960412 36.72244443 -3.21474738 39.47495208 -12.75 46.25 C-13.41 46.25 -14.07 46.25 -14.75 46.25 C-14.96914063 45.3321875 -15.18828125 44.414375 -15.4140625 43.46875 C-17.93746439 32.63282626 -17.93746439 32.63282626 -24.75 24.25 C-29.15096502 23.02146206 -32.50703211 23.64232681 -36.5625 25.625 C-39.23194079 28.82832895 -40.42439762 31.98661248 -41.7578125 35.91015625 C-42.79740143 38.36178527 -43.60840813 39.67637288 -45.75 41.25 C-52.08333333 40.91666667 -52.08333333 40.91666667 -54.75 38.25 C-56.34660995 25.81129458 -52.64087282 14.90574943 -45.734375 4.6640625 C-42.60278119 0.85436767 -39.1128192 -1.51927157 -34.75 -3.75 C-34.10160156 -4.08773438 -33.45320312 -4.42546875 -32.78515625 -4.7734375 C-21.55916256 -9.77807273 -9.95168861 -6.17342039 0 0 Z " fill="#4AAEAB" transform="translate(641.75,490.75)"/>
<path d="M0 0 C5.56206294 1.81730769 5.56206294 1.81730769 7.95703125 2.81640625 C15.62831416 5.90106948 23.84513057 5.72848311 32 6 C30.93091228 17.49269298 26.37538259 28.15562439 21.375 38.4375 C20.84648438 39.52716064 20.31796875 40.61682129 19.7734375 41.73950195 C15.58349275 50.18674785 11.00733674 57.72634647 5 65 C4.24058105 65.93005859 4.24058105 65.93005859 3.46582031 66.87890625 C-6.45081144 78.94924085 -6.45081144 78.94924085 -11 82 C-11.21914063 81.23816406 -11.43828125 80.47632813 -11.6640625 79.69140625 C-14.92968936 69.05820658 -19.21324755 61.85366691 -28 55 C-26.61785822 50.98964043 -24.74783465 48.26319147 -22.0625 45 C-11.82593553 31.57689207 -4.98397059 16.04544117 0 0 Z " fill="#4BAFAC" transform="translate(681,281)"/>
<path d="M0 0 C12.29284346 8.30285863 17.12217539 21.9895381 20 36 C19.1028125 36.0515625 18.205625 36.103125 17.28125 36.15625 C7.68317901 37.02880191 0.59314094 39.69156367 -7.83203125 44.3203125 C-11 46 -11 46 -13 46 C-13.24234375 45.20335937 -13.4846875 44.40671875 -13.734375 43.5859375 C-16.50924422 34.55302341 -16.50924422 34.55302341 -22 27 C-25.41600593 26.58307147 -25.41600593 26.58307147 -29 27 C-31.94980446 29.97097531 -32.6547148 32.9748324 -33.5 37 C-34.34937063 41.04462206 -35.09461239 43.97325713 -38 47 C-41.50817286 47.59713581 -43.28935606 47.41142544 -46.375 45.625 C-49.48301173 40.60436567 -48.50903931 35.43375009 -47.33984375 29.84375 C-44.41140618 19.19488612 -39.37540713 9.2630011 -30 3 C-28.94232422 2.27296875 -28.94232422 2.27296875 -27.86328125 1.53125 C-19.58944005 -3.39202741 -8.75493218 -4.39991463 0 0 Z " fill="#4AAEAC" transform="translate(535,501)"/>
<path d="M0 0 C2.62055708 1.59126378 4.84097713 3.50987388 7.08203125 5.59375 C8.84745539 7.24937775 8.84745539 7.24937775 11.73046875 8.80078125 C18.22758843 13.67362101 22.69830876 21.59672128 25.73046875 29.05078125 C25.48046875 32.05078125 25.48046875 32.05078125 24.73046875 34.05078125 C22.453125 33.87890625 22.453125 33.87890625 19.73046875 33.05078125 C17.8515625 30.72265625 17.8515625 30.72265625 16.16796875 27.80078125 C13.92423751 23.96622902 11.77574008 20.30810242 8.73046875 17.05078125 C5.0624706 16.63306321 5.0624706 16.63306321 1.73046875 17.05078125 C0.76646337 24.21196408 3.1494933 28.14120206 7.00390625 34.12109375 C9.87981522 39.00102979 11.23478548 43.37721808 10.73046875 49.05078125 C10.07046875 50.04078125 9.41046875 51.03078125 8.73046875 52.05078125 C6.10546875 52.23828125 6.10546875 52.23828125 3.73046875 52.05078125 C3.52292969 51.5403125 3.31539063 51.02984375 3.1015625 50.50390625 C-0.78611464 41.32963886 -5.50649076 32.4286436 -12.26953125 25.05078125 C-13.91953125 25.38078125 -15.56953125 25.71078125 -17.26953125 26.05078125 C-18.28980891 29.80114253 -18.49191739 31.55693493 -16.87109375 35.15625 C-16.21882813 36.17332031 -15.5665625 37.19039062 -14.89453125 38.23828125 C-11.29925958 43.93198838 -10.14143129 47.26148328 -10.26953125 54.05078125 C-16.00002714 54.78233392 -19.3891556 53.5271629 -24.05859375 50.140625 C-32.41647373 42.24050877 -36.2110132 30.61669083 -36.70703125 19.36328125 C-36.49712157 13.22342297 -34.84053938 8.78628516 -30.62109375 4.296875 C-22.36045568 -3.18820098 -10.27378727 -4.62210899 0 0 Z " fill="#4BAFAD" transform="translate(419.26953125,558.94921875)"/>
<path d="M0 0 C1.2365332 -0.0299707 1.2365332 -0.0299707 2.49804688 -0.06054688 C8.52486329 -0.05572928 12.08492694 1.08492694 16.4375 5.4375 C16.51407772 8.55689343 16.52804856 11.65443128 16.5 14.7734375 C16.49621338 15.72256012 16.49242676 16.67168274 16.48852539 17.64956665 C16.47217735 21.72102116 16.44435633 25.79237636 16.41699219 29.86376953 C16.39871598 32.83365398 16.38673054 35.80352105 16.375 38.7734375 C16.36670166 39.6759726 16.35840332 40.57850769 16.34985352 41.50839233 C16.32589303 47.86880506 16.76337474 54.11396567 17.4375 60.4375 C16.550625 60.2725 15.66375 60.1075 14.75 59.9375 C6.48525142 58.77605875 -1.64359021 58.74170092 -9.5625 61.4375 C-10.8825 61.4375 -12.2025 61.4375 -13.5625 61.4375 C-15.04324507 55.91892489 -16.09324241 50.55556514 -16.6875 44.875 C-16.77169189 44.07215576 -16.85588379 43.26931152 -16.94262695 42.44213867 C-17.57639369 35.71085531 -17.74456031 29.00881346 -17.75 22.25 C-17.75080566 21.29472412 -17.75161133 20.33944824 -17.75244141 19.35522461 C-17.73150582 16.71292129 -17.65487323 14.07813589 -17.5625 11.4375 C-17.56588379 10.66325684 -17.56926758 9.88901367 -17.57275391 9.09130859 C-17.48828125 6.94921875 -17.48828125 6.94921875 -16.5625 3.4375 C-11.36369401 -0.02152111 -6.10954408 -0.0527926 0 0 Z " fill="#4AAEAB" transform="translate(401.5625,483.5625)"/>
<path d="M0 0 C6.716044 2.62089522 11.19366142 7.46585929 14.4375 13.8125 C15.51356584 19.91020642 16.35184807 26.54180657 13 32 C11.19091797 33.42871094 11.19091797 33.42871094 8.9921875 34.734375 C8.17717773 35.22260742 7.36216797 35.71083984 6.52246094 36.21386719 C5.64879883 36.72079102 4.77513672 37.22771484 3.875 37.75 C2.54130371 38.53745605 2.54130371 38.53745605 1.18066406 39.34082031 C-6.69763832 43.93954377 -14.76233482 48.08825955 -23 52 C-26.4958723 47.80929594 -28.56169211 42.9229168 -30.86328125 38.01953125 C-32.54313003 34.54871528 -34.23316711 31.54748416 -36.7578125 28.6171875 C-39 26 -39 26 -39 24 C-38.030625 23.53851563 -37.06125 23.07703125 -36.0625 22.6015625 C-28.64703965 19.01563441 -21.43557163 15.22636505 -14.4375 10.875 C-13.79619141 10.48006348 -13.15488281 10.08512695 -12.49414062 9.67822266 C-7.9823297 6.82129129 -3.96956216 3.56733965 0 0 Z " fill="#4BAFAD" transform="translate(641,346)"/>
<path d="M0 0 C3.1875 0.3125 3.1875 0.3125 5.5625 1.75 C8.01699927 5.62055655 7.99834088 8.85646295 7.1875 13.3125 C3.63141608 22.83362791 -4.0261461 31.15833172 -12.85546875 36.02734375 C-26.68452148 42.03759256 -41.50379458 43.54412042 -55.8125 38.3125 C-63.90926465 35.02318936 -70.28549868 30.49514306 -73.8125 22.3125 C-73.75 18.5 -73.75 18.5 -72.8125 15.3125 C-69.28981037 12.96404025 -67.96121783 12.82985213 -63.8125 13.3125 C-61.03125 14.9921875 -61.03125 14.9921875 -58.3125 17.1875 C-51.94790089 22.29015273 -46.66962905 23.70561851 -38.5625 23.6875 C-37.43751099 23.68508301 -37.43751099 23.68508301 -36.28979492 23.68261719 C-30.13876936 23.54721099 -25.21584466 22.34595665 -19.8125 19.3125 C-18.74 18.735 -17.6675 18.1575 -16.5625 17.5625 C-11.16046136 13.1426502 -7.6202621 7.09465727 -3.8125 1.3125 C-2.8125 0.3125 -2.8125 0.3125 0 0 Z " fill="#01232B" transform="translate(542.8125,284.6875)"/>
<path d="M0 0 C1.49688023 2.7317873 2.31316987 5.01299328 2.7109375 8.09765625 C2.81881592 8.88946289 2.92669434 9.68126953 3.0378418 10.49707031 C3.149104 11.34366211 3.26036621 12.19025391 3.375 13.0625 C7.98833938 45.17642778 7.98833938 45.17642778 27.53955078 70.20605469 C43.05605772 81.70010328 60.10169483 85.04248587 79 86 C80.10126119 93.0205401 80.07922863 99.904983 80 107 C72.63763692 103.3271101 65.27628332 99.65267459 57.93856812 95.9307251 C54.52393532 94.19907721 51.1059738 92.47405002 47.6875 90.75 C46.96530273 90.38515503 46.24310547 90.02031006 45.49902344 89.64440918 C37.69859614 85.71210733 29.88504039 81.86902678 21.86328125 78.40625 C21.23177658 78.13282776 20.60027191 77.85940552 19.94963074 77.57769775 C16.99386198 76.30421129 14.02972318 75.05820239 11.04956055 73.84277344 C9.49362183 73.18583496 9.49362183 73.18583496 7.90625 72.515625 C6.54983398 71.96310059 6.54983398 71.96310059 5.16601562 71.39941406 C1.69568001 69.15730814 1.29947375 66.29694036 0.40576172 62.42651367 C-3.19809035 41.54450111 -5.58244428 20.73479305 0 0 Z " fill="#F8F9F6" transform="translate(435,486)"/>
<path d="M0 0 C5.90152577 3.69498184 11.09020322 8.80983849 13.4375 15.4375 C14.04805853 21.44132555 14.04805853 21.44132555 12.25 24.375 C9.59078668 25.93384919 8.48179255 26.14547501 5.4375 25.4375 C3.82894675 23.80666762 2.45148828 22.04894613 1.01953125 20.26171875 C-2.1964762 16.55338423 -5.36963804 14.7475694 -10.2421875 14.05859375 C-14.77990351 13.86798508 -17.85802261 14.10447433 -22 16.0625 C-26.89681806 20.6010143 -29.06798823 25.30775961 -30.94921875 31.58203125 C-31.5625 33.4375 -31.5625 33.4375 -32.5625 34.4375 C-37.84941275 34.89723154 -37.84941275 34.89723154 -40.22265625 33.3671875 C-43.41947525 28.76302252 -42.22045975 21.77793993 -41.5625 16.4375 C-38.91243842 9.39074535 -32.90279118 4.25224186 -26.5625 0.4375 C-19.0620297 -2.70345325 -7.56295003 -3.46201838 0 0 Z " fill="#01232B" transform="translate(465.5625,251.5625)"/>
<path d="M0 0 C5.76990302 3.56341659 10.83512547 8.08674725 13.91015625 14.1796875 C14.56615965 17.6912351 14.59038461 21.03403974 12.72265625 24.1796875 C10.24707816 25.54552369 8.71158585 25.50020768 5.91015625 25.1796875 C3.91796875 23.53515625 3.91796875 23.53515625 2.03515625 21.3671875 C-2.3551535 16.7045465 -5.70143958 14.66374524 -12.15234375 13.7421875 C-17.47793127 14.53536011 -20.71128667 17.41519588 -23.83984375 21.6171875 C-25.68108922 24.3584667 -26.93819437 27.079093 -28.08984375 30.1796875 C-30.08984375 32.1796875 -30.08984375 32.1796875 -33.02734375 32.5546875 C-36.08984375 32.1796875 -36.08984375 32.1796875 -37.96484375 30.6796875 C-40.15767191 25.80673602 -39.79517265 22.12515513 -38.0234375 17.23828125 C-34.85675071 10.34405033 -31.31790529 5.51776703 -25.08984375 1.1796875 C-24.20296875 0.5403125 -23.31609375 -0.0990625 -22.40234375 -0.7578125 C-15.40729417 -3.00150765 -6.79978133 -3.03174964 0 0 Z " fill="#01232B" transform="translate(567.08984375,230.8203125)"/>
<path d="M0 0 C5.21050737 4.42600401 7.26972458 10.6041605 9 17 C9.2784375 17.79019531 9.556875 18.58039063 9.84375 19.39453125 C13.03425972 29.48304114 14.94275031 46.85497822 11 57 C7.71480525 58.09506492 5.26336585 58.09960608 1.8125 58.0625 C0.18248047 58.04896484 0.18248047 58.04896484 -1.48046875 58.03515625 C-2.31191406 58.02355469 -3.14335937 58.01195312 -4 58 C-5.0769298 54.7692106 -4.94012652 54.12044984 -4.0625 51 C-0.63934314 36.48675276 -4.9262955 23.69214166 -12 11 C-12.86625 9.68322266 -12.86625 9.68322266 -13.75 8.33984375 C-14.1625 7.56769531 -14.575 6.79554688 -15 6 C-14 3 -14 3 -11.4375 1.3125 C-7.4305407 -0.21742991 -4.19908572 -1.29073693 0 0 Z " fill="#4CB1AE" transform="translate(370,277)"/>
<path d="M0 0 C11.31974769 3.50776613 20.01841139 14.31208669 25.359375 24.37109375 C35.52592241 45.51682076 39.91649161 72.49332462 39.609375 95.80859375 C36.969375 96.13859375 34.329375 96.46859375 31.609375 96.80859375 C31.50447754 95.709104 31.50447754 95.709104 31.39746094 94.58740234 C28.01585829 48.58605444 28.01585829 48.58605444 4.203125 10.703125 C1.09156138 8.25327377 -2.09595481 6.00504055 -5.390625 3.80859375 C-5.390625 3.14859375 -5.390625 2.48859375 -5.390625 1.80859375 C-2.390625 -0.19140625 -2.390625 -0.19140625 0 0 Z " fill="#F6F9F5" transform="translate(574.390625,369.19140625)"/>
<path d="M0 0 C2.941381 2.46115553 4.57817389 4.21508291 5.47265625 8 C5.76922957 12.01514651 5.14633646 13.81900491 2.625 16.9375 C-1.04373804 19.82007989 -3.24421433 20.33584805 -7.9609375 20.29296875 C-11.13134567 19.83745033 -12.8192402 18.24684343 -15 16 C-16.73631636 12.52736727 -16.60190402 8.78806987 -16 5 C-11.23410048 -1.02008361 -7.23925893 -1.99703695 0 0 Z " fill="#4DB2AF" transform="translate(472,95)"/>
<path d="M0 0 C0 7.92 0 15.84 0 24 C-4.27541598 22.28983361 -8.15101829 20.34231056 -12.125 18.0625 C-12.74503906 17.71509766 -13.36507813 17.36769531 -14.00390625 17.00976562 C-17.06153337 15.26395917 -19.58742367 13.55244238 -22 11 C-18.7121022 9.15984502 -15.41908674 7.32904953 -12.125 5.5 C-11.18785156 4.97535156 -10.25070312 4.45070313 -9.28515625 3.91015625 C-8.38925781 3.41386719 -7.49335938 2.91757812 -6.5703125 2.40625 C-5.74289551 1.94541016 -4.91547852 1.48457031 -4.06298828 1.00976562 C-2 0 -2 0 0 0 Z " fill="#F4F6F3" transform="translate(370,500)"/>
<path d="M0 0 C2.9375 0.8125 2.9375 0.8125 4.9375 3.8125 C4.7300099 6.57903462 4.23471306 8.34321623 2.75 10.6875 C0.9375 11.8125 0.9375 11.8125 -2.125 11.6875 C-5.0625 10.8125 -5.0625 10.8125 -7.0625 7.8125 C-6.875 4.75 -6.875 4.75 -6.0625 1.8125 C-3.0625 -0.1875 -3.0625 -0.1875 0 0 Z " fill="#0E282D" transform="translate(288.0625,431.1875)"/>
<path d="M0 0 C1.875 1.0625 1.875 1.0625 3 3 C2.875 6.5625 2.875 6.5625 2 10 C-1 12 -1 12 -3.5 11.875 C-6.57921269 10.79727556 -7.54512924 9.90974151 -9 7 C-8.875 4.375 -8.875 4.375 -8 2 C-4.76746204 -0.15502531 -3.74849077 -0.46856135 0 0 Z " fill="#0B252A" transform="translate(208,476)"/>
<path d="M0 0 C2.9375 0.8125 2.9375 0.8125 4.9375 3.8125 C4.75 6.875 4.75 6.875 3.9375 9.8125 C0.9375 11.8125 0.9375 11.8125 -1.5625 11.625 C-4.31637823 10.72998958 -5.53136237 10.27933286 -7.0625 7.8125 C-6.9375 4.75 -6.9375 4.75 -6.0625 1.8125 C-3.0625 -0.1875 -3.0625 -0.1875 0 0 Z " fill="#09232A" transform="translate(253.0625,417.1875)"/>
<path d="M0 0 C3.0625 0.3125 3.0625 0.3125 4.9375 1.5 C6.46909584 3.96757108 6.49072025 5.45769831 6.0625 8.3125 C4.9375 10.125 4.9375 10.125 3.0625 11.3125 C0.0625 11.75 0.0625 11.75 -2.9375 11.3125 C-4.875 9.625 -4.875 9.625 -5.9375 7.3125 C-5.61764525 2.8345335 -4.76027546 0.50641228 0 0 Z " fill="#082128" transform="translate(181.9375,545.6875)"/>
<path d="M0 0 C2 3 2 3 1.75 5.5625 C1 8 1 8 -1 10 C-4.5 10.3125 -4.5 10.3125 -8 10 C-10.15502531 6.76746204 -10.46856135 5.74849077 -10 2 C-7.59684073 -2.24086929 -4.21511384 -1.07293807 0 0 Z " fill="#072127" transform="translate(267,501)"/>
<path d="M0 0 C2 2 2 2 2.3125 4.9375 C2 8 2 8 0.875 9.9375 C-1 11 -1 11 -4.0625 10.8125 C-7 10 -7 10 -9 8 C-9.375 5.0625 -9.375 5.0625 -9 2 C-6.12524616 -1.3006433 -4.03854228 -1.38160657 0 0 Z " fill="#082127" transform="translate(227,485)"/>
<path d="M0 0 C3.0625 0.3125 3.0625 0.3125 4.9375 1.5 C6.46909584 3.96757108 6.49072025 5.45769831 6.0625 8.3125 C4.9375 10.125 4.9375 10.125 3.0625 11.3125 C0.0625 11.75 0.0625 11.75 -2.9375 11.3125 C-4.875 9.625 -4.875 9.625 -5.9375 7.3125 C-5.61764525 2.8345335 -4.76027546 0.50641228 0 0 Z " fill="#072127" transform="translate(165.9375,460.6875)"/>
<path d="M0 0 C3.625 0.3125 3.625 0.3125 5.625 2 C6.89596428 4.9391049 6.72443143 6.32832898 5.625 9.3125 C2.39246204 11.46752531 1.37349077 11.78106135 -2.375 11.3125 C-4.25 10.25 -4.25 10.25 -5.375 8.3125 C-4.83258355 0.44746144 -4.83258355 0.44746144 0 0 Z " fill="#08262E" transform="translate(320.375,445.6875)"/>
<path d="M0 0 C2 2 2 2 2.3125 4.9375 C2 8 2 8 0.8125 9.875 C-1.65507108 11.40659584 -3.14519831 11.42822025 -6 11 C-7.8125 9.875 -7.8125 9.875 -9 8 C-9.4375 5 -9.4375 5 -9 2 C-6.12524616 -1.3006433 -4.03854228 -1.38160657 0 0 Z " fill="#082127" transform="translate(273,425)"/>
<path d="M0 0 C2 2 2 2 2.3125 4.9375 C2 8 2 8 0.8125 9.875 C-1.65507108 11.40659584 -3.14519831 11.42822025 -6 11 C-7.8125 9.875 -7.8125 9.875 -9 8 C-9.4375 5 -9.4375 5 -9 2 C-6.12524616 -1.3006433 -4.03854228 -1.38160657 0 0 Z " fill="#072025" transform="translate(167,538)"/>
<path d="M0 0 C1.9375 1.6875 1.9375 1.6875 3 4 C2.75925978 7.37036311 2.41201979 8.58798021 0 11 C-3.13704316 11.333728 -5.16554166 11.52849028 -7.875 9.8125 C-9.40659584 7.34492892 -9.42822025 5.85480169 -9 3 C-6.74280427 -0.63659311 -4.02330328 -0.58673173 0 0 Z " fill="#072026" transform="translate(246,492)"/>
<path d="M0 0 C2.9375 0.875 2.9375 0.875 4.9375 3.875 C5.29590349 6.74222793 5.34871458 8.24735669 3.75 10.6875 C1.28842224 12.30025784 -0.17315736 12.3084014 -3.0625 11.875 C-4.875 10.75 -4.875 10.75 -6.0625 8.875 C-6.45954314 5.69865485 -6.56183741 3.73496999 -4.9375 0.9375 C-3.0625 -0.125 -3.0625 -0.125 0 0 Z " fill="#082127" transform="translate(148.0625,453.125)"/>
<path d="M0 0 C2 2 2 2 2.3125 4.9375 C2 8 2 8 0.8125 9.875 C-1.65507108 11.40659584 -3.14519831 11.42822025 -6 11 C-7.8125 9.875 -7.8125 9.875 -9 8 C-9.4375 5 -9.4375 5 -9 2 C-6.12524616 -1.3006433 -4.03854228 -1.38160657 0 0 Z " fill="#061F25" transform="translate(308,439)"/>
<path d="M0 0 C2 2 2 2 2.3125 4.9375 C2 8 2 8 0.8125 9.875 C-1.65507108 11.40659584 -3.14519831 11.42822025 -6 11 C-7.8125 9.875 -7.8125 9.875 -9 8 C-9.4375 5 -9.4375 5 -9 2 C-6.12524616 -1.3006433 -4.03854228 -1.38160657 0 0 Z " fill="#061F25" transform="translate(238,411)"/>
<path d="M0 0 C2 2 2 2 2.3125 4.9375 C2 8 2 8 0.875 9.9375 C-1 11 -1 11 -4.0625 10.875 C-7 10 -7 10 -9 7 C-9.375 4.5 -9.375 4.5 -9 2 C-6.07557433 -1.24936186 -4.04996841 -1.38551551 0 0 Z " fill="#012229" transform="translate(221,404)"/>
<path d="M0 0 C2 2 2 2 2.25 5.5 C2 9 2 9 0 11 C-3.09771665 11.32954432 -5.17331023 11.45334601 -7.9375 9.9375 C-9.64787795 6.81857551 -8.80513863 4.34442199 -8 1 C-5.23749964 -0.38125018 -3.05268901 -0.19079306 0 0 Z " fill="#051C21" transform="translate(149,530)"/>
<path d="M0 0 C3.5625 0.1875 3.5625 0.1875 5.5625 2.1875 C5.875 5.6875 5.875 5.6875 5.5625 9.1875 C2.32996204 11.34252531 1.31099077 11.65606135 -2.4375 11.1875 C-4.3125 10.125 -4.3125 10.125 -5.4375 8.1875 C-4.89124449 0.26679515 -4.89124449 0.26679515 0 0 Z " fill="#051E24" transform="translate(127.4375,521.8125)"/>
<path d="M0 0 C1.875 1.0625 1.875 1.0625 3 3 C2.55555556 9.44444444 2.55555556 9.44444444 1 11 C-2.4375 11.1875 -2.4375 11.1875 -6 11 C-8 9 -8 9 -8.3125 5.5 C-8.209375 4.345 -8.10625 3.19 -8 2 C-4.76746204 -0.15502531 -3.74849077 -0.46856135 0 0 Z " fill="#051F25" transform="translate(204,397)"/>
<path d="M0 0 C1 1 1 1 1.1875 4.4375 C1 8 1 8 -1 10 C-4.13704316 10.333728 -6.16554166 10.52849028 -8.875 8.8125 C-10.40659584 6.34492892 -10.42822025 4.85480169 -10 2 C-7.59027568 -2.25245468 -4.23782457 -0.94173879 0 0 Z " fill="#051F25" transform="translate(189,469)"/>
<path d="M0 0 C2 2 2 2 2.3125 5.5 C2.1578125 7.2325 2.1578125 7.2325 2 9 C-1.23253796 11.15502531 -2.25150923 11.46856135 -6 11 C-7.875 9.9375 -7.875 9.9375 -9 8 C-8.8125 4.375 -8.8125 4.375 -8 1 C-5.23749964 -0.38125018 -3.05268901 -0.19079306 0 0 Z " fill="#061F25" transform="translate(342,453)"/>
<path d="M0 0 C1.8125 1.125 1.8125 1.125 3 3 C3.3125 6.0625 3.3125 6.0625 3 9 C1 11 1 11 -2.5 11.25 C-6 11 -6 11 -8 9 C-8.333728 5.86295684 -8.52849028 3.83445834 -6.8125 1.125 C-4.34492892 -0.40659584 -2.85480169 -0.42822025 0 0 Z " fill="#041E24" transform="translate(131,445)"/>
<path d="M0 0 C6.4188547 1.73624758 12.13784836 3.85180745 18 7 C15.39579982 8.30210009 14.25729641 7.8132328 11.4296875 7.22265625 C10.53378906 7.03896484 9.63789062 6.85527344 8.71484375 6.66601562 C7.77769531 6.46685547 6.84054687 6.26769531 5.875 6.0625 C4.93011719 5.86720703 3.98523438 5.67191406 3.01171875 5.47070312 C0.67316334 4.9864568 -1.66391088 4.49598428 -4 4 C-2.68 2.68 -1.36 1.36 0 0 Z " fill="#E7EDEB" transform="translate(824,762)"/>
<path d="M0 0 C0.66 0 1.32 0 2 0 C3.02809378 3.23879255 3.12150159 4.69189187 1.85546875 7.90234375 C1.30503906 8.90394531 0.75460937 9.90554687 0.1875 10.9375 C-1.96709669 14.90380032 -3.67957633 18.67802788 -5 23 C-5.33 23 -5.66 23 -6 23 C-5.57200914 14.72550999 -2.95555804 7.66700112 0 0 Z " fill="#EBF3F2" transform="translate(389,222)"/>
<path d="M0 0 C5.1683484 0.51683484 10.30279267 1.15088018 15.4375 1.9375 C16.44683594 2.09089844 17.45617187 2.24429688 18.49609375 2.40234375 C21 3 21 3 23 5 C16.4 4.67 9.8 4.34 3 4 C3 3.01 3 2.02 3 1 C2.01 0.67 1.02 0.34 0 0 Z " fill="#53B8B6" transform="translate(717,761)"/>
<path d="M0 0 C-0.33 0.99 -0.66 1.98 -1 3 C-3.31 3.33 -5.62 3.66 -8 4 C-7.34 5.32 -6.68 6.64 -6 8 C-3.69 8 -1.38 8 1 8 C0.01 9.485 0.01 9.485 -1 11 C-3.875 10.6875 -3.875 10.6875 -7 10 C-9.14762184 6.77856724 -9.561068 5.7404533 -9 2 C-6.04897468 -1.27891703 -4.09533092 -1.25135112 0 0 Z " fill="#0D1D22" transform="translate(221,404)"/>
<path d="M0 0 C1.51723189 3.91791526 0.4160387 6.61798017 -0.875 10.5 C-2.32639304 14.82160135 -2.32639304 14.82160135 -3.5078125 19.21875 C-4 21 -4 21 -6 24 C-6.66 23.67 -7.32 23.34 -8 23 C-7.59007812 21.84242188 -7.18015625 20.68484375 -6.7578125 19.4921875 C-6.21351344 17.95313498 -5.66924418 16.41407192 -5.125 14.875 C-4.85558594 14.11445313 -4.58617187 13.35390625 -4.30859375 12.5703125 C-2.83208351 8.39286889 -1.38505036 4.20893943 0 0 Z " fill="#0D1A1F" transform="translate(670,270)"/>
<path d="M0 0 C0.66 0.33 1.32 0.66 2 1 C1.01 1.66 0.02 2.32 -1 3 C-0.01 3.66 0.98 4.32 2 5 C-4.93 6.485 -4.93 6.485 -12 8 C-7.44569288 3.44569288 -7.44569288 3.44569288 -3.875 1.6875 C-2.85019531 1.16736328 -2.85019531 1.16736328 -1.8046875 0.63671875 C-1.20914063 0.42660156 -0.61359375 0.21648437 0 0 Z " fill="#EBF0EF" transform="translate(597,352)"/>
<path d="M0 0 C-0.99 0.495 -0.99 0.495 -2 1 C-1.45773019 4.79588866 0.20127563 6.47211993 3 9 C2.67 9.66 2.34 10.32 2 11 C0.72799029 9.89718873 -0.54255853 8.79269231 -1.8125 7.6875 C-2.52019531 7.07261719 -3.22789062 6.45773437 -3.95703125 5.82421875 C-5.70136739 4.26665665 -7.36778041 2.67341125 -9 1 C-5.8035914 -0.06546953 -3.34252724 -0.07427838 0 0 Z " fill="#56C3BF" transform="translate(458,390)"/>
<path d="M0 0 C1.90608098 3.21182149 2.22266247 5.53882603 2.125 9.25 C2.10695313 10.14203125 2.08890625 11.0340625 2.0703125 11.953125 C2.03550781 12.96632813 2.03550781 12.96632813 2 14 C1.34 13.34 0.68 12.68 0 12 C-0.99 12.495 -0.99 12.495 -2 13 C-1.85769192 11.58297487 -1.71099254 10.1663904 -1.5625 8.75 C-1.48128906 7.96109375 -1.40007812 7.1721875 -1.31640625 6.359375 C-1.02365007 4.17635361 -0.57935581 2.1226818 0 0 Z " fill="#E5EAEA" transform="translate(435,486)"/>
<path d="M0 0 C1.175625 0.0825 2.35125 0.165 3.5625 0.25 C4.2225 1.24 4.8825 2.23 5.5625 3.25 C3.2525 2.92 0.9425 2.59 -1.4375 2.25 C-2.41870464 5.30263664 -2.41870464 7.19736336 -1.4375 10.25 C-2.7575 9.59 -4.0775 8.93 -5.4375 8.25 C-4.42849099 0.32207207 -4.42849099 0.32207207 0 0 Z " fill="#0A181C" transform="translate(320.4375,445.75)"/>
<path d="M0 0 C0.33 0.66 0.66 1.32 1 2 C-0.76915475 2.98219627 -2.54038569 3.96065359 -4.3125 4.9375 C-5.29863281 5.48277344 -6.28476562 6.02804687 -7.30078125 6.58984375 C-10 8 -10 8 -13 9 C-13.33 6.36 -13.66 3.72 -14 1 C-12 3 -12 3 -12 6 C-8.04 4.02 -4.08 2.04 0 0 Z " fill="#52BDB9" transform="translate(640,528)"/>
<path d="M0 0 C5.61 0 11.22 0 17 0 C14 3 14 3 11.73828125 3.29296875 C10.93777344 3.25816406 10.13726563 3.22335937 9.3125 3.1875 C8.10013672 3.14689453 8.10013672 3.14689453 6.86328125 3.10546875 C6.24839844 3.07066406 5.63351562 3.03585937 5 3 C5 2.67 5 2.34 5 2 C3.35 1.67 1.7 1.34 0 1 C0 0.67 0 0.34 0 0 Z " fill="#0C2F36" transform="translate(781,782)"/>
<path d="M0 0 C2.24973447 -0.054138 4.49984383 -0.09285491 6.75 -0.125 C8.00296875 -0.14820313 9.2559375 -0.17140625 10.546875 -0.1953125 C13.72820492 -0.01537302 15.36521896 0.31001418 18 2 C15.00519083 2.8723412 12.36424089 3.10829766 9.25 3.0625 C8.45078125 3.05347656 7.6515625 3.04445313 6.828125 3.03515625 C6.22484375 3.02355469 5.6215625 3.01195312 5 3 C5 2.67 5 2.34 5 2 C3.35 1.67 1.7 1.34 0 1 C0 0.67 0 0.34 0 0 Z " fill="#0D2F35" transform="translate(444,768)"/>
<path d="M0 0 C-1.1446875 0.8971875 -1.1446875 0.8971875 -2.3125 1.8125 C-4.3483575 3.46959332 -6.1978279 5.10297674 -8 7 C-8.6875 5.1875 -8.6875 5.1875 -9 3 C-6.75886401 -0.69128281 -4.00118708 -0.26674581 0 0 Z " fill="#01181F" transform="translate(512,527)"/>
<path d="M0 0 C0.33 0.99 0.66 1.98 1 3 C1.639375 2.835 2.27875 2.67 2.9375 2.5 C6.97586652 1.84067485 10.91807258 1.91996221 15 2 C15 2.33 15 2.66 15 3 C9.72 3.66 4.44 4.32 -1 5 C-0.67 3.35 -0.34 1.7 0 0 Z " fill="#57C6C2" transform="translate(390,466)"/>
<path d="M0 0 C0.556875 0.226875 1.11375 0.45375 1.6875 0.6875 C0.945 0.935 0.2025 1.1825 -0.5625 1.4375 C-3.51374062 2.77897301 -5.16064974 4.29655526 -7.3125 6.6875 C-7.3125 5.3675 -7.3125 4.0475 -7.3125 2.6875 C-4.7516601 0.62460119 -3.3245861 -0.44926839 0 0 Z " fill="#02161C" transform="translate(458.3125,81.3125)"/>
<path d="M0 0 C0.33 0.66 0.66 1.32 1 2 C-0.40269417 6.10018296 -1.92047431 9.92047431 -5 13 C-4.48474397 7.71862571 -2.74522883 4.42778844 0 0 Z " fill="#33A09D" transform="translate(390,229)"/>
<path d="M0 0 C3.63 0 7.26 0 11 0 C10.01 0.33 9.02 0.66 8 1 C8 1.66 8 2.32 8 3 C5.69 3 3.38 3 1 3 C0.67 2.01 0.34 1.02 0 0 Z " fill="#0D2E35" transform="translate(858,786)"/>
<path d="M0 0 C0.66 0.33 1.32 0.66 2 1 C2.625 4.0625 2.625 4.0625 3 7 C2.01 7.495 2.01 7.495 1 8 C0.34 7.34 -0.32 6.68 -1 6 C-1 5.34 -1 4.68 -1 4 C-1.33 3.01 -1.66 2.02 -2 1 C-1.34 0.67 -0.68 0.34 0 0 Z " fill="#062A32" transform="translate(148,532)"/>
<path d="M0 0 C0.3403125 0.928125 0.3403125 0.928125 0.6875 1.875 C2.37929835 4.61410209 3.99244161 5.05024472 7 6 C5 7 5 7 1.875 6.0625 C0.92625 5.711875 -0.0225 5.36125 -1 5 C-0.67 3.35 -0.34 1.7 0 0 Z " fill="#54BEBB" transform="translate(692,222)"/>
<path d="M0 0 C0.99 0 1.98 0 3 0 C3.33 2.64 3.66 5.28 4 8 C3.01 7.67 2.02 7.34 1 7 C0.67 4.69 0.34 2.38 0 0 Z " fill="#0F282E" transform="translate(677,533)"/>
<path d="M0 0 C0.99 0.33 1.98 0.66 3 1 C2.67 1.66 2.34 2.32 2 3 C1.34 3 0.68 3 0 3 C0 4.98 0 6.96 0 9 C-0.66 8.34 -1.32 7.68 -2 7 C-1.6730244 4.38419521 -1.17960932 2.35921863 0 0 Z " fill="#213134" transform="translate(329,503)"/>
<path d="M0 0 C4.455 2.97 4.455 2.97 9 6 C8.01 6.66 7.02 7.32 6 8 C4.99403703 7.0479279 3.99538437 6.08812654 3 5.125 C2.443125 4.59132812 1.88625 4.05765625 1.3125 3.5078125 C0 2 0 2 0 0 Z " fill="#18262A" transform="translate(583,190)"/>
</svg>
